<?xml version="1.0" encoding="UTF-8"?>
<svg viewBox="0 0 20 20" version="1.1" xmlns="http://www.w3.org/2000/svg" xmlns:xlink="http://www.w3.org/1999/xlink">
  <g stroke="none" stroke-width="1" fill="none" fill-rule="evenodd">
    <path d="M19.1666667,20 L19.1666667,2.06001282 C19.1666667,0.91999054 18.2466761,0 17.1166484,0 L3.71668498,0 C2.58665721,0 1.66666667,0.91999054 1.66666667,2.06001282 L1.66666667,15.5799866 C1.66666667,16.7200089 2.58665721,17.6399994 3.71668498,17.6399994 L15.0566737,17.6399994 L14.5266596,15.7899857 C17.4530665,18.5106277 16.6473643,17.7736664 19.1666667,20 Z M13.2566706,13.0599976 C13.2566706,13.0599976 12.8966777,12.6300049 12.5966517,12.2499847 C13.9066569,11.8799973 14.4066493,11.0599899 14.4066493,11.0599899 C13.9966838,11.3299942 13.6066691,11.5200043 13.2566706,11.6500092 C11.1021296,12.5549316 8.70455424,12.2452164 7.01666514,11.3000107 C6.99637095,11.2864304 6.75379435,11.1529541 6.60666148,11.0499954 C6.60666148,11.0499954 7.08666484,11.8500137 8.35665385,12.2299957 C8.05666606,12.6100159 7.68667857,13.0599976 7.68667857,13.0599976 C5.47667185,12.9899979 4.63667552,11.5399933 4.63667552,11.5399933 C4.63667552,8.32000732 6.07668559,5.70999146 6.07668559,5.70999146 C7.51665751,4.63001251 8.88666789,4.65991306 8.88666789,4.65991306 L8.9866511,4.78000641 C7.18664805,5.29998779 6.35668437,6.0900116 6.35668437,6.0900116 L6.38850784,6.07300087 C6.4618664,6.03420587 6.6588974,5.93222724 6.94666545,5.80001831 C9.25089518,4.78786469 12.0412318,4.78809357 14.4166819,6.0900116 C14.4166819,6.0900116 13.6266581,5.34000397 11.9266764,4.81998444 L12.0666758,4.65991306 C12.0666758,4.65991306 13.4366481,4.63001251 14.8766581,5.70999146 C14.8766581,5.70999146 16.3166682,8.32000732 16.3166682,11.5399933 C16.3166682,11.5399933 15.4666773,12.9899979 13.2566706,13.0599976 Z M12.2566477,10.6100082 C12.826678,10.6100082 13.2766596,10.1100159 13.2766596,9.50000763 C13.2766596,8.89000702 12.826678,8.39000702 12.2566477,8.39000702 C11.6866557,8.39000702 11.236674,8.89000702 11.236674,9.50000763 C11.236674,10.1100159 11.6966502,10.6100082 12.2566477,10.6100082 Z M8.60666911,10.6100082 C9.17666117,10.6100082 9.62668101,10.1100159 9.62668101,9.50000763 C9.63667552,8.89000702 9.17666117,8.39000702 8.60666911,8.39000702 C8.03667704,8.39000702 7.58665721,8.89000702 7.58665721,9.50000763 C7.58665721,10.1100159 8.04667155,10.6100082 8.60666911,10.6100082 Z"></path>
  </g>
</svg>