<?xml version="1.0" encoding="UTF-8"?>
<svg viewBox="0 0 20 20" version="1.1" xmlns="http://www.w3.org/2000/svg" xmlns:xlink="http://www.w3.org/1999/xlink">
  <g stroke="none" stroke-width="1" fill="none" fill-rule="evenodd">
    <path d="M7.53225019,18.995952 C7.53225019,18.7459835 7.52016129,17.3669434 7.52016129,16.5201692 C7.52016129,16.5201692 4.69758065,17.1250079 4.10483083,15.3185641 C4.10483083,15.3185641 3.64517704,14.1451534 2.98387097,13.8427341 C2.98387097,13.8427341 2.06046812,13.2096617 3.04837135,13.2217899 C3.04837135,13.2217899 4.05241935,13.3024351 4.60484659,14.2621046 C5.48788747,15.8185405 6.96773406,15.3709756 7.54433909,15.104823 C7.63711253,14.4596617 7.8992093,14.0120968 8.18950038,13.7459835 C5.93549175,13.4959756 3.66128245,13.1693391 3.66128245,9.29033833 C3.66128245,8.18146736 3.96775769,7.62498425 4.61291898,6.91532258 C4.50805664,6.65322581 4.16531471,5.57258852 4.71774194,4.1774036 C5.56049962,3.91530683 7.5,5.26611328 7.5,5.26611328 C8.30645161,5.04032258 9.1733871,4.92337135 10.0322502,4.92337135 C10.8911133,4.92337135 11.7580488,5.04032258 12.5645004,5.26611328 C12.5645004,5.26611328 14.5040401,3.91129032 15.3467584,4.1774036 C15.8991857,5.57660503 15.5564437,6.65322581 15.4516208,6.91532258 C16.0967821,7.62904013 16.4919355,8.18548387 16.4919355,9.29033833 C16.4919355,13.1814674 14.1169197,13.4919197 11.8629111,13.7459835 C12.2338867,14.0645083 12.548395,14.669347 12.548395,15.6169276 L12.5479324,16.1072014 C12.5457178,17.3527477 12.5363061,18.6961663 12.5363061,18.987919 C12.5363061,19.2500158 12.7217742,19.5685405 13.2338788,19.4758065 C17.2661369,18.1370889 20,14.3104996 20,9.83870968 C20,4.24595987 15.4637097,0 9.87095987,0 C4.27821006,0 0,4.24595987 0,9.83870968 C0,14.3104996 2.81450825,18.1370889 6.83467742,19.4838788 C7.35079858,19.5766129 7.53225019,19.2580488 7.53225019,18.995952 Z"></path>
  </g>
</svg>