<?xml version="1.0" encoding="UTF-8"?>
<svg viewBox="0 0 20 20" version="1.1" xmlns="http://www.w3.org/2000/svg" xmlns:xlink="http://www.w3.org/1999/xlink">
  <g stroke="none" stroke-width="1" fill="none" fill-rule="evenodd">
    <path d="M19.6210861,7.95311737 C19.7734451,7.83203888 20,7.94529724 20,8.13671875 L20,16.125 C20,17.1601562 19.1601562,18 18.125,18 L1.875,18 C0.83984375,18 0,17.1601562 0,16.125 L0,8.14060974 C0,7.94529724 0.222663879,7.83592987 0.378913879,7.95704651 C1.25389099,8.63671112 2.41405487,9.50001526 6.39842987,12.3945312 C7.22267151,12.996109 8.61328125,14.2617111 10,14.253891 C11.3945389,14.2656403 12.8125,12.9726486 13.6054611,12.3945312 C17.5898361,9.50001526 18.746109,8.63282013 19.6210861,7.95311737 Z M10,13 C9.09374237,13.0156403 7.78907776,11.8593674 7.13279724,11.3827972 C1.94923401,7.62108612 1.55467987,7.28905487 0.359382629,6.35548401 C0.132827759,6.17577362 0,5.90626526 0,5.6171875 L0,4.875 C0,3.83984375 0.83984375,3 1.875,3 L18.125,3 C19.1601562,3 20,3.83984375 20,4.875 L20,5.6171875 C20,5.90626526 19.8671722,6.17970276 19.6406174,6.35548401 C18.4453201,7.29298401 18.050766,7.62108612 12.8672028,11.3827972 C12.2109222,11.8593674 10.9062576,13.0156403 10,13 Z" fill="#A4A4A4"></path>
  </g>
</svg>