<?xml version="1.0" encoding="UTF-8"?>
<svg viewBox="0 0 20 20" version="1.1" xmlns="http://www.w3.org/2000/svg" xmlns:xlink="http://www.w3.org/1999/xlink">
  <g stroke="none" stroke-width="1" fill="none" fill-rule="evenodd">
    <path d="M16.7347603,8.21718216 C16.8414116,8.13242722 17,8.21170807 17,8.34570312 L17,13.9375 C17,14.6621094 16.4121094,15.25 15.6875,15.25 L4.3125,15.25 C3.58789062,15.25 3,14.6621094 3,13.9375 L3,8.34842682 C3,8.21170807 3.15586472,8.13515091 3.26523972,8.21993256 C3.87772369,8.69569778 4.68983841,9.30001068 7.47890091,11.3261719 C8.05587006,11.7472763 9.02929688,12.6331978 10,12.6277237 C10.9761772,12.6359482 11.96875,11.730854 12.5238228,11.3261719 C15.3128853,9.30001068 16.1222763,8.69297409 16.7347603,8.21718216 Z M10,11.75 C9.36561966,11.7609482 8.45235443,10.9515572 7.99295807,10.6179581 C4.36446381,7.98476028 4.08827591,7.75233841 3.25156784,7.09883881 C3.09297943,6.97304153 3,6.78438568 3,6.58203125 L3,6.0625 C3,5.33789062 3.58789062,4.75 4.3125,4.75 L15.6875,4.75 C16.4121094,4.75 17,5.33789062 17,6.0625 L17,6.58203125 C17,6.78438568 16.9070206,6.97579193 16.7484322,7.09883881 C15.9117241,7.75508881 15.6355362,7.98476028 12.0070419,10.6179581 C11.5476456,10.9515572 10.6343803,11.7609482 10,11.75 Z" id="Email" fill="#A4A4A4"></path>
  </g>
</svg>