<svg width="23" height="21" viewBox="0 0 23 21" fill="none" xmlns="http://www.w3.org/2000/svg">
<g clip-path="url(#clip0)">
<path d="M16.9248 16.625H6.2498C5.76053 16.625 5.36022 16.2312 5.36022 15.75V5.25C5.36022 4.76875 5.76053 4.375 6.2498 4.375H16.9248C17.4141 4.375 17.8144 4.76875 17.8144 5.25V15.75C17.8144 16.2312 17.4141 16.625 16.9248 16.625ZM17.8144 2.625H5.36022C4.38168 2.625 3.58105 3.4125 3.58105 4.375V16.625C3.58105 17.5875 4.38168 18.375 5.36022 18.375H17.8144C18.7929 18.375 19.5936 17.5875 19.5936 16.625V4.375C19.5936 3.4125 18.7929 2.625 17.8144 2.625Z" fill="#DEFFFF" fill-opacity="0.5"/>
</g>
<defs>
<clipPath id="clip0">
<rect width="21.35" height="21" fill="white" transform="translate(0.912109)"/>
</clipPath>
</defs>
</svg>