<svg width="81" height="23" viewBox="0 0 81 23" fill="none" xmlns="http://www.w3.org/2000/svg">
<path d="M0.83 22V0.699999H10.01C11.05 0.699999 12.01 0.909999 12.89 1.33C13.77 1.75 14.53 2.32 15.17 3.04C15.81 3.74 16.3 4.53 16.64 5.41C17 6.29 17.18 7.18 17.18 8.08C17.18 9.34 16.88 10.53 16.28 11.65C15.7 12.77 14.88 13.69 13.82 14.41C12.78 15.11 11.56 15.46 10.16 15.46H6.68V22H0.83ZM6.68 10.36H9.77C10.01 10.36 10.24 10.29 10.46 10.15C10.68 10.01 10.86 9.77 11 9.43C11.16 9.09 11.24 8.64 11.24 8.08C11.24 7.48 11.15 7.02 10.97 6.7C10.81 6.36 10.6 6.13 10.34 6.01C10.1 5.87 9.86 5.8 9.62 5.8H6.68V10.36ZM29.1214 22.18C27.5014 22.18 26.0314 21.88 24.7114 21.28C23.3914 20.66 22.2514 19.84 21.2914 18.82C20.3514 17.78 19.6214 16.62 19.1014 15.34C18.6014 14.04 18.3514 12.7 18.3514 11.32C18.3514 9.9 18.6214 8.55 19.1614 7.27C19.7014 5.99 20.4514 4.85 21.4114 3.85C22.3914 2.83 23.5414 2.03 24.8614 1.45C26.2014 0.869998 27.6614 0.579999 29.2414 0.579999C30.8614 0.579999 32.3314 0.889999 33.6514 1.51C34.9714 2.11 36.1014 2.93 37.0414 3.97C37.9814 5.01 38.7014 6.18 39.2014 7.48C39.7214 8.76 39.9814 10.08 39.9814 11.44C39.9814 12.84 39.7114 14.18 39.1714 15.46C38.6514 16.74 37.9014 17.89 36.9214 18.91C35.9614 19.91 34.8214 20.71 33.5014 21.31C32.1814 21.89 30.7214 22.18 29.1214 22.18ZM24.2914 11.38C24.2914 12.1 24.3914 12.8 24.5914 13.48C24.7914 14.14 25.0914 14.74 25.4914 15.28C25.8914 15.8 26.3914 16.22 26.9914 16.54C27.6114 16.84 28.3414 16.99 29.1814 16.99C30.0214 16.99 30.7514 16.83 31.3714 16.51C31.9914 16.19 32.4914 15.76 32.8714 15.22C33.2714 14.66 33.5614 14.05 33.7414 13.39C33.9414 12.71 34.0414 12.02 34.0414 11.32C34.0414 10.6 33.9414 9.91 33.7414 9.25C33.5414 8.59 33.2414 8 32.8414 7.48C32.4414 6.94 31.9314 6.52 31.3114 6.22C30.6914 5.92 29.9714 5.77 29.1514 5.77C28.3114 5.77 27.5814 5.93 26.9614 6.25C26.3614 6.57 25.8614 7 25.4614 7.54C25.0614 8.06 24.7614 8.66 24.5614 9.34C24.3814 10 24.2914 10.68 24.2914 11.38ZM52.0609 22.18C50.4409 22.18 48.9709 21.88 47.6509 21.28C46.3309 20.66 45.1909 19.84 44.2309 18.82C43.2909 17.78 42.5609 16.62 42.0409 15.34C41.5409 14.04 41.2909 12.7 41.2909 11.32C41.2909 9.9 41.5609 8.55 42.1009 7.27C42.6409 5.99 43.3909 4.85 44.3509 3.85C45.3309 2.83 46.4809 2.03 47.8009 1.45C49.1409 0.869998 50.6009 0.579999 52.1809 0.579999C53.8009 0.579999 55.2709 0.889999 56.5909 1.51C57.9109 2.11 59.0409 2.93 59.9809 3.97C60.9209 5.01 61.6409 6.18 62.1409 7.48C62.6609 8.76 62.9209 10.08 62.9209 11.44C62.9209 12.84 62.6509 14.18 62.1109 15.46C61.5909 16.74 60.8409 17.89 59.8609 18.91C58.9009 19.91 57.7609 20.71 56.4409 21.31C55.1209 21.89 53.6609 22.18 52.0609 22.18ZM47.2309 11.38C47.2309 12.1 47.3309 12.8 47.5309 13.48C47.7309 14.14 48.0309 14.74 48.4309 15.28C48.8309 15.8 49.3309 16.22 49.9309 16.54C50.5509 16.84 51.2809 16.99 52.1209 16.99C52.9609 16.99 53.6909 16.83 54.3109 16.51C54.9309 16.19 55.4309 15.76 55.8109 15.22C56.2109 14.66 56.5009 14.05 56.6809 13.39C56.8809 12.71 56.9809 12.02 56.9809 11.32C56.9809 10.6 56.8809 9.91 56.6809 9.25C56.4809 8.59 56.1809 8 55.7809 7.48C55.3809 6.94 54.8709 6.52 54.2509 6.22C53.6309 5.92 52.9109 5.77 52.0909 5.77C51.2509 5.77 50.5209 5.93 49.9009 6.25C49.3009 6.57 48.8009 7 48.4009 7.54C48.0009 8.06 47.7009 8.66 47.5009 9.34C47.3209 10 47.2309 10.68 47.2309 11.38ZM65.4003 22V0.699999H71.2503V16.9H80.9103V22H65.4003Z" fill="#00FFB0"/>
</svg>
