<svg width="87" height="23" viewBox="0 0 87 23" fill="none" xmlns="http://www.w3.org/2000/svg">
<path d="M14.73 7.66C14.73 7.66 14.56 7.56 14.22 7.36C13.88 7.16 13.43 6.94 12.87 6.7C12.31 6.44 11.7 6.21 11.04 6.01C10.38 5.81 9.73 5.71 9.09 5.71C8.59 5.71 8.18 5.79 7.86 5.95C7.54 6.11 7.38 6.38 7.38 6.76C7.38 7.32 7.73 7.72 8.43 7.96C9.15 8.18 10.12 8.49 11.34 8.89C12.66 9.29 13.8 9.75 14.76 10.27C15.72 10.79 16.46 11.46 16.98 12.28C17.5 13.08 17.76 14.15 17.76 15.49C17.76 16.77 17.53 17.85 17.07 18.73C16.61 19.59 15.99 20.28 15.21 20.8C14.43 21.32 13.56 21.7 12.6 21.94C11.64 22.16 10.66 22.27 9.66 22.27C8.64 22.27 7.57 22.17 6.45 21.97C5.35 21.75 4.28 21.46 3.24 21.1C2.2 20.72 1.25 20.28 0.39 19.78L2.91 14.65C2.91 14.65 3.11 14.77 3.51 15.01C3.91 15.25 4.44 15.52 5.1 15.82C5.76 16.12 6.49 16.39 7.29 16.63C8.11 16.87 8.93 16.99 9.75 16.99C10.39 16.99 10.83 16.91 11.07 16.75C11.33 16.57 11.46 16.34 11.46 16.06C11.46 15.64 11.24 15.32 10.8 15.1C10.36 14.86 9.78 14.64 9.06 14.44C8.36 14.22 7.58 13.97 6.72 13.69C4.84 13.05 3.47 12.29 2.61 11.41C1.75 10.51 1.32 9.28 1.32 7.72C1.32 6.14 1.69 4.82 2.43 3.76C3.17 2.7 4.14 1.9 5.34 1.36C6.56 0.799999 7.87 0.519999 9.27 0.519999C10.31 0.519999 11.31 0.649999 12.27 0.91C13.25 1.15 14.16 1.45 15 1.81C15.86 2.17 16.61 2.51 17.25 2.83L14.73 7.66ZM26.5962 0.699999H31.9662L33.9162 7.27L35.8962 0.699999H41.2662L37.6662 10.87L39.1962 15.22L43.7862 0.699999H50.1462L42.1062 22H37.0362L33.9162 14.38L30.8262 22H25.7562L17.7162 0.699999H24.0462L28.6662 15.22L30.1362 10.87L26.5962 0.699999ZM54.7676 0.699999H61.3076L68.0876 22H62.1476L60.8576 17.83H55.1876L53.9276 22H47.9576L54.7676 0.699999ZM59.9276 13.93L58.0376 6.43L56.0576 13.93H59.9276ZM69.8573 22V0.699999H79.0373C80.0773 0.699999 81.0373 0.909999 81.9173 1.33C82.7973 1.75 83.5573 2.32 84.1973 3.04C84.8373 3.74 85.3273 4.53 85.6673 5.41C86.0273 6.29 86.2073 7.18 86.2073 8.08C86.2073 9.34 85.9073 10.53 85.3073 11.65C84.7273 12.77 83.9073 13.69 82.8473 14.41C81.8073 15.11 80.5873 15.46 79.1873 15.46H75.7073V22H69.8573ZM75.7073 10.36H78.7973C79.1573 10.36 79.4873 10.2 79.7873 9.88C80.1073 9.54 80.2673 8.94 80.2673 8.08C80.2673 7.2 80.0873 6.6 79.7273 6.28C79.3673 5.96 79.0073 5.8 78.6473 5.8H75.7073V10.36Z" fill="#00FFB0"/>
</svg>
