<svg width="131" height="19" viewBox="0 0 131 19" fill="none" xmlns="http://www.w3.org/2000/svg">
<path d="M0.675 14.375L8.725 4.5H1.05V0.249999H14.6V3.875L7.05 13.75H14.75V18H0.675V14.375ZM17.0768 18V0.249999H21.9518V18H17.0768ZM25.0113 18V0.249999H29.8863V13.75H37.9363V18H25.0113Z" fill="#00FFB0"/>
<path d="M54.7354 13.45C54.7354 14.5167 54.4437 15.3833 53.8604 16.05C53.2937 16.7167 52.527 17.2083 51.5604 17.525C50.5937 17.8417 49.527 18 48.3604 18H39.6354V0.249999H49.9354C50.7687 0.249999 51.4854 0.474999 52.0854 0.924999C52.702 1.35833 53.1687 1.925 53.4854 2.625C53.8187 3.325 53.9854 4.05 53.9854 4.8C53.9854 5.61667 53.7687 6.40833 53.3354 7.175C52.9187 7.94167 52.2854 8.51667 51.4354 8.9C52.452 9.2 53.252 9.725 53.8354 10.475C54.4354 11.225 54.7354 12.2167 54.7354 13.45ZM49.7854 12.45C49.7854 12.15 49.727 11.8917 49.6104 11.675C49.5104 11.4417 49.3687 11.2583 49.1854 11.125C49.002 10.9917 48.7854 10.925 48.5354 10.925H44.5104V13.9H48.3604C48.627 13.9 48.8687 13.8417 49.0854 13.725C49.302 13.6083 49.4687 13.4417 49.5854 13.225C49.7187 13.0083 49.7854 12.75 49.7854 12.45ZM44.5104 4.4V7.125H47.8354C48.052 7.125 48.2604 7.09167 48.4604 7.025C48.6604 6.94167 48.827 6.8 48.9604 6.6C49.0937 6.4 49.1604 6.11667 49.1604 5.75C49.1604 5.41667 49.102 5.15833 48.9854 4.975C48.8854 4.775 48.7437 4.63333 48.5604 4.55C48.3937 4.45 48.202 4.4 47.9854 4.4H44.5104ZM56.8961 18V0.249999H65.0461C65.9128 0.249999 66.7128 0.424999 67.4461 0.775C68.1794 1.125 68.8128 1.6 69.3461 2.2C69.8794 2.78333 70.2878 3.44167 70.5711 4.175C70.8711 4.90833 71.0211 5.65 71.0211 6.4C71.0211 7.08333 70.9211 7.74167 70.7211 8.375C70.5211 9.00833 70.2294 9.59167 69.8461 10.125C69.4628 10.6417 69.0044 11.0917 68.4711 11.475L72.2211 18H66.8711L63.7461 12.55H61.7711V18H56.8961ZM61.7711 8.3H64.8461C65.0461 8.3 65.2378 8.225 65.4211 8.075C65.6044 7.925 65.7544 7.70833 65.8711 7.425C66.0044 7.14167 66.0711 6.8 66.0711 6.4C66.0711 5.98333 65.9961 5.64167 65.8461 5.375C65.7128 5.09167 65.5378 4.875 65.3211 4.725C65.1211 4.575 64.9211 4.5 64.7211 4.5H61.7711V8.3ZM73.7662 18V0.249999H78.6412V18H73.7662ZM81.7008 18V0.249999H88.5258C90.4924 0.249999 92.1341 0.649999 93.4508 1.45C94.7841 2.23333 95.7841 3.3 96.4508 4.65C97.1341 5.98333 97.4758 7.46667 97.4758 9.1C97.4758 10.9 97.1008 12.4667 96.3508 13.8C95.6174 15.1333 94.5758 16.1667 93.2258 16.9C91.8924 17.6333 90.3258 18 88.5258 18H81.7008ZM92.5258 9.1C92.5258 8.18333 92.3674 7.38333 92.0508 6.7C91.7341 6 91.2758 5.45833 90.6758 5.075C90.0758 4.69167 89.3591 4.5 88.5258 4.5H86.5758V13.75H88.5258C89.3758 13.75 90.0924 13.55 90.6758 13.15C91.2758 12.75 91.7341 12.2 92.0508 11.5C92.3674 10.7833 92.5258 9.98333 92.5258 9.1ZM107.271 18.125C106.121 18.125 105.021 17.925 103.971 17.525C102.938 17.1083 102.021 16.5083 101.221 15.725C100.421 14.925 99.788 13.9667 99.3213 12.85C98.8713 11.7167 98.6463 10.425 98.6463 8.975C98.6463 7.725 98.8796 6.56667 99.3463 5.5C99.813 4.43333 100.455 3.5 101.271 2.7C102.105 1.88333 103.071 1.25 104.171 0.799999C105.271 0.349999 106.463 0.124999 107.746 0.124999C109.346 0.124999 110.796 0.474999 112.096 1.175C113.396 1.85833 114.363 2.8 114.996 4L111.371 6.775C111.021 6.075 110.496 5.51667 109.796 5.1C109.096 4.66667 108.355 4.45 107.571 4.45C106.988 4.45 106.455 4.56667 105.971 4.8C105.488 5.03333 105.063 5.35833 104.696 5.775C104.346 6.19167 104.071 6.69167 103.871 7.275C103.688 7.84167 103.596 8.46667 103.596 9.15C103.596 9.85 103.696 10.4833 103.896 11.05C104.096 11.6167 104.371 12.1083 104.721 12.525C105.088 12.925 105.521 13.2417 106.021 13.475C106.521 13.6917 107.08 13.8 107.696 13.8C108.48 13.8 109.23 13.6083 109.946 13.225C110.663 12.825 111.313 12.2667 111.896 11.55V16.3C110.563 17.5167 109.021 18.125 107.271 18.125ZM111.646 12.05H108.371V8.55H115.671V18H111.646V12.05ZM130.728 13.75V18H118.078V0.249999H130.503V4.5H122.953V7H129.403V10.95H122.953V13.75H130.728Z" fill="#DEFFFF"/>
</svg>
