<?xml version="1.0" encoding="UTF-8"?>
<svg width="10px" height="10px" viewBox="0 0 10 10" version="1.1" xmlns="http://www.w3.org/2000/svg" xmlns:xlink="http://www.w3.org/1999/xlink">
    <g stroke="none" stroke-width="1" fill="none" fill-rule="evenodd">
        <g transform="translate(-872.000000, -696.000000)" fill="#BABABA">
            <path d="M881.320816,705.320816 C881.100282,705.54135 880.753266,705.558314 880.513274,705.371709 L880.45564,705.320816 L877.000191,701.864446 L873.54436,705.320816 C873.305448,705.559728 872.918096,705.559728 872.679184,705.320816 C872.45865,705.100282 872.441686,704.753266 872.628291,704.513274 L872.679184,704.45564 L876.135554,700.999809 L872.679184,697.54436 C872.440272,697.305448 872.440272,696.918096 872.679184,696.679184 C872.899718,696.45865 873.246734,696.441686 873.486726,696.628291 L873.54436,696.679184 L877.000191,700.134492 L880.45564,696.679184 C880.694552,696.440272 881.081904,696.440272 881.320816,696.679184 C881.54135,696.899718 881.558314,697.246734 881.371709,697.486726 L881.320816,697.54436 L877.865508,700.999809 L881.320816,704.45564 C881.559728,704.694552 881.559728,705.081904 881.320816,705.320816 Z" id="Path"></path>
        </g>
    </g>
</svg>