<svg width="25" height="27" viewBox="0 0 25 27" fill="none" xmlns="http://www.w3.org/2000/svg">
<path d="M12.8529 0.71875C6.29702 0.71875 0.976318 6.43542 0.976318 13.4792C0.976318 20.5229 6.29702 26.2396 12.8529 26.2396C19.4087 26.2396 24.7294 20.5229 24.7294 13.4792C24.7294 6.43542 19.4087 0.71875 12.8529 0.71875ZM9.63433 18.9534L5.37064 14.3724C4.90746 13.8747 4.90746 13.0708 5.37064 12.5732C5.83383 12.0755 6.58205 12.0755 7.04524 12.5732L10.4776 16.2482L18.6486 7.46901C19.1118 6.97135 19.86 6.97135 20.3232 7.46901C20.7864 7.96666 20.7864 8.77057 20.3232 9.26823L11.3089 18.9534C10.8576 19.451 10.0975 19.451 9.63433 18.9534Z" fill="#00FFB0"/>
</svg>
