<?xml version="1.0" encoding="UTF-8"?>
<svg viewBox="0 0 40 40" version="1.1" xmlns="http://www.w3.org/2000/svg" xmlns:xlink="http://www.w3.org/1999/xlink">
  <path d="M18.1350717,31.4257533 L18.7802498,30.6715713 L18.7802498,30.6715713 L20.0535167,29.1462202 C21.5253027,27.3561141 23.0388194,25.4201985 24.5557954,23.3698735 C26.7412485,20.4162649 28.7077178,17.5358128 30.3798223,14.8773315 C32.129194,18.6351512 31.8265588,23.1949569 29.1884376,26.7604731 C26.5502028,30.3259652 22.2629966,31.9693979 18.1350717,31.4257533 Z M12.7475077,29.2503496 C7.51449346,25.4065844 6.39377393,18.0568565 10.2442289,12.8341576 C14.094708,7.61134578 21.4583344,6.4935892 26.6913486,10.3373544 C27.3952823,10.8544149 28.0218806,11.4368888 28.5739589,12.0676628 L29.0420983,11.2168658 C30.9865504,7.60767489 31.8242231,5.03228935 31.0558026,4.46794399 C30.3304981,3.93513148 28.2597666,4.83146698 24.8657609,7.58187383 L25.6733361,6.70146131 C30.0609322,1.98274295 33.5274128,-0.669104709 34.6374419,0.146127906 C36.4396698,1.46997314 31.3472795,11.4318836 23.2631662,22.3969549 L22.4127435,23.5392732 C14.6244211,33.8991574 7.10150937,41.131217 5.36251752,39.8538225 C4.18523798,38.9890689 5.95040972,34.4382303 9.56882406,28.3300962 L9.21240298,29.2590068 C7.83299656,32.9667335 7.7596472,34.6619052 8.4313303,35.1552723 C9.2587228,35.7631178 11.7630045,33.9022665 14.9625647,30.5299128 C14.1949375,30.1914411 13.4515306,29.767547 12.7475077,29.2503496 Z" fill="#00DAFF" fill-rule="nonzero"></path>
</svg>