<?xml version="1.0" encoding="UTF-8"?>
<svg viewBox="0 0 40 40" version="1.1" xmlns="http://www.w3.org/2000/svg" xmlns:xlink="http://www.w3.org/1999/xlink">
  <path fill="#EAEAEA" d="M28.6224349,8.65200518 C30.3871247,8.87141738 31.8397589,9.65660301 32.925147,11.0586495 C33.4871134,11.7846118 33.8310921,12.6039168 33.8368257,13.5428412 C33.8452226,14.9046848 33.8685269,16.266455 33.8858757,17.6282619 L33.8959742,17.8589617 L33.8959742,17.8589617 L34.6509812,17.8561982 C34.7745625,17.856372 34.8974546,17.8574103 35.0203138,17.8601345 C36.8954585,17.9018034 37.9032397,19.1836075 38.2030143,20.2544284 C38.2809912,20.5328807 38.2917185,20.8298403 38.3333333,21.1182975 L38.3333333,25.4427738 C38.3255282,25.5333313 38.3121375,25.6237788 38.3108059,25.7144462 L38.3035392,26.7401778 L38.2984704,26.9964579 L38.2984704,26.9964579 L38.2635335,27.890267 C38.2480648,28.2092893 38.2229228,28.5271295 38.1617324,28.8373044 C37.6485571,31.43888 36.3558347,33.5884746 34.2583375,35.2448223 C32.7223997,36.4577279 30.981717,37.2082078 29.0246004,37.4420227 C28.7506455,37.4747128 28.4735094,37.4813095 28.1978159,37.5 L27.0880877,37.5 L26.7034189,37.4676397 C26.2993669,37.4264106 25.8859562,37.4245782 25.4930754,37.3347903 C22.4149853,36.6315499 20.0317701,34.9580875 18.4076089,32.2632058 C17.6134134,30.9454866 17.1350836,29.5135352 17.0257754,27.9788592 C16.9638156,27.10876 16.9462079,26.2341896 16.9451721,25.3615249 C16.9433966,23.8411784 16.9406592,22.319769 16.9937042,20.8007051 C17.0365027,19.5739098 17.990721,18.4195311 19.1766505,18.0409562 C19.6026937,17.9049612 20.0399112,17.8605356 20.4817097,17.8525587 L21.3883758,17.8520353 L21.3883758,17.8520353 L21.3885238,17.61232 L21.4161793,15.0961779 C21.4223376,14.6768598 21.4302989,14.2575892 21.4416058,13.8384082 C21.452888,13.4211329 21.4864758,12.9897114 21.6049208,12.5925926 C22.0380847,11.1405947 22.9898245,10.100888 24.3249755,9.39108749 C25.6747379,8.67355427 27.1152761,8.46458678 28.6224349,8.65200518 Z M20.2855322,2.5 L21.0521914,2.5 L21.511646,2.53289796 C21.5881145,2.53927902 21.6644357,2.54688209 21.7404688,2.55686658 C22.9248842,2.71241452 24.0034641,3.16989963 25.0103797,3.81018358 C26.0870612,4.49487228 26.8919803,5.45860136 27.5829593,6.53238511 C27.6019432,6.56188817 27.6119098,6.59758462 27.6388889,6.66011909 L27.3606903,6.66336662 L27.3606903,6.66336662 L27.2309897,6.65880534 C26.3250176,6.5919918 25.4339406,6.68658176 24.5579047,6.92598445 C24.4190299,6.96393304 24.3261911,6.94745487 24.2185668,6.84554545 C23.4918469,6.15706565 22.6438123,5.66898895 21.6760329,5.49377231 C18.1849226,4.86167113 15.6607155,7.43770864 15.424329,10.232767 C15.2923074,11.7937537 15.6807866,13.1735416 16.701314,14.3214743 L16.8879908,14.5216335 C17.1333583,14.7726723 17.7225541,15.4930574 17.9855547,15.7501019 L10.2242624,23.8544347 L10.2242624,23.8544347 C10.3606547,23.9850214 10.4981422,24.1068623 10.62486,24.2395885 L12.0071154,25.6837843 C12.2359354,25.9259924 12.463041,26.1698493 12.6870272,26.4166966 C13.216022,26.9997011 13.175243,27.9218031 12.6340182,28.4910695 C12.1206486,29.030983 11.3316103,29.1194922 10.7484747,28.6599051 C10.5683645,28.5179638 10.3991793,28.361318 10.2332889,28.2003039 L8.11583189,26.0974137 C8.10317817,26.084424 8.09503509,26.0758945 8.09200066,26.0724192 L6.38220468,27.8289773 L6.38220468,27.8289773 L6.81607613,28.2725842 C7.49046184,28.9713327 8.72725368,30.2694497 8.91345771,30.5051225 C9.28390012,30.9739434 9.27736526,31.5191494 9.06372291,32.0297851 C8.84131873,32.561178 8.39074219,32.8735125 7.82648104,32.9283522 C7.49269224,32.9608581 7.15269715,32.8716733 6.89367587,32.6254766 L6.5327638,32.2725338 C5.80722552,31.5515886 4.56129789,30.2701928 4.29050291,29.9746305 L4.23862564,30.0207619 L3.91498595,30.2290099 L3.91498595,30.2290099 C3.00364724,30.7929087 1.96146537,30.3497623 1.69945047,29.2881401 C1.69393783,29.2658063 1.67783799,29.2462878 1.66666667,29.2254179 L1.66666667,28.6623824 C1.7183614,28.2757647 13.9580385,15.6157991 14.008419,15.5614474 C13.6443654,15.0445433 13.372749,14.4816204 13.148556,13.8931357 C11.9097078,10.6416433 12.6436927,7.16433614 15.0975496,4.74602364 C16.274773,3.58583271 17.6820307,2.87242921 19.2885102,2.58723297 C19.6159832,2.52909017 19.9529482,2.52758874 20.2855322,2.5 Z M27.1862987,23.6027824 C26.441819,23.7574741 25.9091865,24.4117893 25.80502,25.1930903 C25.7120988,25.8904304 26.0924766,26.6398475 26.723727,27.0027003 L26.9781876,27.1468373 L26.9781876,27.1468373 L26.6602217,27.9577214 C26.608381,28.0909576 26.5572431,28.2237541 26.5069971,28.3568844 C26.3540025,28.7621758 26.2060018,29.1693729 26.0613302,29.5777061 C25.9585324,29.8677392 26.2605634,30.2827056 26.5705475,30.2828156 C27.1005907,30.2829988 27.6307818,30.2883861 28.160566,30.2772817 C28.4367404,30.271528 28.7155411,30.2542667 28.9873135,30.2083466 C29.3734989,30.143113 29.4950512,29.9226747 29.3575928,29.557403 C29.181479,29.0892601 28.9887192,28.6272375 28.8059839,28.1614767 L28.4534973,27.2386408 L28.4534973,27.2386408 C28.4166543,27.1417066 28.4365924,27.096776 28.5399821,27.027621 C28.9711485,26.7390905 29.3299606,26.376934 29.4516608,25.8537456 C29.6409064,25.040231 29.3668406,24.3916329 28.699598,23.8955275 C28.2426489,23.5557996 27.7129757,23.4933878 27.1862987,23.6027824 Z M25.2461239,12.3479298 C24.9091734,12.6238534 24.5790663,12.9214726 24.5137773,13.3892124 C24.4859971,13.5883215 24.4646903,13.7900694 24.4633216,13.9907544 C24.4550357,15.2180994 24.4531861,16.445481 24.4498926,17.6728627 L24.4609912,17.8419204 L24.4609912,17.8419204 L30.8893876,17.8419204 L30.898464,17.7111599 L30.898464,17.7111599 L30.87139,15.1956314 C30.8688412,14.7764001 30.8687837,14.3571988 30.8734815,13.9380544 C30.8809167,13.276153 30.5842864,12.7958063 30.108065,12.3868135 C29.4756309,11.8437252 28.7233832,11.6194022 27.9026282,11.5626342 C26.9150071,11.4943222 26.0162013,11.7172526 25.2461239,12.3479298 Z"></path>
</svg>