<svg width="1147" height="1225" viewBox="0 0 1147 1225" fill="none" xmlns="http://www.w3.org/2000/svg">
<path d="M171.865 85.8445C352.139 21.1309 563.944 2.20112 647.312 0.825409C687.758 0.825409 781.856 12.5465 834.684 59.4308C900.718 118.036 902.369 188.823 902.369 250.105C902.369 336.775 844.589 456.462 842.113 467.192C839.636 477.923 748.014 639.707 710.044 675.2C679.668 703.595 684.731 710.143 691.059 709.868C707.843 708.217 744.547 703.265 757.093 696.661C769.64 690.058 843.763 679.603 879.257 675.2H980.784C1049.3 675.2 1126.89 740.409 1138.44 803.142C1150 865.874 1154.12 900.542 1113.68 962.449C1081.32 1011.98 982.986 1052.42 937.862 1066.45L620.898 1133.31C559.266 1144.59 419.823 1168.81 355.11 1175.41C274.218 1183.66 261.836 1177.89 215.612 1175.41C169.388 1172.93 112.434 1116.8 93.449 1063.15C78.2612 1020.23 87.1208 948.967 93.449 918.702C93.449 918.702 133.895 803.692 157.007 763.521L235.423 643.009C235.423 643.009 401.334 435.001 448.383 392.904C404.911 408.037 291.552 438.302 185.897 438.302C80.2422 438.302 24.1133 350.807 9.25569 307.059C-11.6552 260.285 -8.40846 150.558 171.865 85.8445Z" fill="white" fill-opacity="0.3"/>
<path d="M172.381 85.0191C352.654 20.3055 564.459 1.37571 647.827 0C688.273 0 782.372 11.7211 835.199 58.6054C901.234 117.211 902.884 187.997 902.884 249.279C902.884 335.949 845.104 455.636 842.628 466.367C840.152 477.098 748.529 638.881 710.56 674.375C680.184 702.77 685.246 709.318 691.575 709.043C708.358 707.392 745.062 702.439 757.609 695.836C770.156 689.233 844.279 678.777 879.772 674.375H981.3C1049.81 674.375 1127.4 739.584 1138.96 802.316C1150.51 865.049 1154.64 899.717 1114.19 961.624C1081.84 1011.15 983.501 1051.6 938.378 1065.63L621.413 1132.49C559.781 1143.77 420.339 1167.98 355.625 1174.58C274.733 1182.84 262.352 1177.06 216.128 1174.58C169.904 1172.11 112.95 1115.98 93.9647 1062.33C78.7768 1019.4 87.6364 948.142 93.9647 917.876C93.9647 917.876 134.411 802.867 157.523 762.696L235.938 642.183C235.938 642.183 401.849 434.175 448.899 392.078C405.426 407.211 292.067 437.477 186.413 437.477C80.7578 437.477 24.6289 349.982 9.77132 306.234C-11.1395 259.46 -7.89284 149.733 172.381 85.0191Z" fill="white"/>
<path fill-rule="evenodd" clip-rule="evenodd" d="M363.709 33.2186C392.498 27.48 420.7 22.6335 447.694 18.5692C430.55 37.3225 399.373 105.084 399.373 230.294C399.373 339.943 422.429 382.071 433.999 396.977C415.063 402.898 389.154 410.012 359.184 416.614C343.656 390.599 315.493 316.712 321.783 202.23C326.848 110.048 347.776 57.7829 363.709 33.2186ZM169.847 85.9359C170.688 85.6293 171.532 85.3237 172.381 85.0191C198 75.8224 224.256 67.5503 250.69 60.1219C237.522 90.5517 216.384 151.994 221.908 262.486C221.908 278.654 223.907 292.807 225.658 305.205L225.659 305.206C226.457 310.857 227.204 316.144 227.686 321.092C230.875 353.791 237.258 374.816 240.552 385.665C241.582 389.057 242.31 391.455 242.544 392.904C245.488 401.735 254.337 425.659 260.901 433.082C236.361 435.812 211.249 437.471 186.557 437.477C177.898 426.767 163.188 396.418 155.048 335.949C145.803 267.274 147.344 204.981 149.27 182.42C151.529 158.574 158.597 108.991 169.847 85.9359ZM69.8659 393.523C37.2994 365.234 17.6834 329.531 9.77132 306.234C-5.12731 272.908 -7.76279 207.625 57.1546 149.435C45.1215 196.921 35.4653 292.141 70.0294 392.904C70.0294 393.169 69.9739 393.375 69.8659 393.523ZM371.655 476.948C392.631 452.29 412.49 429.58 428.152 412.863C428.468 412.81 428.78 412.761 429.088 412.714C434.591 450.134 459.794 543.132 516.583 615.77C573.373 688.407 595.824 710.419 599.951 712.345C638.471 748.664 729.709 825.428 786.498 841.937C813.462 852.943 870.692 875.119 883.899 875.78C910.313 881.558 969.083 893.114 992.855 893.114C996.278 893.114 999.986 893.157 1003.98 893.205H1003.99H1003.99C1034.21 893.562 1080.99 894.115 1146.51 877.425C1144.66 903.336 1135.77 928.606 1114.19 961.624C1113.81 962.206 1113.42 962.787 1113.03 963.366C1091.29 969.152 1032.63 978.418 968.918 969.878C888.851 959.148 845.929 947.592 829.421 940.988C825.921 939.589 821.495 938.263 815.899 936.588L815.892 936.586L815.889 936.585L815.886 936.584C795.075 930.353 758.085 919.278 692.399 881.558C625.705 843.258 574.914 796.814 557.855 778.379C535.018 756.092 481.42 699.633 449.723 652.088C410.691 593.54 379.67 528.583 371.655 476.948ZM246.079 629.525C256.859 616.105 275.328 593.2 297.058 566.628C308.801 617.615 331.464 654.541 348.258 681.905L348.259 681.906C354.156 691.516 359.33 699.946 363.053 707.392C383.689 741.235 433.215 803.967 485.217 855.144C523.301 892.624 550.318 911.952 569.184 925.45C576.078 930.382 581.884 934.536 586.744 938.512C604.904 953.37 658.557 988.038 755.132 1026.01C832.392 1056.38 906.185 1065.63 933.424 1066.45L933.71 1066.61L761.012 1103.04C723.109 1095.36 689.911 1080.45 657.054 1065.7L657.053 1065.7L657.052 1065.7L657.051 1065.7L657.05 1065.7L657.049 1065.7L657.048 1065.7C647.652 1061.48 638.284 1057.27 628.841 1053.25C584.268 1034.26 513.281 979.784 495.122 965.751C477.875 952.424 454.672 930.163 417.735 894.725C415.78 892.849 413.787 890.937 411.754 888.986C371.308 850.191 331.687 795.713 296.194 740.409C269.486 698.795 252.369 651.485 246.079 629.525ZM138.827 801.598C145.522 786.093 152.015 772.269 157.523 762.696L179.309 729.214C194.857 767.385 215.599 812.053 260.7 871.652C289.315 907.146 355.625 981.434 356.45 981.434C356.579 981.434 358.922 983.588 362.986 987.324C384.946 1007.51 457.148 1073.88 501.725 1096.17C519.495 1106.87 555.891 1127.01 586.1 1138.84C553.775 1144.56 513.345 1151.51 473.889 1157.85C447.139 1145.24 388.717 1113.67 351.497 1079.66C315.729 1047.19 238.744 973.51 216.953 938.512C193.402 907.653 145.404 837.805 138.827 801.598ZM87.6318 960.693C89.2051 944.688 91.4469 930.43 93.4975 920.163C98.9903 940.858 110.539 969.791 131.108 991.34C148.167 1013.35 184.266 1059.02 192.19 1065.63C215.574 1093.14 275.541 1153.93 328.363 1177.05C286.649 1180.26 267.616 1178.63 244.702 1176.67C236.172 1175.95 227.104 1175.17 216.128 1174.58C214.409 1174.49 212.675 1174.33 210.928 1174.09C196.734 1167.33 162.641 1144.06 131.108 1100.3C121.203 1089.29 99.5769 1056.71 92.3131 1014.45C89.3109 996.984 87.9914 978.163 87.6318 960.693ZM1064.74 702.44C1091.13 719.931 1113.78 743.932 1127.25 769.555C1119.34 774.022 1102.23 780.677 1077.87 784.157C1058.61 786.908 1023.4 788.284 982.125 784.157C980.961 783.991 979.454 783.791 977.63 783.549C961.349 781.391 919.85 775.891 872.343 761.045C821.706 745.221 761.211 708.163 754.826 697.12C755.85 696.699 756.782 696.271 757.609 695.836C770.1 689.262 843.621 678.87 879.297 674.434C889.691 681.932 920.456 696.731 970.569 702.439C1007.62 706.661 1029.1 704.885 1045.83 703.502L1045.83 703.502C1052.66 702.938 1058.69 702.439 1064.67 702.439C1064.69 702.439 1064.71 702.44 1064.74 702.44ZM716.534 668.254C692.207 654.902 633.907 611.014 590.047 539.005C534.743 448.207 517.409 376.395 510.806 323.568C510.055 317.563 509.177 311.303 508.259 304.762C501.1 253.749 491.54 185.625 521.536 88.3207C536.08 41.1441 549.845 16.6256 560.836 5.01642C596.11 1.90077 625.745 0.387078 647.115 0.0121155C623.574 25.7281 579.844 100.167 576.015 213.786C572.053 331.327 611.783 428.397 632.144 462.24C653.321 499.369 708.699 580.375 760.848 607.482C744.501 632.562 728.656 654.905 716.534 668.254ZM850.201 447.128C849.865 447.942 849.538 448.735 849.22 449.505C845.551 458.392 843.097 464.334 842.628 466.367C841.806 469.93 831.153 490.15 815.9 516.871C792.755 503.888 746.819 465.609 717.163 397.031C677.543 305.408 675.066 263.311 680.844 198.103C689.223 103.549 741.926 34.6679 741.926 34.6679L760.509 18.5093C784.858 26.4802 808.684 37.5533 828.088 52.6915L827.771 52.8273C810.987 66.3093 774.118 109.287 760.911 173.34C747.704 237.393 758.71 292.477 765.864 312.012C771.367 335.949 789.966 391.088 820.342 420.143C832.599 431.867 842.491 440.67 850.201 447.128ZM891.505 144.917C902.401 180.197 902.884 216.129 902.884 249.279C902.884 277.426 896.79 309.055 888.476 339.303C881.895 327.523 873.976 312.913 870.693 305.408C864.915 292.202 854.185 245.977 863.264 198.103C868.681 169.544 881.471 152.979 891.505 144.917Z" fill="black"/>
<path d="M210.658 1186.97C215.941 1183.66 217.262 1178.44 217.262 1176.24C220.86 1167.98 237.897 1166.33 242.024 1166.33C246.152 1166.33 258.533 1170.46 260.184 1180.36C261.504 1188.29 268.988 1195.22 272.565 1197.7C276.692 1201.82 289.899 1211.56 309.71 1217.51C329.52 1223.45 321.266 1224.39 314.662 1224.11C303.106 1223.28 264.641 1219.82 203.229 1212.55C141.817 1205.29 142.423 1201.27 150.402 1200.17C155.63 1199.9 168.726 1199.02 179.292 1197.7C192.499 1196.05 204.055 1191.09 210.658 1186.97Z" fill="black"/>
</svg>
