<svg width="42" height="30" viewBox="0 0 42 30" fill="none" xmlns="http://www.w3.org/2000/svg">
<path d="M7.48511 14.5381L1.0784 21.0207C0.640533 21.4854 0.640533 22.2056 1.0784 22.6703L7.48511 29.1529C8.19952 29.8964 9.44399 29.362 9.44399 28.3397L9.44399 24.1574L23.2945 24.1574C24.562 24.1574 25.599 23.1118 25.599 21.8339C25.599 20.556 24.562 19.5104 23.2945 19.5104L9.44399 19.5104L9.44399 15.3513C9.44399 14.3057 8.19952 13.7946 7.48511 14.5381ZM40.9244 7.07967L34.5177 0.597118C33.8033 -0.146401 32.5588 0.388003 32.5588 1.41034V5.5694L18.6853 5.5694C17.4178 5.5694 16.3807 6.61497 16.3807 7.8929C16.3807 9.17082 17.4178 10.2164 18.6853 10.2164L32.5358 10.2164V14.3755C32.5358 15.421 33.7803 15.9322 34.4947 15.1887L40.9014 8.70612C41.3623 8.26466 41.3623 7.52114 40.9244 7.07967Z" fill="#DEFFFF" fill-opacity="0.5"/>
</svg>
