<?xml version="1.0" encoding="UTF-8"?>
<svg width="40px" height="40px" viewBox="0 0 40 40" version="1.1" xmlns="http://www.w3.org/2000/svg" xmlns:xlink="http://www.w3.org/1999/xlink">
  <circle fill="#149BA3" cx="20" cy="20" r="20"></circle>
  <path d="M29.8097971,17.0855389 C30.0668863,17.380615 30.0600822,17.8155216 29.809217,18.1019832 L29.734763,18.1762121 L19.710378,27.1150559 L26.5671052,27.1146028 C26.9612047,27.1146028 27.2864254,27.4095081 27.3341274,27.7906789 L27.3401505,27.8876481 C27.3401505,28.2817476 27.0452452,28.6069682 26.6640744,28.6546702 L26.5671052,28.6606933 L17.6461098,28.6606933 C16.9625684,28.6606933 16.6290873,27.8496364 17.0729107,27.3682828 L17.1382902,27.3047944 L28.7191239,17.0105048 C29.0410251,16.7300439 29.5293361,16.7636378 29.8097971,17.0855389 Z" fill="#F7FAFA"></path>
  <path d="M22.3538902,11.6666667 C23.0374316,11.6666667 23.3709127,12.4777236 22.9270893,12.9590772 L22.8617098,13.0225656 L11.2808761,23.3168552 C10.9589749,23.5973161 10.4706639,23.5637222 10.1902029,23.2418211 C9.9331137,22.946745 9.93991781,22.5118384 10.190783,22.2253768 L10.265237,22.1511479 L20.289622,13.2123041 L13.4328948,13.2127572 C13.0387953,13.2127572 12.7135746,12.9178519 12.6658726,12.5366811 L12.6598495,12.439712 C12.6598495,12.0456125 12.9547548,11.7203918 13.3359256,11.6726898 L13.4328948,11.6666667 L22.3538902,11.6666667 Z" fill="#CCE7E9"></path>
</svg>