<?xml version="1.0" encoding="UTF-8"?>
<svg viewBox="0 0 16 16" version="1.1" xmlns="http://www.w3.org/2000/svg" xmlns:xlink="http://www.w3.org/1999/xlink">
    <g stroke="none" stroke-width="1" fill="none" fill-rule="evenodd">
        <path d="M12.2778246,9.62837579 C12.2746312,9.80767772 12.1334331,9.953684 11.9531072,9.97431297 L11.9030317,9.97676134 L5.06989778,9.9470844 L7.5001805,12.0492132 C7.63985592,12.1700448 7.66100988,12.3701778 7.55627774,12.5145978 L7.52746781,12.549464 C7.4017035,12.683661 7.19340033,12.7039853 7.04308449,12.603361 L7.00679492,12.5756811 L3.84504581,9.84049011 C3.60278741,9.63091528 3.74341913,9.252492 4.05432622,9.22466057 L4.0977581,9.22308725 L11.9150707,9.26842345 C12.118658,9.27161753 12.2810031,9.43277368 12.2778246,9.62837579 Z M12.1549535,6.15950923 C12.3972119,6.36908405 12.2565802,6.74750734 11.9456731,6.77533876 L11.9022412,6.77691208 L4.08492867,6.73157588 C3.88134136,6.7283818 3.71899624,6.56722565 3.72217464,6.37162354 C3.72536816,6.19232161 3.86656623,6.04631533 4.04689215,6.02568636 L4.09696766,6.02323799 L10.9301015,6.05291493 L8.49981883,3.95078609 C8.36014342,3.82995458 8.33898945,3.62982159 8.4437216,3.48540151 L8.47253152,3.45053531 C8.59829583,3.31633832 8.806599,3.29601406 8.95691485,3.39663835 L8.99320442,3.42431828 L12.1549535,6.15950923 Z" fill="#149BA3"></path>
    </g>
</svg>