<?xml version="1.0" encoding="utf-8"?>
<svg version="1.1" xmlns="http://www.w3.org/2000/svg" xmlns:xlink="http://www.w3.org/1999/xlink" x="0px" y="0px" viewBox="0 0 195.9 195.9" xml:space="preserve">
	<polygon fill="#29CCC4" points="90.6,115.4 75.5,106.7 60.4,98 45.3,89.2 30.2,80.5 15.1,71.8 0,80.5 15.1,89.2 30.2,98 45.3,106.7 
		60.4,115.4 75.5,124.1 90.6,132.8 75.5,141.6 60.4,132.8 45.3,124.1 30.2,115.4 30.2,132.8 45.3,141.6 60.4,150.3 75.5,159 
		90.6,150.3 105.7,141.6 120.8,132.8 105.7,124.1 		"/>
	<polygon fill="#29CCC4" points="45.3,54.4 30.2,63.1 45.3,71.8 60.4,80.5 75.5,89.2 90.6,98 105.7,106.7 120.8,115.4 135.9,124.1 
		151,115.4 135.9,106.7 120.8,98 105.7,89.2 90.6,80.5 75.5,71.8 60.4,63.1 75.5,54.4 90.6,63.1 105.7,71.8 120.8,80.5 120.8,63.1 
		105.7,54.4 90.6,45.7 75.5,36.9 60.4,45.7 		"/>
</svg>
