<?xml version="1.0" encoding="utf-8"?>
<svg width="119" height="33" viewBox="0 0 119 22" fill="none" xmlns="http://www.w3.org/2000/svg">
	<path d="M20.5366 5.25862L12.4943 0.608163C12.0633 0.358966 11.5355 0.358446 11.1041 0.606793L3.02216 5.25911C2.57957 5.51388 2.30591 5.99156 2.30591 6.50932V15.7666C2.30591 16.2827 2.57778 16.759 3.01806 17.0145L11.1 21.7031C11.5335 21.9546 12.0653 21.9541 12.4984 21.7017L20.5407 17.015C20.9796 16.7592 21.2505 16.2835 21.2505 15.7685V6.50745C21.2505 5.99069 20.9778 5.51377 20.5366 5.25862Z" fill="#00FFB0"/>
	<path d="M18.1643 11.5371L11.2587 7.65758C10.7165 7.35296 10.7317 6.57998 11.2858 6.28339C11.5323 6.15147 11.8295 6.15365 12.0707 6.28915L16.5655 8.8143C17.1955 9.16826 17.9855 8.7014 17.9658 7.9867C17.9571 7.67189 17.7831 7.3857 17.5056 7.22979L12.1682 4.23125C11.8766 4.06743 11.5164 4.06836 11.2217 4.23369L7.67271 6.22481C7.03119 6.58473 7.02273 7.48652 7.65753 7.84314L19.1881 14.321C19.4333 14.4587 19.5841 14.7143 19.5844 14.9926C19.5848 15.2786 19.4263 15.544 19.1707 15.6852L12.1304 19.5751C11.8366 19.7374 11.4791 19.7372 11.1895 19.5745L4.28231 15.6941C3.99031 15.53 3.81097 15.2254 3.81124 14.8939L3.81416 11.3908C3.81476 10.6708 4.6126 10.2138 5.24688 10.5701L12.1044 14.4226C12.6584 14.7339 12.6274 15.5287 12.0502 15.8107C11.8086 15.9287 11.5243 15.9213 11.2924 15.7911L6.86607 13.3044C6.26489 12.9666 5.50752 13.3937 5.49733 14.0761C5.49254 14.3972 5.66444 14.694 5.9473 14.8529L11.196 17.8016C11.4893 17.9664 11.8519 17.9644 12.1474 17.7964L15.671 15.7925C16.3085 15.43 16.3139 14.5317 15.6807 14.1766L4.21544 7.7476C3.96842 7.60908 3.81642 7.35176 3.81608 7.0715C3.81573 6.78696 3.9717 6.52245 4.22433 6.37913L11.2181 2.4116C11.5134 2.24407 11.8755 2.24228 12.1686 2.40689L19.1094 6.3062C19.3998 6.46937 19.5789 6.7717 19.5804 7.10136L19.597 10.7115C19.6003 11.4336 18.8005 11.8945 18.1643 11.5371Z" fill="#003340"/>
	<g filter="url(#filter0_d)">
		<path d="M25.4602 16.9394L34.7876 5.49821H25.7193V2.64383H38.6505V5.09719L29.6293 16.5383H38.7212V19.3927H25.4602V16.9394Z" fill="#DEFFFF"/>
		<path d="M40.9577 5.81127V2.6738H44.114V5.81127H40.9577ZM40.9577 19.3927V7.53334H44.114V19.3927H40.9577Z" fill="#DEFFFF"/>
		<path d="M46.9377 2.6738H50.094V15.4296C50.094 16.0115 50.1882 16.3968 50.3766 16.5855C50.5651 16.7742 50.8242 16.8686 51.1539 16.8686C51.4052 16.8686 51.6642 16.8371 51.9312 16.7742C52.1981 16.7113 52.4337 16.6327 52.6378 16.5383V18.9445C52.6378 18.9445 52.1432 19.3062 51.5779 19.4163C51.0126 19.5264 50.5022 19.5814 50.0469 19.5814C49.0576 19.5814 48.2882 19.3219 47.7386 18.803C47.2047 18.2683 46.9377 17.5134 46.9377 16.5383V2.6738Z" fill="#DEFFFF"/>
		<path d="M64.7066 7.03156C64.5652 6.8743 64.2669 6.66985 63.8115 6.41822C63.3561 6.15087 62.8065 5.91497 62.1627 5.71052C61.5346 5.49035 60.8829 5.38026 60.2077 5.38026C58.4333 5.38026 57.5461 6.00933 57.5461 7.26746C57.5461 7.72354 57.6874 8.08525 57.9701 8.3526C58.2527 8.61995 58.6767 8.84799 59.242 9.03671C59.8073 9.22543 60.5139 9.42988 61.3619 9.65005C62.4611 9.93313 63.4111 10.2634 64.2119 10.6408C65.0285 11.0183 65.6487 11.5215 66.0727 12.1506C66.5124 12.7639 66.7322 13.5817 66.7322 14.6039C66.7322 15.7992 66.4417 16.7664 65.8607 17.5055C65.2954 18.2289 64.5417 18.7558 63.5995 19.086C62.6573 19.4163 61.6367 19.5814 60.5375 19.5814C59.2812 19.5814 58.0329 19.3927 56.7924 19.0153C55.5675 18.6221 54.4762 18.0874 53.5183 17.4111L54.9551 14.6039C55.0965 14.7455 55.3477 14.9342 55.7089 15.1701C56.07 15.3903 56.5097 15.6183 57.0279 15.8542C57.5461 16.0744 58.1114 16.2631 58.7238 16.4204C59.3362 16.5776 59.9565 16.6563 60.5846 16.6563C62.3747 16.6563 63.2698 16.0822 63.2698 14.9342C63.2698 14.4467 63.0892 14.0535 62.728 13.7547C62.3668 13.4559 61.8565 13.2043 61.197 12.9998C60.5532 12.7954 59.7994 12.5673 58.9358 12.3157C57.868 12.0169 56.9808 11.6867 56.2742 11.3249C55.5833 10.9475 55.0651 10.4836 54.7196 9.93313C54.3741 9.36697 54.2014 8.65141 54.2014 7.78644C54.2014 6.6384 54.4684 5.67907 55.0023 4.90847C55.5518 4.12213 56.2899 3.53238 57.2163 3.13922C58.1428 2.73033 59.1713 2.52588 60.3019 2.52588C61.4639 2.52588 62.5474 2.7146 63.5524 3.09204C64.5574 3.46948 65.421 3.90196 66.1434 4.38949L64.7066 7.03156Z" fill="#DEFFFF"/>
		<path d="M83.8244 7.03156H86.8158L81.6574 19.3927H79.0194L76.9466 14.085L74.921 19.3927H72.2593L67.1245 7.03156H70.0924L73.7668 16.3732L75.2036 12.3393L73.0602 7.05515H75.6747L76.9466 10.8295L78.2421 7.05515H80.8566L78.7132 12.3393L80.1735 16.3732L83.8244 7.03156Z" fill="#DEFFFF"/>
		<path d="M87.126 15.7363C87.126 14.9342 87.3459 14.2344 87.7856 13.6368C88.2409 13.0234 88.869 12.5516 89.6699 12.2214C90.4707 11.8911 91.3893 11.726 92.4257 11.726C92.9439 11.726 93.47 11.7731 94.0039 11.8675C94.5378 11.9461 95.001 12.0641 95.3936 12.2214V11.5608C95.3936 10.7745 95.158 10.169 94.6869 9.74441C94.2315 9.31979 93.5485 9.10748 92.6377 9.10748C91.9625 9.10748 91.3187 9.22543 90.7063 9.46133C90.0939 9.69723 89.4501 10.0432 88.7748 10.4993L87.762 8.42337C88.5786 7.88867 89.4108 7.48764 90.2587 7.22028C91.1224 6.95293 92.0253 6.81925 92.9675 6.81925C94.7262 6.81925 96.0923 7.2596 97.0659 8.14029C98.0552 9.02098 98.5498 10.2791 98.5498 11.9147V15.8542C98.5498 16.2002 98.6048 16.444 98.7147 16.5855C98.8246 16.7113 99.0209 16.7899 99.3035 16.8214V19.3927C99.0209 19.4556 98.7618 19.4949 98.5262 19.5107C98.3064 19.5421 98.118 19.5578 97.961 19.5578C97.3328 19.5578 96.8539 19.4163 96.5241 19.1332C96.1944 18.8501 95.9981 18.5042 95.9353 18.0953L95.8646 17.4583C95.315 18.166 94.6398 18.7086 93.839 19.086C93.0538 19.4477 92.2451 19.6286 91.4129 19.6286C90.5807 19.6286 89.8426 19.4635 89.1988 19.1332C88.555 18.7872 88.0447 18.3233 87.6678 17.7414C87.3066 17.1438 87.126 16.4754 87.126 15.7363ZM94.8047 16.3732C95.1973 15.9957 95.3936 15.634 95.3936 15.2881V14.0378C94.577 13.7075 93.7526 13.5424 92.9204 13.5424C92.0881 13.5424 91.4129 13.7233 90.8947 14.085C90.3765 14.4309 90.1174 14.8949 90.1174 15.4768C90.1174 15.9486 90.3059 16.3732 90.6827 16.7506C91.0596 17.1281 91.6013 17.3168 92.308 17.3168C92.779 17.3168 93.2344 17.2303 93.6741 17.0573C94.1295 16.8843 94.5063 16.6563 94.8047 16.3732Z" fill="#DEFFFF"/>
		<path d="M108.895 19.6286C107.922 19.6286 107.074 19.4084 106.351 18.9681C105.629 18.5277 105.064 17.9459 104.655 17.2224V24.4174H101.499V7.03156H104.255V9.15466C104.71 8.43123 105.299 7.86507 106.022 7.45618C106.76 7.03156 107.592 6.81925 108.518 6.81925C109.633 6.81925 110.623 7.1102 111.486 7.69208C112.35 8.25824 113.033 9.02885 113.535 10.0039C114.038 10.9632 114.289 12.0248 114.289 13.1885C114.289 14.3995 114.054 15.4925 113.582 16.4676C113.127 17.4269 112.491 18.1975 111.675 18.7794C110.874 19.3455 109.947 19.6286 108.895 19.6286ZM107.835 16.9394C108.479 16.9394 109.037 16.7664 109.508 16.4204C109.994 16.0587 110.371 15.5947 110.638 15.0286C110.921 14.4467 111.062 13.8333 111.062 13.1885C111.062 12.4966 110.913 11.8754 110.615 11.3249C110.316 10.7588 109.908 10.3184 109.39 10.0039C108.887 9.67364 108.306 9.50851 107.647 9.50851C107.05 9.50851 106.453 9.70509 105.857 10.0983C105.26 10.4914 104.86 10.9868 104.655 11.5844V14.486C104.938 15.178 105.37 15.7599 105.951 16.2317C106.532 16.7034 107.16 16.9394 107.835 16.9394Z" fill="#DEFFFF"/>
	</g>
	<defs>
		<filter id="filter0_d" x="21.4602" y="2.52588" width="96.8289" height="29.8915" filterUnits="userSpaceOnUse" color-interpolation-filters="sRGB">
			<feFlood flood-opacity="0" result="BackgroundImageFix"/>
			<feColorMatrix in="SourceAlpha" type="matrix" values="0 0 0 0 0 0 0 0 0 0 0 0 0 0 0 0 0 0 127 0"/>
			<feOffset dy="4"/>
			<feGaussianBlur stdDeviation="2"/>
			<feColorMatrix type="matrix" values="0 0 0 0 0 0 0 0 0 0 0 0 0 0 0 0 0 0 0.25 0"/>
			<feBlend mode="normal" in2="BackgroundImageFix" result="effect1_dropShadow"/>
			<feBlend mode="normal" in="SourceGraphic" in2="effect1_dropShadow" result="shape"/>
		</filter>
	</defs>
</svg>
