<?xml version="1.0" encoding="utf-8"?>
<!-- Generator: Adobe Illustrator 24.0.0, SVG Export Plug-In . SVG Version: 6.00 Build 0)  -->
<svg version="1.1" id="Layer_1" xmlns="http://www.w3.org/2000/svg" xmlns:xlink="http://www.w3.org/1999/xlink" x="0px" y="0px"
	 viewBox="0 0 536.3 195.9" style="enable-background:new 0 0 536.3 195.9;" xml:space="preserve">
<style type="text/css">
	.st0{fill:#29CCC4;}
</style>
<g id="Layer_2_1_">
	<g id="Layer_1-2">
		<rect x="180" class="st0" width="1.5" height="195.9"/>
		<polygon class="st0" points="90.6,115.4 75.5,106.7 60.4,98 45.3,89.2 30.2,80.5 15.1,71.8 0,80.5 15.1,89.2 30.2,98 45.3,106.7 
			60.4,115.4 75.5,124.1 90.6,132.8 75.5,141.6 60.4,132.8 45.3,124.1 30.2,115.4 30.2,132.8 45.3,141.6 60.4,150.3 75.5,159 
			90.6,150.3 105.7,141.6 120.8,132.8 105.7,124.1 		"/>
		<polygon class="st0" points="45.3,54.4 30.2,63.1 45.3,71.8 60.4,80.5 75.5,89.2 90.6,98 105.7,106.7 120.8,115.4 135.9,124.1 
			151,115.4 135.9,106.7 120.8,98 105.7,89.2 90.6,80.5 75.5,71.8 60.4,63.1 75.5,54.4 90.6,63.1 105.7,71.8 120.8,80.5 120.8,63.1 
			105.7,54.4 90.6,45.7 75.5,36.9 60.4,45.7 		"/>
		<path class="st0" d="M246.9,116.8c2.7,0,5.6-2,8.9-5.8c3-3.5,5.5-7.4,7.6-11.5h1.1v18.9h-42.6v-0.7l25.4-37.3l-4.6-0.2
			c-2.7,0-5.7,1.8-9,5.5c-3.1,3.3-5.8,7.1-7.8,11.2h-1.1V78.6h40.9v0.8l-25.3,37.3L246.9,116.8z"/>
		<path class="st0" d="M296.2,118.4h-27.3v-1.3h2c1.6-0.1,2.6-0.5,2.9-1.2s0.5-1.9,0.5-4V84.4c0-1-0.2-2-0.5-3
			c-0.2-0.7-1.2-1.1-3-1.3h-2.3v-1.5h22.1v33.2c-0.1,1.4,0.1,2.7,0.5,4c0.4,0.6,1.3,1.1,3,1.2h2L296.2,118.4z M274.2,64.6
			c0-2.1,0.8-4.2,2.4-5.6c1.6-1.5,3.6-2.3,5.8-2.3c2.1-0.1,4.2,0.7,5.8,2.2c1.6,1.5,2.5,3.5,2.4,5.7c0,2.1-0.8,4.2-2.4,5.7
			c-3.3,3-8.3,3-11.6,0C275,68.8,274.2,66.7,274.2,64.6z"/>
		<path class="st0" d="M325.6,118.4h-27.3v-1.3h2c1.6-0.1,2.6-0.5,2.9-1.2s0.6-1.9,0.6-4V63c-0.1-1-0.3-2-0.6-3
			c-0.2-0.7-1.2-1.1-3-1.3l-2.8-0.2v-1.3h22.7v54.6c-0.1,1.4,0.1,2.7,0.5,4c0.8,0.8,1.9,1.3,3,1.2h2V118.4z"/>
		<path class="st0" d="M330.5,101.1h1.1c1,3.5,2.4,6.9,4.3,10c1.3,1.9,2.9,3.5,4.8,4.7c1.9,1.1,4,1.7,6.2,1.6
			c1.3,0.1,2.6-0.3,3.7-1.1c1-0.7,1.5-1.9,1.5-3.1c0.1-1.4-0.3-2.8-1.2-3.9c-1.1-1.1-2.3-2-3.7-2.7l-5.8-3.3c-2-1-3.8-2.2-5.6-3.5
			c-1.4-1.1-2.6-2.4-3.4-4c-0.9-1.5-1.4-3.2-1.3-5c-0.2-3.8,1.6-7.4,4.7-9.6c3.4-2.4,7.5-3.5,11.6-3.4c2.1,0,4.1,0.4,6,1.2l5.6,2.7
			c0.9,0,1.7-0.6,2.1-1.4c0.5-1.1,0.8-2.2,0.8-3.4h1.2v16.9H362c-0.5-1.3-1-2.8-1.7-4.4c-0.7-1.8-1.7-3.4-2.9-4.9
			c-1.1-1.5-2.5-2.8-4-3.9c-1.6-0.9-3.5-1.4-5.4-1.3c-1.3,0-2.7,0.4-3.8,1.1c-0.9,0.6-1.5,1.7-1.5,2.8c0,1.1,0.4,2.2,1.1,3.1
			c0.9,0.9,2,1.7,3.1,2.3l5.5,3.1c2.1,1.1,4.2,2.4,6.2,3.7c1.8,1.2,3.4,2.8,4.6,4.6c1.3,1.8,2,4,1.9,6.3c0,4.3-1.6,7.5-4.9,9.7
			c-3.5,2.3-7.7,3.4-11.9,3.3c-2.4,0-4.9-0.5-7.1-1.5l-6.6-3.5c-0.7,0-1.4,0.6-1.9,1.8c-0.6,1.2-0.9,2.5-1.1,3.8h-1.1L330.5,101.1z"
			/>
		<path class="st0" d="M402.4,89.2l-1.8-4.9c-0.3-1-0.7-1.9-1.2-2.8c-0.4-0.7-1.1-1.2-1.9-1.4h-1.8v-1.5h25.7V80h-1.3
			c-0.6,0-1.2,0.1-1.8,0.2c-0.8,0.2-1.2,0.9-1.2,2c0,0.4,0,0.8,0.1,1.2c0.2,1.1,0.5,2.2,0.9,3.2c0.5,1.7,1.4,4.2,2.5,7.6l2.9,7.9
			l5.8-15.1c0.6-1.5,0.9-3.1,1.1-4.7c0-0.8-0.2-1.4-0.6-1.6c-0.5-0.3-1-0.4-1.6-0.5l-1.7-0.2h-1.4v-1.4h14.1V80l-3.1,0.3
			c-1.7,0.3-3.2,2.2-4.7,5.8L419,118.8h-6.1l-9.7-27.6l-10.9,27.6h-5.9l-2.7-7.4l-4.8-13.7c-2.3-6.5-3.9-10.8-4.6-12.8
			s-1.3-3.2-1.6-3.7c-0.4-0.5-1-0.8-1.6-0.9c-0.6-0.2-1.3-0.3-1.9-0.3h-1.8v-1.4h26.4V80h-0.6l-1.4,0.2c-0.8,0.2-1.2,0.9-1.2,2
			s0.1,0.8,0.1,1.2c0.2,0.9,0.5,1.8,0.8,2.7l2.2,6.7c1.1,3.2,2.2,6.3,3.4,9.5L402.4,89.2z"/>
		<path class="st0" d="M481,114.3c1.3,0,2.3-0.8,2.8-2.5c0.6-1.9,0.8-3.9,0.8-5.9h1.2c0,4.9-0.9,8.2-2.7,9.8c-1.4,1.3-3,2.3-4.7,3
			c-1.8,0.4-3.6,0.6-5.4,0.6c-2.3,0.1-4.5-0.6-6.4-1.9c-1.8-1-3.1-2.8-3.4-4.9c-0.9,2.2-2.5,4-4.5,5.1c-2.6,1.2-5.4,1.8-8.2,1.7
			c-3.2,0.1-6.3-0.9-8.8-3c-2.2-1.9-3.3-4.6-3.3-8.1c-0.1-2.4,0.6-4.9,2.1-6.8c1.1-1.5,2.6-2.6,4.3-3.2c2.2-0.5,4.4-0.8,6.7-1
			c3-0.3,5.2-0.6,6.7-0.9c1.1-0.3,2.1-0.7,3-1.2c0.7-0.5,1-1.4,0.9-2.2v-7.6c0.1-1.6-0.2-3.2-0.9-4.7c-0.5-1-1.7-1.5-3.5-1.5
			c-1,0-2,0.3-2.8,0.8c-0.7,0.4-1.1,1.1-1.1,1.9c0,0.6,0.6,1.4,1.8,2.3c1.2,1,1.9,2.6,1.8,4.2c0,1.8-0.9,3.5-2.3,4.7
			c-1.6,1.3-4.1,2-7.6,2c-1.8,0-3.6-0.5-5-1.6c-1.4-0.9-2.1-2.5-2.1-4.1c0-3.5,1.9-6.3,5.8-8.4c4.3-2.2,9.1-3.2,14-3.1
			c4.3-0.1,8.6,0.9,12.5,2.8c3.8,1.9,5.7,4.8,5.7,8.7v19.4c0,1.4,0.1,2.8,0.5,4.1C479.1,113.7,480,114.4,481,114.3z M462.1,111.8
			v-16h-0.2c-0.8,0.8-1.7,1.5-2.8,1.9c-1,0.4-2,1-2.8,1.7c-0.7,0.9-1.2,2-1.3,3.2c-0.3,1.6-0.4,3.3-0.4,4.9
			c-0.1,2.1,0.1,4.1,0.6,6.1c0.4,1.5,1.2,2.3,2.6,2.3c1.1,0,2.1-0.5,2.8-1.3C461.4,113.8,461.9,112.9,462.1,111.8z"/>
		<path class="st0" d="M484.7,137.9v-1.4l2.9-0.2c1.1,0.1,2.2-0.3,3.1-1c0.5-0.5,0.7-1.6,0.7-3.2V84.4c0.1-1.1-0.2-2.2-0.7-3.2
			c-0.9-0.7-2-1.1-3.2-1.1h-2.7v-1.5h22.7v5c0.7-1.5,1.8-2.8,3-3.9c1.4-1.3,3.9-1.9,7.7-1.9c5-0.2,9.8,1.9,13.1,5.6
			c3.4,3.8,5,8.9,5,15.3s-1.6,11.2-5,15c-3.3,3.7-8.1,5.8-13.1,5.6c-3.9,0-6.5-0.5-7.8-1.6c-1.1-1-2.1-2.1-2.8-3.4v13l0.2,3.8
			c0,1.4,0.4,2.8,1.2,3.9c1,0.7,2.2,1.2,3.4,1.3l4,0.2v1.4H484.7z M507.9,112.7c0.2,1.2,0.9,2.4,1.9,3.1c1,0.8,2.2,1.2,3.5,1.1
			c1.7,0,3.2-1,3.9-2.5c0.8-1.7,1.4-3.6,1.6-5.5c0.2-2,0.4-3.8,0.4-5.4s0.2-3.3,0.2-5.1v-5.5l-0.6-5.1c-0.2-1.8-0.7-3.5-1.6-5.1
			c-0.8-1.6-2.4-2.6-4.1-2.5c-1.2,0-2.4,0.6-3.2,1.5c-1,1-1.7,2.2-1.9,3.6c-0.1,1.3-0.2,3.1-0.2,5.2s-0.1,4.3-0.1,6.4v9.3
			C507.7,108.8,507.8,110.9,507.9,112.7L507.9,112.7z"/>
	</g>
</g>
</svg>
