<?xml version="1.0" encoding="UTF-8"?>
<svg width="119px" height="26px" viewBox="0 0 119 26" version="1.1" xmlns="http://www.w3.org/2000/svg" xmlns:xlink="http://www.w3.org/1999/xlink">
  <polygon fill="#49C1BF" fill-rule="nonzero" points="20.0897281 9.50258176 16.7761884 10.9791205 7.98581068 15.4509237 16.7761884 19.6748793 16.7761884 12.6929602 20.0897281 11.2006014 20.0897281 21.5152795 16.7761884 22.9918182 3.83333333 16.800902 3.83333333 13.5103299 12.7925538 9.117627 3.83333333 4.81457111 3.83333333 1.47653879 7.19963644 -4.4408921e-16 20.0897281 6.2014629"></polygon>
  <polygon fill="#077A8F" fill-rule="nonzero" points="3.83333333 1.47653879 16.7761884 7.67800169 20.0897281 6.2014629 7.19963644 -8.8817842e-16"></polygon>
  <polygon fill="#298E97" fill-rule="nonzero" points="16.7762939 7.6640273 20.0898337 6.18748852 20.0898337 9.48860737 16.7762939 10.9651462 16.7762939 7.6640273"></polygon>
  <polygon fill="#49C1BF" fill-rule="nonzero" points="3.83333333 1.47949186 3.83333333 4.81752419 12.7925538 9.12058008 3.83333333 13.513283 3.83333333 16.8038551 16.7761884 22.9947713 16.7761884 19.6831058 7.98581068 15.4538768 16.7761884 10.9820736 16.7761884 7.68095477"></polygon>
  <polygon fill="#298E97" fill-rule="nonzero" points="16.7762939 22.9701448 20.0898337 21.493606 20.0898337 11.1789279 16.7762939 12.6712867"></polygon>
  <path id="brand-text" fill="#FFFFFF" d="M41.7013714,19.7349398 L41.7013714,17.1767068 L34.6705187,17.1767068 L41.3911867,9.97188755 L41.3911867,7.20481928 L31.3101847,7.20481928 L31.3101847,9.71084337 L37.6948193,9.71084337 L31,16.9678715 L31,19.7349398 L41.7013714,19.7349398 Z M45.9954339,4.82931727 C46.5641058,4.82931727 47.0423072,4.65093708 47.430038,4.29417671 C47.8177688,3.93741633 48.0116343,3.4892905 48.0116343,2.9497992 C48.0116343,2.4103079 47.8177688,1.96218206 47.430038,1.60542169 C47.0423072,1.24866131 46.5641058,1.07028112 45.9954339,1.07028112 C45.426762,1.07028112 44.9571768,1.25736278 44.5866784,1.6315261 C44.2161801,2.00568942 44.0309309,2.44511379 44.0309309,2.9497992 C44.0309309,3.45448461 44.2161801,3.89390897 44.5866784,4.26807229 C44.9571768,4.64223561 45.426762,4.82931727 45.9954339,4.82931727 Z M47.572206,19.7349398 L47.572206,7.20481928 L44.4703592,7.20481928 L44.4703592,19.7349398 L47.572206,19.7349398 Z M54.4769895,19.7349398 L54.4769895,0 L51.3751427,0 L51.3751427,19.7349398 L54.4769895,19.7349398 Z M61.84705,20.1004016 C62.5191168,20.1004016 63.169643,20.0264391 63.7986286,19.8785141 C64.4276142,19.730589 64.9790536,19.4912985 65.4529469,19.1606426 C65.9268401,18.8299866 66.3059547,18.3992637 66.5902907,17.8684739 C66.8746267,17.3376841 67.0167946,16.6894244 67.0167946,15.9236948 C67.0167946,15.3145917 66.8961673,14.7968541 66.6549125,14.3704819 C66.4136578,13.9441098 66.099165,13.5873494 65.7114341,13.3002008 C65.3237033,13.0130522 64.8928912,12.7824632 64.418998,12.6084337 C63.9451047,12.4344043 63.4755196,12.2951807 63.0102425,12.1907631 C62.1313859,11.9819277 61.4636273,11.7774431 61.0069665,11.5773092 C60.5503057,11.3771754 60.3219753,11.0334672 60.3219753,10.5461847 C60.3219753,10.0589023 60.5287651,9.71084337 60.9423447,9.50200803 C61.3559243,9.29317269 61.812585,9.18875502 62.312327,9.18875502 C62.8809989,9.18875502 63.4065896,9.32362784 63.8890991,9.59337349 C64.3716086,9.86311914 64.7507232,10.1807229 65.0264429,10.5461847 L65.0264429,10.5461847 L67.0426434,8.74497992 C66.5429014,8.10107095 65.8665265,7.62248996 65.0135186,7.30923695 C64.1605107,6.99598394 63.2859623,6.83935743 62.3898732,6.83935743 C61.7695038,6.83935743 61.1663669,6.91767068 60.5804626,7.07429719 C59.9945582,7.23092369 59.4689675,7.47021419 59.0036904,7.79216867 C58.5384134,8.11412316 58.1636069,8.52744311 57.879271,9.03212851 C57.594935,9.53681392 57.452767,10.1372155 57.452767,10.8333333 C57.452767,11.4250335 57.5561619,11.9210174 57.7629517,12.3212851 C57.9697415,12.7215529 58.2454612,13.0565596 58.5901109,13.3263052 C58.9347605,13.5960509 59.3267995,13.8135877 59.7662278,13.9789157 C60.2056561,14.1442436 60.6580087,14.2791165 61.1232857,14.3835341 C62.0710723,14.6097724 62.7819121,14.8360107 63.2558054,15.062249 C63.7296987,15.2884873 63.9666453,15.6626506 63.9666453,16.184739 C63.9666453,16.4631861 63.9063316,16.6981258 63.7857042,16.8895582 C63.6650769,17.0809906 63.5056764,17.2332664 63.3075029,17.3463855 C63.1093293,17.4595047 62.8939233,17.5421687 62.6612848,17.5943775 C62.4286463,17.6465863 62.2003159,17.6726908 61.9762936,17.6726908 C61.3042268,17.6726908 60.6924737,17.5247657 60.1410343,17.2289157 C59.5895948,16.9330656 59.1415503,16.5589023 58.7969007,16.1064257 L58.7969007,16.1064257 L56.7548515,18.0381526 C57.3579884,18.6994645 58.1162176,19.2085007 59.0295392,19.565261 C59.9428607,19.9220214 60.882031,20.1004016 61.84705,20.1004016 Z M75.3949554,19.7349398 L78.1866175,10.9638554 L78.2383149,10.9638554 L81.0558257,19.7349398 L84.20937,19.7349398 L88.500258,7.20481928 L85.2691676,7.20481928 L82.6325979,16.184739 L82.5809004,16.184739 L79.8926332,7.20481928 L76.5839966,7.20481928 L73.9215781,16.184739 L73.8698807,16.184739 L71.2850084,7.20481928 L67.9246743,7.20481928 L72.2414111,19.7349398 L75.3949554,19.7349398 Z M94.2160003,20.0481928 C95.0948568,20.0481928 95.8789348,19.8698126 96.5682341,19.5130522 C97.2575333,19.1562918 97.7572753,18.6994645 98.06746,18.1425703 L98.06746,18.1425703 L98.1450062,18.1425703 L98.1450062,19.7349398 L101.040063,19.7349398 L101.040063,12.1124498 C101.040063,11.4859438 100.958209,10.8594378 100.7945,10.2329317 C100.630792,9.6064257 100.342148,9.04082999 99.9285681,8.53614458 C99.5149885,8.03145917 98.9506247,7.62248996 98.2354767,7.30923695 C97.5203287,6.99598394 96.6113153,6.83935743 95.5084364,6.83935743 C94.5606499,6.83935743 93.6257877,7.00468541 92.7038499,7.33534137 C91.7819121,7.66599732 90.9676774,8.16198126 90.2611456,8.82329317 L90.2611456,8.82329317 L91.8637664,10.7289157 C92.2601135,10.3286479 92.7598555,9.9892905 93.3629924,9.71084337 C93.9661293,9.43239625 94.5951149,9.29317269 95.2499492,9.29317269 C96.0254109,9.29317269 96.6931696,9.48025435 97.2532252,9.85441767 C97.8132809,10.228581 98.0933087,10.8072289 98.0933087,11.5903614 L98.0933087,11.5903614 L98.0933087,11.9036145 C97.1282897,11.9036145 96.1417301,11.9514726 95.1336299,12.0471888 C94.1255297,12.142905 93.2079,12.3386881 92.3807409,12.6345382 C91.5535818,12.9303882 90.8772068,13.3567604 90.3516161,13.9136546 C89.8260254,14.4705489 89.5632301,15.2188755 89.5632301,16.1586345 C89.5632301,16.8895582 89.7140143,17.503012 90.0155827,17.998996 C90.3171512,18.4949799 90.6962658,18.8952477 91.1529266,19.1997992 C91.6095873,19.5043507 92.1093293,19.7218876 92.6521525,19.8524096 C93.1949757,19.9829317 93.7162583,20.0481928 94.2160003,20.0481928 Z M94.8363696,17.6726908 C94.5778824,17.6726908 94.3193951,17.6465863 94.0609079,17.5943775 C93.8024207,17.5421687 93.5697822,17.4551539 93.3629924,17.3333333 C93.1562026,17.2115127 92.9881859,17.0505355 92.8589423,16.8504016 C92.7296987,16.6502677 92.6650769,16.4022758 92.6650769,16.1064257 C92.6650769,15.6365462 92.8201692,15.2667336 93.1303539,14.996988 C93.4405386,14.7272423 93.8282694,14.518407 94.2935464,14.3704819 C94.7588234,14.2225569 95.2671817,14.1268407 95.8186211,14.0833333 C96.3700605,14.039826 96.8956512,14.0180723 97.3953932,14.0180723 L97.3953932,14.0180723 L98.0933087,14.0180723 L98.0933087,14.4618474 C98.0933087,15.4538153 97.817589,16.2369478 97.2661496,16.811245 C96.7147102,17.3855422 95.9047835,17.6726908 94.8363696,17.6726908 Z M107.738057,26 L107.738057,18.064257 L107.789754,18.064257 C108.186101,18.6907631 108.750465,19.186747 109.482846,19.5522088 C110.215226,19.9176707 111.020845,20.1004016 111.899701,20.1004016 C112.847488,20.1004016 113.696188,19.9220214 114.445801,19.565261 C115.195414,19.2085007 115.833015,18.7299197 116.358606,18.1295181 C116.884197,17.5291165 117.28916,16.8242972 117.573496,16.0150602 C117.857832,15.2058233 118,14.3400268 118,13.4176707 C118,12.4953146 117.853524,11.6338688 117.560572,10.8333333 C117.26762,10.0327979 116.85404,9.33668005 116.319833,8.74497992 C115.785626,8.15327979 115.148024,7.687751 114.407027,7.34839357 C113.666031,7.00903614 112.856104,6.83935743 111.977247,6.83935743 C111.408576,6.83935743 110.895909,6.90461847 110.439248,7.03514056 C109.982588,7.16566265 109.573316,7.33099063 109.211434,7.5311245 C108.849552,7.73125837 108.543675,7.95749665 108.293804,8.20983936 C108.043933,8.46218206 107.841452,8.71017403 107.686359,8.95381526 L107.686359,8.95381526 L107.608813,8.95381526 L107.608813,7.20481928 L104.63621,7.20481928 L104.63621,26 L107.738057,26 Z M111.279332,17.4899598 C110.71066,17.4899598 110.202302,17.37249 109.754257,17.1375502 C109.306213,16.9026104 108.92279,16.5937082 108.603989,16.2108434 C108.285188,15.8279786 108.043933,15.3972557 107.880225,14.9186747 C107.716516,14.4400937 107.634662,13.957162 107.634662,13.4698795 C107.634662,12.9825971 107.716516,12.4953146 107.880225,12.0080321 C108.043933,11.5207497 108.285188,11.085676 108.603989,10.7028112 C108.92279,10.3199465 109.306213,10.0066934 109.754257,9.76305221 C110.202302,9.51941098 110.71066,9.39759036 111.279332,9.39759036 C111.882469,9.39759036 112.40806,9.51506024 112.856104,9.75 C113.304149,9.98493976 113.674647,10.293842 113.967599,10.6767068 C114.260551,11.0595716 114.480266,11.4902945 114.626742,11.9688755 C114.773218,12.4474565 114.846456,12.9303882 114.846456,13.4176707 C114.846456,13.9049531 114.773218,14.3922356 114.626742,14.8795181 C114.480266,15.3668005 114.260551,15.8018742 113.967599,16.184739 C113.674647,16.5676037 113.304149,16.8808568 112.856104,17.124498 C112.40806,17.3681392 111.882469,17.4899598 111.279332,17.4899598 Z"></path>
</svg>