<?xml version="1.0" encoding="utf-8"?>
<svg xmlns="http://www.w3.org/2000/svg" viewBox="0 0 937.38 200.88"><defs><style>.cls-1{fill:#00ffb0;}.cls-2{fill:#003340;}.cls-3{fill:#deffff;}</style></defs><g id="Layer_2" data-name="Layer 2"><g id="Layer_2-2" data-name="Layer 2"><path class="cls-1" d="M73.1,1.79,6.68,40.14A13.35,13.35,0,0,0,0,51.7v76.7A13.38,13.38,0,0,0,6.68,140L73.1,178.31a13.32,13.32,0,0,0,13.35,0L152.87,140a13.35,13.35,0,0,0,6.68-11.57V51.7a13.33,13.33,0,0,0-6.68-11.56L86.45,1.79A13.32,13.32,0,0,0,73.1,1.79Z"/><path class="cls-2" d="M83.21,53a6.87,6.87,0,0,0-6.87,11.89l54.2,31.29a6.87,6.87,0,0,0,10.3-5.94V58.57a6.85,6.85,0,0,0-3.43-5.94L83.21,21.34a6.86,6.86,0,0,0-6.87,0L22.14,52.63a6.87,6.87,0,0,0,0,11.89s76.66,44.59,92.8,54c3.09,1.79,3.2,4.27,0,6.13L83.15,143a6.12,6.12,0,0,1-6.78,0l-34-19.65v0l-7.55-4.36A6.87,6.87,0,0,1,41.65,107L63,119.34v.1l13.3,7.69a6.87,6.87,0,0,0,6.87-11.9L29,83.94a6.87,6.87,0,0,0-10.3,6v31.64a6.86,6.86,0,0,0,3.43,5.94l54.2,31.3a6.91,6.91,0,0,0,6.87,0l54.2-31.3a6.84,6.84,0,0,0,3.43-5.94,6.64,6.64,0,0,0-3.43-6c-2.3-1.34-76.66-44.59-92.8-53.94-3.09-1.79-3.2-4.28,0-6.14L76.4,37.16a6.1,6.1,0,0,1,6.78,0L113.4,54.62v0l11.46,6.61A6.87,6.87,0,0,1,118,73.15L96.61,60.81v-.1Z"/><path class="cls-3" d="M193.58,138.4l79-95.58H195.75V19H304v20.5l-76.47,95.58h77.06V158.9h-111Z"/><path class="cls-3" d="M323.26,45.18V19h26.41V45.18Zm0,113.72V55.63h26.41V158.9Z"/><path class="cls-3" d="M373.32,19h26.41V125.79q0,5.71,2.76,8.87c1.84,2.1,4.46,3.15,7.88,3.15a19.91,19.91,0,0,0,5.22-.78c1.91-.53,7.26-1.19,9-2v20.11a51.07,51.07,0,0,1-12.42,3.94,67.71,67.71,0,0,1-12.81,1.38q-12.4,0-19.21-6.6t-6.8-18.83Zm74.16,156.76v-2.87h-1.23"/><path class="cls-3" d="M524.92,55.63a33.33,33.33,0,0,0-5-3.74A61.69,61.69,0,0,0,511,47.25a76.39,76.39,0,0,0-11.33-3.84,49.53,49.53,0,0,0-12.42-1.58q-11.22,0-16.75,4.14T465,57.6a11.93,11.93,0,0,0,2.07,7.19,17.87,17.87,0,0,0,6,5,50.2,50.2,0,0,0,10,3.94q6,1.77,13.89,3.75,10.24,2.76,18.63,5.91a50.6,50.6,0,0,1,14.19,7.88,32.64,32.64,0,0,1,9,11.33q3.15,6.62,3.16,16.26,0,11.24-4.24,19.22A35.67,35.67,0,0,1,526.2,151a49.83,49.83,0,0,1-16.56,7.19A83.13,83.13,0,0,1,490,160.48a105.46,105.46,0,0,1-31.14-4.73,96.49,96.49,0,0,1-27.59-13.4l12-23.46a37.59,37.59,0,0,0,6.41,4.63,96,96,0,0,0,10.94,5.72,84.24,84.24,0,0,0,14,4.83,63.45,63.45,0,0,0,15.77,2q22.47,0,22.47-14.39a11.77,11.77,0,0,0-2.57-7.68,21.72,21.72,0,0,0-7.29-5.52,69.81,69.81,0,0,0-11.43-4.34q-6.71-2-15-4.33a127.22,127.22,0,0,1-17.44-6,45.85,45.85,0,0,1-12.32-7.68,28.83,28.83,0,0,1-7.39-10.25A35.49,35.49,0,0,1,437,61.94,43.42,43.42,0,0,1,441,43a38.22,38.22,0,0,1,10.94-13.8,49.54,49.54,0,0,1,16.26-8.38A67.32,67.32,0,0,1,488.06,18a77.19,77.19,0,0,1,27.2,4.63,101.2,101.2,0,0,1,21.68,10.94Z"/><path class="cls-3" d="M684.55,55.63h25L666.42,158.9H644.74L627,113.57,609.46,158.9H587.79l-43-103.27h24.83l30.75,78.44L613,100.56,594.88,55.83h21.29L627,87.56l11-31.73h21.29l-17.94,44.73,12.42,33.51Z"/><path class="cls-3" d="M747.42,160.87a39.24,39.24,0,0,1-14-2.46,33.55,33.55,0,0,1-11.23-6.9,31.91,31.91,0,0,1-7.39-10.35,31.19,31.19,0,0,1-2.66-13,28.61,28.61,0,0,1,3.25-13.5,31,31,0,0,1,9.06-10.55,45.17,45.17,0,0,1,13.9-6.8,60.67,60.67,0,0,1,17.74-2.46A76.41,76.41,0,0,1,769.6,96a55.43,55.43,0,0,1,11.72,3.35V93.47q0-10.25-5.81-15.77t-17.25-5.52a45.75,45.75,0,0,0-16.16,3,75.18,75.18,0,0,0-16.16,8.67l-8.08-16.75a76.26,76.26,0,0,1,43-13.2q22.26,0,34.58,10.93t12.32,31.64v32.12q0,4.14,1.48,5.91c1,1.19,2.59,1.84,4.83,2V158.9a58.86,58.86,0,0,1-11.63,1.38q-7.49,0-11.53-3.35a14.37,14.37,0,0,1-5-8.87l-.6-5.71a45.69,45.69,0,0,1-16.75,13.79A48,48,0,0,1,747.42,160.87Zm7.49-19.31a34.38,34.38,0,0,0,12.72-2.37,23.06,23.06,0,0,0,9.36-6.3c2.89-2.24,4.33-4.73,4.33-7.49V113.57a65.61,65.61,0,0,0-10.25-2.86,55.35,55.35,0,0,0-10.64-1.08q-10.24,0-16.75,4.63T737.18,126a14.07,14.07,0,0,0,5.12,11.13A18.59,18.59,0,0,0,754.91,141.56Z"/><path class="cls-3" d="M892.25,160.87q-12.22,0-21.29-5.42a38.55,38.55,0,0,1-14.19-14.68v60.11h-26.4V55.63h23V73.37a42.13,42.13,0,0,1,14.79-14.29,41.08,41.08,0,0,1,20.89-5.22,44.27,44.27,0,0,1,19.31,4.23,48,48,0,0,1,15.27,11.43,53.48,53.48,0,0,1,10.06,17,58.39,58.39,0,0,1,3.64,20.6A65.19,65.19,0,0,1,934,128.16a53.79,53.79,0,0,1-9.36,17.14,43.69,43.69,0,0,1-14.29,11.43A40,40,0,0,1,892.25,160.87Zm-8.87-22.47a23.72,23.72,0,0,0,10.94-2.56,26.23,26.23,0,0,0,8.57-6.9,32,32,0,0,0,5.52-10,36.11,36.11,0,0,0,2-11.82A33.24,33.24,0,0,0,908.21,95a30,30,0,0,0-6-9.76,28,28,0,0,0-9.06-6.5,27.14,27.14,0,0,0-11.34-2.37,24.87,24.87,0,0,0-7.68,1.28,27.08,27.08,0,0,0-7.29,3.65,32.16,32.16,0,0,0-6,5.52,23,23,0,0,0-4,6.9v24.24a35.13,35.13,0,0,0,10.84,14.68A24.77,24.77,0,0,0,883.38,138.4Z"/></g></g></svg>
