<?xml version="1.0" encoding="UTF-8"?>
<svg width="24px" height="24px" viewBox="0 0 24 24" version="1.1" xmlns="http://www.w3.org/2000/svg" xmlns:xlink="http://www.w3.org/1999/xlink">
  <polygon fill="#49C1BF" fill-rule="nonzero" points="20.2791948 9.54848795 16.9610077 11.0321598 8.1583013 15.5255659 16.9610077 19.7699271 16.9610077 12.7542789 20.2791948 11.2547105 20.2791948 21.619218 16.9610077 23.1028898 4 16.8820658 4 13.5755972 12.971786 9.16167351 4 4.83782991 4 1.48367182 7.37102443 -3.55271368e-15 20.2791948 6.23142166"></polygon>
  <polygon fill="#077A8F" fill-rule="nonzero" points="4 1.48367182 16.9610077 7.71509348 20.2791948 6.23142166 7.37102443 2.66453526e-15"></polygon>
  <polygon fill="#298E97" fill-rule="nonzero" points="16.9611134 7.70105159 20.2793005 6.21737977 20.2793005 9.53444606 16.9611134 11.0181179 16.9611134 7.70105159"></polygon>
  <polygon fill="#49C1BF" fill-rule="nonzero" points="4 1.48663917 4 4.84079725 12.971786 9.16464086 4 13.5785645 4 16.8850332 16.9610077 23.1058572 16.9610077 19.7781932 8.1583013 15.5285332 16.9610077 11.0351271 16.9610077 7.71806083"></polygon>
  <polygon fill="#298E97" fill-rule="nonzero" points="16.9611134 23.0811116 20.2793005 21.5974398 20.2793005 11.2329324 16.9611134 12.7325007"></polygon>
</svg>