<?xml version="1.0" encoding="UTF-8"?>
<svg viewBox="0 0 12 12" version="1.1" xmlns="http://www.w3.org/2000/svg" xmlns:xlink="http://www.w3.org/1999/xlink">
    <g stroke="none" stroke-width="1" fill="none" fill-rule="evenodd">
        <path d="M12,6 C12,6.30623922 11.7708407,6.55895541 11.4746478,6.59602275 L11.3992969,6.60070308 L6.6003292,6.6000636 L6.60070308,11.3992969 C6.60070308,11.7310561 6.33175915,12 6,12 C5.69376078,12 5.44104459,11.7708407 5.40397725,11.4746478 L5.39929692,11.3992969 L5.3996708,6.6000636 L0.600703083,6.60070308 C0.268943931,6.60070308 0,6.33175915 0,6 C0,5.69376078 0.229159326,5.44104459 0.525352165,5.40397725 L0.600703083,5.39929692 L5.39919885,5.39893325 L5.39929692,0.600703083 C5.39929692,0.268943931 5.66824085,0 6,0 C6.30623922,0 6.55895541,0.229159326 6.59602275,0.525352165 L6.60070308,0.600703083 L6.60080115,5.39893325 L11.3992969,5.39929692 C11.7310561,5.39929692 12,5.66824085 12,6 Z" fill="#149BA3"></path>
    </g>
</svg>