<?xml version="1.0" encoding="UTF-8"?>
<svg width="18px" height="18px" viewBox="0 0 18 18" version="1.1" xmlns="http://www.w3.org/2000/svg" xmlns:xlink="http://www.w3.org/1999/xlink">
    <g stroke="none" stroke-width="1" fill="none" fill-rule="evenodd">
        <g transform="translate(-951.000000, -531.000000)" fill="#149BA3">
            <path d="M953.149579,533.149579 C956.015685,530.283474 960.66256,530.283474 963.528666,533.149579 C966.188172,535.809085 966.379879,540.001886 964.103786,542.882443 L968.747108,547.485402 C969.084297,547.822591 969.084297,548.369282 968.747108,548.706471 C968.435857,549.017722 967.946095,549.041664 967.60738,548.778298 L967.526039,548.706471 L962.881589,544.104461 C960.001057,546.379841 955.808823,546.187909 953.149579,543.528666 C950.283474,540.66256 950.283474,536.015685 953.149579,533.149579 Z M954.370648,534.370648 C952.17892,536.562376 952.17892,540.115869 954.370648,542.307597 C956.562376,544.499324 960.115869,544.499324 962.307597,542.307597 C964.499324,540.115869 964.499324,536.562376 962.307597,534.370648 C960.115869,532.17892 956.562376,532.17892 954.370648,534.370648 Z" id="Shape"></path>
        </g>
    </g>
</svg>