<svg width="21" height="21" viewBox="0 0 21 21" fill="none" xmlns="http://www.w3.org/2000/svg">
<path d="M15.75 16.625H5.25C4.76875 16.625 4.375 16.2313 4.375 15.75V5.25C4.375 4.76875 4.76875 4.375 5.25 4.375H15.75C16.2313 4.375 16.625 4.76875 16.625 5.25V15.75C16.625 16.2313 16.2313 16.625 15.75 16.625ZM16.625 2.625H4.375C3.4125 2.625 2.625 3.4125 2.625 4.375V16.625C2.625 17.5875 3.4125 18.375 4.375 18.375H16.625C17.5875 18.375 18.375 17.5875 18.375 16.625V4.375C18.375 3.4125 17.5875 2.625 16.625 2.625Z" fill="#003340" fill-opacity="0.2"/>
<path d="M7 8C7 7.44772 7.44772 7 8 7H13C13.5523 7 14 7.44772 14 8V13C14 13.5523 13.5523 14 13 14H8C7.44772 14 7 13.5523 7 13V8Z" fill="#00D895"/>
</svg>
