<svg width="283" height="57" viewBox="0 0 283 57" fill="none" xmlns="http://www.w3.org/2000/svg">
    <rect x="46.5" y="18.5" width="208" height="20" rx="10" fill="#0D1B24" stroke="#29475A"/>
    <path d="M169.5 28.5C169.5 43.9724 157.18 56.5 142 56.5C126.82 56.5 114.5 43.9724 114.5 28.5C114.5 13.0276 126.82 0.5 142 0.5C157.18 0.5 169.5 13.0276 169.5 28.5Z" fill="#0D1B24" stroke="#29475A"/>
    <circle cx="254.5" cy="28.5" r="28" fill="#0D1B24" stroke="#29475A"/>
    <path d="M161 28.5C161 39.293 152.47 48 142 48C131.53 48 123 39.293 123 28.5C123 17.707 131.53 9 142 9C152.47 9 161 17.707 161 28.5Z" fill="#DEFFFF" fill-opacity="0.1" stroke="#00FFB0" stroke-width="2"/>
    <circle cx="254.5" cy="28.5" r="20.5" fill="#DEFFFF" fill-opacity="0.1"/>
    <circle cx="28.5" cy="28.5" r="28" fill="#0D1B24" stroke="#29475A"/>
    <circle cx="28.5" cy="28.5" r="20.5" fill="#00FFB0"/>
    <path d="M25.1308 33.7386L20.3471 29.0475C19.8094 28.5203 18.9409 28.5203 18.4032 29.0475C17.8656 29.5748 17.8656 30.4264 18.4032 30.9537L24.1658 36.6046C24.7034 37.1318 25.5719 37.1318 26.1096 36.6046L40.6951 22.3016C41.2328 21.7744 41.2328 20.9227 40.6951 20.3954C40.1575 19.8682 39.289 19.8682 38.7513 20.3954L25.1308 33.7386Z" fill="#29475A"/>
    <rect x="45" y="24" width="78" height="9" fill="#00FFB0"/>
</svg>
