<?xml version="1.0" encoding="UTF-8"?>
<svg width="5px" height="18px" viewBox="0 0 5 18" version="1.1" xmlns="http://www.w3.org/2000/svg" xmlns:xlink="http://www.w3.org/1999/xlink">
    <g stroke="none" stroke-width="1" fill="none" fill-rule="evenodd">
        <g transform="translate(-511.000000, -189.000000)" fill="#DCA00E">
            <path d="M515.25,205.125 C515.25,204.089466 514.410534,203.25 513.375,203.25 C512.339466,203.25 511.5,204.089466 511.5,205.125 C511.5,206.160534 512.339466,207 513.375,207 C514.410534,207 515.25,206.160534 515.25,205.125 Z" id="Path"></path>
            <path d="M512.015869,189 L514.734131,189 C515.010273,189 515.234131,189.223858 515.234131,189.5 C515.234131,189.505207 515.23405,189.510413 515.233887,189.515617 L514.890137,200.515617 C514.881702,200.785548 514.660443,201 514.390381,201 L512.359619,201 C512.089557,201 511.868298,200.785548 511.859863,200.515617 L511.516113,189.515617 C511.507488,189.23961 511.724244,189.008869 512.000252,189.000244 C512.005456,189.000081 512.010662,189 512.015869,189 Z" id="Rectangle"></path>
        </g>
    </g>
</svg>