<svg width="24" height="24" viewBox="0 0 24 24" fill="none" xmlns="http://www.w3.org/2000/svg">
<path d="M11.5 6H6.44444C6.06135 6 5.69395 6.15218 5.42307 6.42307C5.15218 6.69395 5 7.06135 5 7.44444V17.5556C5 17.9386 5.15218 18.306 5.42307 18.5769C5.69395 18.8478 6.06135 19 6.44444 19H16.5556C16.9386 19 17.306 18.8478 17.5769 18.5769C17.8478 18.306 18 17.9386 18 17.5556V12.5" stroke="#DEFFFF" stroke-opacity="0.5" stroke-width="2" stroke-linecap="round" stroke-linejoin="round"/>
<path d="M16.4356 5.43999C16.7173 5.15827 17.0994 5 17.4978 5C17.8962 5 18.2783 5.15827 18.56 5.43999C18.8417 5.72171 19 6.1038 19 6.50221C19 6.90062 18.8417 7.28272 18.56 7.56443L11.8326 14.2919L9 15L9.70815 12.1674L16.4356 5.43999Z" stroke="#DEFFFF" stroke-opacity="0.5" stroke-width="2" stroke-linecap="round" stroke-linejoin="round"/>
</svg>
