<?xml version="1.0" encoding="UTF-8"?>
<svg width="28px" height="28px" viewBox="0 0 28 28" version="1.1" xmlns="http://www.w3.org/2000/svg" xmlns:xlink="http://www.w3.org/1999/xlink">
    <g stroke="none" stroke-width="1" fill="none" fill-rule="evenodd">
        <g transform="translate(-512.000000, -358.000000)">
            <circle id="Oval" fill="#FF914D" cx="525.953771" cy="371.953754" r="13.861395"></circle>
            <ellipse id="Oval" fill="#FFFFFF" cx="525.95372" cy="371.953823" rx="13.0913773" ry="13.0912172"></ellipse>
            <ellipse id="Oval" fill="#FF914D" cx="525.953844" cy="371.953745" rx="12.3211327" ry="12.3213053"></ellipse>
            <path d="M523.732133,381.41036 C524.020912,381.290998 525.149075,380.42081 526.238735,379.485166 C527.77119,378.168333 528.676031,377.325098 530.131478,375.865801 C531.325098,374.67218 531.767893,374.160079 531.84105,373.894402 C532.099026,372.962608 529.276691,362.724426 528.702984,362.504954 C528.352598,362.37019 525.222233,364.973053 522.449953,367.699128 C520.825089,369.297039 520.374594,369.828392 520.339941,370.174927 C520.316838,370.444454 520.409248,371.118272 520.582515,371.915303 C521.271735,375.080322 522.526961,379.454363 523.162275,380.890557 C523.427952,381.498919 523.458755,381.525871 523.732133,381.41036 Z" id="Path" fill="#FFFFFF" fill-rule="nonzero"></path>
        </g>
    </g>
</svg>