<?xml version="1.0" encoding="UTF-8"?>
<svg width="28px" height="28px" viewBox="0 0 28 28" version="1.1" xmlns="http://www.w3.org/2000/svg" xmlns:xlink="http://www.w3.org/1999/xlink">
    <g stroke="none" stroke-width="1" fill="none" fill-rule="evenodd">
        <g transform="translate(-564.000000, -555.000000)" fill-rule="nonzero">
            <circle id="Oval" fill="#F5AC37" cx="578" cy="569" r="14"></circle>
            <path d="M571.3325,576.77 L571.3325,576.7175 C571.3325,576.035 571.3325,575.3525 571.3325,574.67875 C571.3325,574.45125 571.3325,574.215 571.3325,573.9875 L571.3325,571.93125 C571.3325,571.8175 571.3325,571.8 571.1925,571.8 L569.29375,571.8 C569.18875,571.8 569.145,571.8 569.145,571.66 C569.145,571.10875 569.145,570.54875 569.145,569.9975 L571.175,569.9975 C571.28875,569.9975 571.3325,569.9975 571.3325,569.84875 C571.3325,569.2975 571.3325,568.755 571.3325,568.20375 C571.3325,568.09875 571.3325,568.0725 571.1925,568.0725 L569.29375,568.0725 C569.18875,568.0725 569.145,568.0725 569.145,567.9325 C569.145,567.425 569.145,566.90875 569.145,566.3925 C569.145,566.29625 569.145,566.27 569.285,566.27 C569.90625,566.27 570.53625,566.27 571.16625,566.27 C571.2975,566.27 571.3325,566.27 571.3325,566.10375 L571.3325,561.3875 C571.3325,561.2475 571.3325,561.2125 571.5075,561.2125 L578.07,561.2125 C578.54571,561.230347 579.019475,561.282988 579.4875,561.37 C580.451837,561.548887 581.378244,561.89222 582.22625,562.385 C582.787325,562.715709 583.304697,563.115497 583.76625,563.575 C584.11179,563.934769 584.425076,564.324181 584.7025,564.73875 C584.978154,565.158768 585.207016,565.60769 585.385,566.0775 C585.40721,566.200432 585.524391,566.282459 585.6475,566.26125 C586.16375,566.26125 586.68875,566.26125 587.21375,566.26125 C587.415,566.26125 587.415,566.26125 587.42375,566.45375 L587.42375,567.88875 C587.42375,568.02875 587.37125,568.06375 587.23125,568.06375 L586.02375,568.06375 C585.90125,568.06375 585.86625,568.06375 585.875,568.22125 C585.923119,568.753915 585.923119,569.289835 585.875,569.8225 C585.875,569.97125 585.875,569.98875 586.04125,569.98875 L587.42375,569.98875 C587.485,570.0675 587.42375,570.14625 587.42375,570.225 C587.432699,570.326887 587.432699,570.429363 587.42375,570.53125 C587.42375,570.89 587.42375,571.24 587.42375,571.59 C587.42375,571.73875 587.38,571.7825 587.24875,571.7825 C586.6975,571.7825 586.14625,571.7825 585.595,571.7825 C585.479488,571.760741 585.367429,571.834158 585.34125,571.94875 C584.9471,572.972948 584.317664,573.890126 583.50375,574.62625 C583.206025,574.894443 582.893448,575.145673 582.5675,575.37875 C582.2175,575.58 581.87625,575.79 581.5175,575.95625 C580.856577,576.253378 580.163699,576.473573 579.4525,576.6125 C578.776896,576.73334 578.091249,576.789012 577.405,576.77875 L571.3325,576.77875 L571.3325,576.77 Z M583.41625,571.80875 C583.268012,571.79129 583.118238,571.79129 582.97,571.80875 L573.26625,571.80875 C573.135,571.80875 573.09125,571.80875 573.09125,571.98375 C573.09125,572.99875 573.09125,574.005 573.09125,575.02 C573.09125,575.16 573.09125,575.195 573.26625,575.195 L577.74625,575.195 C577.960164,575.210956 578.17526,575.196224 578.385,575.15125 C579.034951,575.104176 579.674581,574.962691 580.28375,574.73125 C580.506132,574.653823 580.720133,574.554151 580.9225,574.43375 C580.9225,574.43375 580.96625,574.43375 580.98375,574.43375 C582.033417,573.888016 582.886778,573.028538 583.425,571.975 C583.425,571.975 583.48625,571.84375 583.41625,571.80875 Z M583.41625,566.24375 C583.431842,566.204405 583.431842,566.160595 583.41625,566.12125 C583.32843,565.928202 583.222982,565.74367 583.10125,565.57 C582.917672,565.27458 582.700381,565.001498 582.45375,564.75625 C582.337479,564.607874 582.202145,564.475483 582.05125,564.3625 C581.293881,563.717605 580.394203,563.261768 579.42625,563.0325 C578.938103,562.923098 578.438984,562.87025 577.93875,562.875 C576.3725,562.875 574.80625,562.875 573.24,562.875 C573.10875,562.875 573.09125,562.9275 573.09125,563.04125 C573.09125,564.07375 573.09125,565.115 573.09125,566.1475 C573.09125,566.27875 573.09125,566.31375 573.2575,566.31375 L583.355,566.31375 C583.355,566.31375 583.4425,566.29625 583.46,566.24375 L583.41625,566.24375 Z M578.51625,569.98875 L583.83625,569.98875 C583.95,569.98875 584.0025,569.98875 584.01125,569.84 C584.055003,569.298382 584.055003,568.754118 584.01125,568.2125 C584.01125,568.1075 583.95875,568.06375 583.845,568.06375 L573.2575,568.06375 C573.12625,568.06375 573.09125,568.1075 573.09125,568.23 L573.09125,569.7875 C573.09125,569.98875 573.09125,569.98875 573.30125,569.98875 L578.51625,569.98875 Z" id="Shape" fill="#FEFEFD"></path>
        </g>
    </g>
</svg>