<svg width="24" viewBox="0 0 24 24" xmlns="http://www.w3.org/2000/svg"><g fill-rule="nonzero" fill="none"><circle fill="#EEF6F6" cx="12" cy="12" r="12"/><path d="M13.2 15.6V18h-2.4v-2.4h2.4zM11.953 6c1.972 0 3.512 1.11 3.944 2.937.426 1.8-.54 3.32-1.576 4.028-1.036.708-1.112 1.303-1.112 1.835h-2.391c.001-.284.002-1.072.212-1.658.166-.465.564-.95 1.166-1.425.863-.683 1.373-1.104 1.373-1.714 0-.902-.725-1.636-1.616-1.636-.89 0-1.615.734-1.615 1.636H8C8 7.793 9.771 6 11.953 6z" fill="#96D1D4"/></g></svg>
