<svg xmlns="http://www.w3.org/2000/svg" viewBox="0 0 399.92 380.24"><defs><style>.a{fill:#09254b;}.b{fill:#ff9200;}</style></defs><title>Logo</title><path class="a" d="M328,9.59v95.78c-8.76,3-17.52,5.14-25.56,8.85-37.8,17.46-59,56.28-53.83,97.84,4.89,39.62,35.58,72,75.95,80,2.11.42,3.74.55,3.73,3.5-.1,31.07-.06,62.14-.06,93.7-1.31.12-2.53.33-3.75.33-41.92,0-83.83.11-125.75-.06-29.11-.12-51.78-19.14-57.12-47.64a65.71,65.71,0,0,1-.89-12.07q-.06-130.52,0-261c0-29,17.86-51.95,45.1-58a56.4,56.4,0,0,1,12-1.35q63.53-.15,127-.07C325.74,9.42,326.6,9.51,328,9.59Z" transform="translate(-140.69 -9.41)"/><path class="b" d="M540.6,199.56q0,65.7,0,131.4c0,18.41-6.88,33.84-21.41,45.33-10,7.88-21.43,12.64-34.37,12.66-42.07.06-84.13-.06-126.2.06-4,0-4.79-1.47-4.77-5.08.12-28.33.17-56.67,0-85,0-4.25,1.37-5.67,5.32-6.48,23.95-4.91,43.63-17.12,57.6-37.08,21.65-31,24.21-64,8.11-98.3-7.59-16.21-19.59-28.62-34.35-38.13a82.87,82.87,0,0,0-29.95-12c-6.06-1.1-6.63-1.92-6.63-8q0-41.41,0-82.83c0-5.31.31-5.67,5.64-5.67,42.36,0,84.71-.13,127.06.11,25.72.14,50,22.21,53.14,47.75a123.92,123.92,0,0,1,.85,14.67Q540.66,136.25,540.6,199.56Z" transform="translate(-140.69 -9.41)"/></svg>