<?xml version="1.0" encoding="UTF-8"?>
<svg height="26px" width="26px" viewBox="0 0 26 26" version="1.1" xmlns="http://www.w3.org/2000/svg" xmlns:xlink="http://www.w3.org/1999/xlink">
  <g stroke="none" stroke-width="1" fill="none" fill-rule="evenodd">
    <polygon fill="#49C1BF" fill-rule="nonzero" points="22.3767941 10.7420489 18.6310535 12.4111797 8.69410483 17.4662616 18.6310535 22.2411679 18.6310535 14.3485637 22.3767941 12.6615494 22.3767941 24.3216203 18.6310535 25.9907511 4 18.9923241 4 15.2725468 14.1278145 10.3068827 4 5.44255865 4 1.6691308 7.80538612 3.55271368e-15 22.3767941 7.01034937"></polygon>
    <polygon fill="#077A8F" fill-rule="nonzero" points="4 1.6691308 18.6310535 8.67948017 22.3767941 7.01034937 7.80538612 -1.77635684e-15"></polygon>
    <polygon fill="#298E97" fill-rule="nonzero" points="22.3769134 6.99455224 22.3769134 10.7262518 18.6311728 12.3953826 18.6311728 8.66368304"></polygon>
    <polygon fill="#49C1BF" fill-rule="nonzero" points="4 1.67246906 4 5.44589691 14.1278145 10.310221 4 15.2758851 4 18.9956623 18.6310535 25.9940893 18.6310535 22.2504674 8.69410483 17.4695999 18.6310535 12.414518 18.6310535 8.68281843"></polygon>
    <polygon fill="#298E97" fill-rule="nonzero" points="18.6311728 25.9662506 22.3769134 24.2971198 22.3769134 12.6370489 18.6311728 14.3240633"></polygon>
  </g>
</svg>
