<?xml version="1.0" encoding="UTF-8"?>
<svg width="20px" height="20px" viewBox="0 0 20 20" version="1.1" xmlns="http://www.w3.org/2000/svg" xmlns:xlink="http://www.w3.org/1999/xlink">
  <path fill="#CCE7E9" d="M3,16 C3.55228475,16 4,16.4477153 4,17 L4,19 C4,19.5522847 3.55228475,20 3,20 C2.44771525,20 2,19.5522847 2,19 L2,17 C2,16.4477153 2.44771525,16 3,16 Z"></path>
  <path fill="#CCE7E9" d="M8,14 C8.55228475,14 9,14.4477153 9,15 L9,19 C9,19.5522847 8.55228475,20 8,20 C7.44771525,20 7,19.5522847 7,19 L7,15 C7,14.4477153 7.44771525,14 8,14 Z"></path>
  <path fill="#CCE7E9" d="M13,10 C13.5522847,10 14,10.4477153 14,11 L14,19 C14,19.5522847 13.5522847,20 13,20 C12.4477153,20 12,19.5522847 12,19 L12,11 C12,10.4477153 12.4477153,10 13,10 Z"></path>
  <path fill="#CCE7E9" d="M18,6 C18.5522847,6 19,6.44771525 19,7 L19,19 C19,19.5522847 18.5522847,20 18,20 C17.4477153,20 17,19.5522847 17,19 L17,7 C17,6.44771525 17.4477153,6 18,6 Z"></path>
</svg>