<svg width="20" height="20" viewBox="0 0 20 20" fill="none" xmlns="http://www.w3.org/2000/svg">
<path d="M15 15.8333H5C4.54167 15.8333 4.16667 15.4583 4.16667 15V5C4.16667 4.54167 4.54167 4.16667 5 4.16667H15C15.4583 4.16667 15.8333 4.54167 15.8333 5V15C15.8333 15.4583 15.4583 15.8333 15 15.8333ZM15.8333 2.5H4.16667C3.25 2.5 2.5 3.25 2.5 4.16667V15.8333C2.5 16.75 3.25 17.5 4.16667 17.5H15.8333C16.75 17.5 17.5 16.75 17.5 15.8333V4.16667C17.5 3.25 16.75 2.5 15.8333 2.5Z" fill="#DEFFFF" fill-opacity="0.5"/>
<path d="M6.66699 7.66699C6.66699 7.11471 7.11471 6.66699 7.66699 6.66699H12.3337C12.8859 6.66699 13.3337 7.11471 13.3337 7.66699V12.3337C13.3337 12.8859 12.8859 13.3337 12.3337 13.3337H7.66699C7.11471 13.3337 6.66699 12.8859 6.66699 12.3337V7.66699Z" fill="#00FFB0"/>
</svg>
