<svg width="124" height="61" viewBox="0 0 124 61" fill="none" xmlns="http://www.w3.org/2000/svg">
<path d="M39.5789 48.4C41.4427 48.4 42.8555 46.7183 42.5339 44.8825L37.3848 15.4825C37.1334 14.0471 35.8869 13 34.4298 13H26.4278C25.3852 13 24.4175 13.5412 23.8717 14.4295L5.80813 43.8295C4.58001 45.8284 6.01821 48.4 8.36422 48.4H14.1204C15.2176 48.4 16.2272 47.8011 16.7532 46.8383L17.9968 44.5617C18.5228 43.5989 19.5324 43 20.6296 43H27.7617C29.2488 43 30.5114 44.0894 30.7293 45.5604L30.7707 45.8396C30.9886 47.3106 32.2512 48.4 33.7383 48.4H39.5789ZM29.1219 31.7395C29.27 33.0236 28.2661 34.15 26.9735 34.15V34.15C25.3249 34.15 24.2826 32.3794 25.0825 30.938V30.938C26.1027 29.0996 28.8809 29.6508 29.1219 31.7395V31.7395Z" fill="white"/>
<path d="M74.1125 48.4C76.3189 48.4 77.7705 46.0984 76.8197 44.1073L73.4902 37.1346C72.6932 35.4655 73.6284 33.5096 75.156 32.4668C78.041 30.4975 79.7195 27.1751 79.7195 22.8C79.7195 16.55 74.8195 13 67.0695 13H55.0363C53.5806 13 52.335 14.0449 52.082 15.4784L46.8913 44.8784C46.5669 46.7155 47.9801 48.4 49.8456 48.4H54.8862C56.3492 48.4 57.5988 47.3448 57.8438 45.9025L59.4908 36.2079C59.5651 35.7702 59.9444 35.45 60.3883 35.45V35.45C60.768 35.45 61.1078 35.6856 61.2409 36.0411L65.14 46.4522C65.5788 47.6237 66.6985 48.4 67.9495 48.4H74.1125ZM63.3195 28.1V28.1C62.1197 28.1 61.2107 27.0166 61.4192 25.835L61.6959 24.2673C61.912 23.0427 62.976 22.15 64.2195 22.15V22.15C66.6695 22.15 68.2195 22.8 68.2195 24.85C68.2195 27.1 66.3695 28.1 63.3195 28.1Z" fill="white"/>
<path d="M111.733 48.4C114.064 48.4 115.504 45.8593 114.308 43.8596L107.231 32.0333C106.546 30.8879 106.7 29.4276 107.609 28.4501L117.286 18.0428C119.07 16.1238 117.709 13 115.089 13H109.287C108.393 13 107.545 13.3992 106.975 14.0887L96.7017 26.5173C96.6845 26.538 96.659 26.55 96.6322 26.55V26.55C96.5761 26.55 96.5336 26.4993 96.5434 26.4441L98.3006 16.5232C98.626 14.6857 97.2127 13 95.3466 13H90.2413C88.7857 13 87.5401 14.0449 87.287 15.4784L82.0964 44.8784C81.772 46.7155 83.1852 48.4 85.0507 48.4H90.2028C91.6607 48.4 92.9075 47.3519 93.1581 45.9157L95.3146 33.5572C95.3204 33.5241 95.3491 33.5 95.3827 33.5V33.5C95.4084 33.5 95.4321 33.5143 95.444 33.5372L102.334 46.7843C102.851 47.7771 103.877 48.4 104.996 48.4H111.733Z" fill="white"/>
<path d="M44.7134 42.835L39.8473 15.0512C39.3864 12.4197 37.1013 10.5 34.4298 10.5H26.4278C24.5165 10.5 22.7422 11.4923 21.7416 13.1208L3.67806 42.5208C1.4265 46.1854 4.06321 50.9 8.36422 50.9H14.1204C16.1318 50.9 17.9828 49.802 18.9471 48.0368L20.1908 45.7603C20.2785 45.5998 20.4467 45.5 20.6296 45.5H27.7617C28.0095 45.5 28.22 45.6816 28.2563 45.9267L28.2977 46.206C28.6972 48.9028 31.012 50.9 33.7383 50.9H39.5789C41.9507 50.9 43.9241 49.4146 44.7122 47.3803C45.5004 49.4144 47.4735 50.9 49.8456 50.9H54.8862C57.5683 50.9 59.8593 48.9654 60.3085 46.3212L60.9679 42.4401L62.7988 47.329C63.6032 49.4768 65.656 50.9 67.9495 50.9H74.1125C77.0638 50.9 79.2784 48.6538 79.5833 46.0214C79.8867 48.7177 82.1757 50.9 85.0507 50.9H90.2028C92.8756 50.9 95.1614 48.9785 95.6209 46.3454L96.5421 41.0662L100.116 47.938C101.063 49.7581 102.944 50.9 104.996 50.9H111.733C116.006 50.9 118.647 46.242 116.453 42.576L109.377 30.7496C109.262 30.5587 109.288 30.3153 109.44 30.1524L119.117 19.7452C122.388 16.2269 119.893 10.5 115.089 10.5H109.287C107.647 10.5 106.093 11.2319 105.048 12.4959L100.6 17.8774L100.762 16.9592C101.359 13.5904 98.7679 10.5 95.3465 10.5H90.2413C87.5727 10.5 85.2891 12.4157 84.8251 15.0437L79.6344 44.4437C79.6141 44.559 79.5975 44.6739 79.5845 44.7883C79.5174 44.2006 79.3518 43.6082 79.0757 43.03L75.7462 36.0573C75.698 35.9563 75.659 35.7837 75.7784 35.4796C75.9069 35.1523 76.1852 34.7912 76.5655 34.5316C80.2467 32.0188 82.2195 27.8531 82.2195 22.8C82.2195 18.945 80.6691 15.738 77.8144 13.5665C75.0462 11.4608 71.2857 10.5 67.0695 10.5H55.0363C52.3676 10.5 50.084 12.4157 49.62 15.0437L44.7134 42.835ZM65.5812 25.2032C65.3671 25.338 64.8852 25.5151 64.0034 25.5773L64.1579 24.7017C64.1631 24.6718 64.1891 24.65 64.2195 24.65C64.7309 24.65 65.122 24.6847 65.412 24.7397C65.5503 24.766 65.6501 24.794 65.7192 24.8176C65.7194 24.8278 65.7195 24.8386 65.7195 24.85C65.7195 24.9599 65.7083 25.0298 65.6993 25.0683C65.6908 25.1049 65.683 25.1193 65.6822 25.1207L65.6822 25.1208C65.682 25.1211 65.6816 25.1219 65.6807 25.1233C65.6793 25.1254 65.6766 25.1288 65.6714 25.1341C65.6617 25.1442 65.6356 25.169 65.5812 25.2032ZM65.7052 24.6777C65.7052 24.6776 65.7055 24.6786 65.706 24.6806C65.7054 24.6787 65.7052 24.6777 65.7052 24.6777ZM27.2685 32.1511C27.2527 32.1795 27.1929 32.2499 27.0925 32.2928C27.0468 32.3124 27.0066 32.3204 26.9735 32.3224C26.9469 32.3239 26.9248 32.3216 26.9078 32.3183C26.8697 32.3107 26.8096 32.2883 26.7468 32.2242C26.6704 32.1462 26.6421 32.0583 26.6383 32.026C26.6299 31.9528 26.6455 31.8829 26.6784 31.8236C26.7357 31.7207 26.8455 31.65 26.9735 31.65C27.1554 31.65 27.29 31.7882 27.309 31.9486C27.3169 32.015 27.305 32.0852 27.2685 32.1511Z" stroke="#00F0FF" stroke-opacity="0.05" stroke-width="5"/>
<path d="M39.5789 48.4C41.4427 48.4 42.8555 46.7183 42.5339 44.8825L37.3848 15.4825C37.1334 14.0471 35.8869 13 34.4298 13H26.4278C25.3852 13 24.4175 13.5412 23.8717 14.4295L5.80813 43.8295C4.58001 45.8284 6.01821 48.4 8.36422 48.4H14.1204C15.2176 48.4 16.2272 47.8011 16.7532 46.8383L17.9968 44.5617C18.5228 43.5989 19.5324 43 20.6296 43H27.7617C29.2488 43 30.5114 44.0894 30.7293 45.5604L30.7707 45.8396C30.9886 47.3106 32.2512 48.4 33.7383 48.4H39.5789ZM29.1219 31.7395C29.27 33.0236 28.2661 34.15 26.9735 34.15V34.15C25.3249 34.15 24.2826 32.3794 25.0825 30.938V30.938C26.1027 29.0996 28.8809 29.6508 29.1219 31.7395V31.7395Z" fill="white"/>
<path d="M74.1125 48.4C76.3189 48.4 77.7705 46.0984 76.8197 44.1073L73.4902 37.1346C72.6932 35.4655 73.6284 33.5096 75.156 32.4668C78.041 30.4975 79.7195 27.1751 79.7195 22.8C79.7195 16.55 74.8195 13 67.0695 13H55.0363C53.5806 13 52.335 14.0449 52.082 15.4784L46.8913 44.8784C46.5669 46.7155 47.9801 48.4 49.8456 48.4H54.8862C56.3492 48.4 57.5988 47.3448 57.8438 45.9025L59.4908 36.2079C59.5651 35.7702 59.9444 35.45 60.3883 35.45V35.45C60.768 35.45 61.1078 35.6856 61.2409 36.0411L65.14 46.4522C65.5788 47.6237 66.6985 48.4 67.9495 48.4H74.1125ZM63.3195 28.1V28.1C62.1197 28.1 61.2107 27.0166 61.4192 25.835L61.6959 24.2673C61.912 23.0427 62.976 22.15 64.2195 22.15V22.15C66.6695 22.15 68.2195 22.8 68.2195 24.85C68.2195 27.1 66.3695 28.1 63.3195 28.1Z" fill="white"/>
<path d="M111.733 48.4C114.064 48.4 115.504 45.8593 114.308 43.8596L107.231 32.0333C106.546 30.8879 106.7 29.4276 107.609 28.4501L117.286 18.0428C119.07 16.1238 117.709 13 115.089 13H109.287C108.393 13 107.545 13.3992 106.975 14.0887L96.7017 26.5173C96.6845 26.538 96.659 26.55 96.6322 26.55V26.55C96.5761 26.55 96.5336 26.4993 96.5434 26.4441L98.3006 16.5232C98.626 14.6857 97.2127 13 95.3466 13H90.2413C88.7857 13 87.5401 14.0449 87.287 15.4784L82.0964 44.8784C81.772 46.7155 83.1852 48.4 85.0507 48.4H90.2028C91.6607 48.4 92.9075 47.3519 93.1581 45.9157L95.3146 33.5572C95.3204 33.5241 95.3491 33.5 95.3827 33.5V33.5C95.4084 33.5 95.4321 33.5143 95.444 33.5372L102.334 46.7843C102.851 47.7771 103.877 48.4 104.996 48.4H111.733Z" fill="white"/>
<path d="M44.5039 44.5374L39.3548 15.1374C38.9358 12.7452 36.8584 11 34.4298 11H26.4278C24.6902 11 23.0772 11.9021 22.1676 13.3825L4.10407 42.7825C2.05721 46.114 4.45421 50.4 8.36422 50.4H14.1204C15.949 50.4 17.6317 49.4018 18.5083 47.7971L19.752 45.5206C19.9273 45.1996 20.2639 45 20.6296 45H27.7617C28.2574 45 28.6783 45.3631 28.7509 45.8535L28.7923 46.1327C29.1555 48.5844 31.2599 50.4 33.7383 50.4H39.5789C42.6853 50.4 45.0398 47.5972 44.5039 44.5374ZM78.6245 43.2455L75.295 36.2728C75.1767 36.0251 75.1524 35.7057 75.313 35.2968C75.4808 34.8694 75.8266 34.4306 76.2836 34.1186C79.8055 31.7145 81.7195 27.7175 81.7195 22.8C81.7195 19.091 80.2342 16.0354 77.5116 13.9645C74.8583 11.9461 71.2175 11 67.0695 11H55.0363C52.6102 11 50.5342 12.7416 50.1124 15.1307L44.9217 44.5307C44.3812 47.5925 46.7364 50.4 49.8456 50.4H54.8862C57.3245 50.4 59.4072 48.6413 59.8156 46.2374L60.7856 40.5277L63.2671 47.1536C63.9983 49.1062 65.8645 50.4 67.9495 50.4H74.1125C77.7899 50.4 80.2091 46.5639 78.6245 43.2455ZM65.8477 25.6263C65.4754 25.8606 64.7177 26.0903 63.4034 26.0997L63.6655 24.6149C63.7129 24.346 63.9465 24.15 64.2195 24.15C65.3475 24.15 65.8917 24.3149 66.1048 24.4435C66.1443 24.4674 66.1602 24.4831 66.1635 24.4865C66.1659 24.489 66.1666 24.4897 66.1688 24.494L66.1688 24.494C66.1714 24.499 66.2195 24.5904 66.2195 24.85C66.2195 25.1333 66.1632 25.2822 66.1223 25.358C66.083 25.4309 66.0118 25.5229 65.8477 25.6263ZM116.024 42.8327L108.948 31.0064C108.719 30.6246 108.77 30.1378 109.073 29.812L118.75 19.4047C121.724 16.2063 119.456 11 115.089 11H109.287C107.796 11 106.383 11.6653 105.433 12.8145L99.7764 19.6581L100.27 16.872C100.812 13.8094 98.4568 11 95.3465 11H90.2413C87.8153 11 85.7393 12.7416 85.3175 15.1307L80.1268 44.5307C79.5862 47.5925 81.9415 50.4 85.0507 50.4H90.2028C92.6326 50.4 94.7107 48.6531 95.1283 46.2595L96.3036 39.5242L100.56 47.7072C101.421 49.3619 103.131 50.4 104.996 50.4H111.733C115.617 50.4 118.018 46.1654 116.024 42.8327ZM26.8313 31.9084C26.8539 31.8677 26.8715 31.8505 26.8776 31.845C26.8842 31.839 26.8896 31.8358 26.8961 31.833C26.9116 31.8264 26.9504 31.817 27.0051 31.8278C27.0599 31.8387 27.0921 31.8622 27.104 31.8743C27.1088 31.8793 27.1126 31.8844 27.1164 31.8924C27.12 31.8998 27.1297 31.9224 27.135 31.9687C27.1462 32.0653 27.0707 32.15 26.9735 32.15C26.9276 32.15 26.9056 32.1397 26.8922 32.1318C26.8738 32.1208 26.8514 32.1007 26.8333 32.0699C26.8152 32.0391 26.8084 32.0098 26.8078 31.9884C26.8073 31.9728 26.809 31.9486 26.8313 31.9084Z" stroke="#00F0FF" stroke-opacity="0.1" stroke-width="4"/>
<path d="M39.5789 48.4C41.4427 48.4 42.8555 46.7183 42.5339 44.8825L37.3848 15.4825C37.1334 14.0471 35.8869 13 34.4298 13H26.4278C25.3852 13 24.4175 13.5412 23.8717 14.4295L5.80813 43.8295C4.58001 45.8284 6.01821 48.4 8.36422 48.4H14.1204C15.2176 48.4 16.2272 47.8011 16.7532 46.8383L17.9968 44.5617C18.5228 43.5989 19.5324 43 20.6296 43H27.7617C29.2488 43 30.5114 44.0894 30.7293 45.5604L30.7707 45.8396C30.9886 47.3106 32.2512 48.4 33.7383 48.4H39.5789ZM29.1219 31.7395C29.27 33.0236 28.2661 34.15 26.9735 34.15V34.15C25.3249 34.15 24.2826 32.3794 25.0825 30.938V30.938C26.1027 29.0996 28.8809 29.6508 29.1219 31.7395V31.7395Z" fill="white"/>
<path d="M74.1125 48.4C76.3189 48.4 77.7705 46.0984 76.8197 44.1073L73.4902 37.1346C72.6932 35.4655 73.6284 33.5096 75.156 32.4668C78.041 30.4975 79.7195 27.1751 79.7195 22.8C79.7195 16.55 74.8195 13 67.0695 13H55.0363C53.5806 13 52.335 14.0449 52.082 15.4784L46.8913 44.8784C46.5669 46.7155 47.9801 48.4 49.8456 48.4H54.8862C56.3492 48.4 57.5988 47.3448 57.8438 45.9025L59.4908 36.2079C59.5651 35.7702 59.9444 35.45 60.3883 35.45V35.45C60.768 35.45 61.1078 35.6856 61.2409 36.0411L65.14 46.4522C65.5788 47.6237 66.6985 48.4 67.9495 48.4H74.1125ZM63.3195 28.1V28.1C62.1197 28.1 61.2107 27.0166 61.4192 25.835L61.6959 24.2673C61.912 23.0427 62.976 22.15 64.2195 22.15V22.15C66.6695 22.15 68.2195 22.8 68.2195 24.85C68.2195 27.1 66.3695 28.1 63.3195 28.1Z" fill="white"/>
<path d="M111.733 48.4C114.064 48.4 115.504 45.8593 114.308 43.8596L107.231 32.0333C106.546 30.8879 106.7 29.4276 107.609 28.4501L117.286 18.0428C119.07 16.1238 117.709 13 115.089 13H109.287C108.393 13 107.545 13.3992 106.975 14.0887L96.7017 26.5173C96.6845 26.538 96.659 26.55 96.6322 26.55V26.55C96.5761 26.55 96.5336 26.4993 96.5434 26.4441L98.3006 16.5232C98.626 14.6857 97.2127 13 95.3466 13H90.2413C88.7857 13 87.5401 14.0449 87.287 15.4784L82.0964 44.8784C81.772 46.7155 83.1852 48.4 85.0507 48.4H90.2028C91.6607 48.4 92.9075 47.3519 93.1581 45.9157L95.3146 33.5572C95.3204 33.5241 95.3491 33.5 95.3827 33.5V33.5C95.4084 33.5 95.4321 33.5143 95.444 33.5372L102.334 46.7843C102.851 47.7771 103.877 48.4 104.996 48.4H111.733Z" fill="white"/>
<path d="M44.0114 44.6237L38.8623 15.2237C38.4852 13.0707 36.6155 11.5 34.4298 11.5H26.4278C24.864 11.5 23.4123 12.3119 22.5936 13.6443L4.53009 43.0443C2.68791 46.0426 4.84521 49.9 8.36422 49.9H14.1204C15.7661 49.9 17.2806 49.0016 18.0695 47.5574L19.3132 45.2809C19.5762 44.7995 20.081 44.5 20.6296 44.5H27.7617C28.5052 44.5 29.1365 45.0447 29.2455 45.7802L29.2869 46.0595C29.6138 48.266 31.5077 49.9 33.7383 49.9H39.5789C42.3747 49.9 44.4938 47.3775 44.0114 44.6237ZM78.1733 43.4609L74.8438 36.4882C74.4832 35.7331 74.8285 34.5065 76.0017 33.7057C79.3644 31.4102 81.2195 27.5819 81.2195 22.8C81.2195 19.237 79.7993 16.3328 77.2089 14.3624C74.6705 12.4315 71.1492 11.5 67.0695 11.5H55.0363C52.8528 11.5 50.9844 13.0674 50.6048 15.2176L45.4141 44.6176C44.9276 47.3732 47.0473 49.9 49.8456 49.9H54.8862C57.0807 49.9 58.9551 48.3171 59.3226 46.1537L60.6033 38.6154L63.7353 46.9783C64.3935 48.7356 66.073 49.9 67.9495 49.9H74.1125C77.4221 49.9 79.5994 46.4475 78.1733 43.4609ZM62.8964 26.0957L63.1731 24.528C63.2627 24.0202 63.7039 23.65 64.2195 23.65C65.3717 23.65 66.0299 23.8143 66.3631 24.0154C66.5008 24.0986 66.568 24.1788 66.6114 24.2613C66.659 24.3519 66.7195 24.5265 66.7195 24.85C66.7195 25.4827 66.5024 25.8049 66.1141 26.0494C65.6181 26.3617 64.7253 26.6 63.3195 26.6C63.0524 26.6 62.85 26.3588 62.8964 26.0957ZM115.595 43.0894L108.519 31.2631C108.176 30.6904 108.253 29.9602 108.707 29.4715L118.384 19.0642C121.061 16.1857 119.019 11.5 115.089 11.5H109.287C107.945 11.5 106.673 12.0988 105.819 13.133L98.9533 21.4388L99.7776 16.7848C100.266 14.0285 98.1458 11.5 95.3465 11.5H90.2413C88.0579 11.5 86.1895 13.0674 85.8099 15.2176L80.6192 44.6176C80.1327 47.3732 82.2524 49.9 85.0507 49.9H90.2028C92.3896 49.9 94.2599 48.3278 94.6358 46.1735L96.0652 37.9821L101.004 47.4765C101.778 48.9657 103.317 49.9 104.996 49.9H111.733C115.229 49.9 117.39 46.0889 115.595 43.0894ZM26.3941 31.6658C26.7067 31.1025 27.5579 31.2714 27.6318 31.9114C27.6771 32.3049 27.3695 32.65 26.9735 32.65C26.4684 32.65 26.149 32.1075 26.3941 31.6658Z" stroke="#00F0FF" stroke-opacity="0.1" stroke-width="3"/>
<path d="M39.5789 48.4C41.4427 48.4 42.8555 46.7183 42.5339 44.8825L37.3848 15.4825C37.1334 14.0471 35.8869 13 34.4298 13H26.4278C25.3852 13 24.4175 13.5412 23.8717 14.4295L5.80813 43.8295C4.58001 45.8284 6.01821 48.4 8.36422 48.4H14.1204C15.2176 48.4 16.2272 47.8011 16.7532 46.8383L17.9968 44.5617C18.5228 43.5989 19.5324 43 20.6296 43H27.7617C29.2488 43 30.5114 44.0894 30.7293 45.5604L30.7707 45.8396C30.9886 47.3106 32.2512 48.4 33.7383 48.4H39.5789ZM29.1219 31.7395C29.27 33.0236 28.2661 34.15 26.9735 34.15V34.15C25.3249 34.15 24.2826 32.3794 25.0825 30.938V30.938C26.1027 29.0996 28.8809 29.6508 29.1219 31.7395V31.7395Z" fill="white"/>
<path d="M74.1125 48.4C76.3189 48.4 77.7705 46.0984 76.8197 44.1073L73.4902 37.1346C72.6932 35.4655 73.6284 33.5096 75.156 32.4668C78.041 30.4975 79.7195 27.1751 79.7195 22.8C79.7195 16.55 74.8195 13 67.0695 13H55.0363C53.5806 13 52.335 14.0449 52.082 15.4784L46.8913 44.8784C46.5669 46.7155 47.9801 48.4 49.8456 48.4H54.8862C56.3492 48.4 57.5988 47.3448 57.8438 45.9025L59.4908 36.2079C59.5651 35.7702 59.9444 35.45 60.3883 35.45V35.45C60.768 35.45 61.1078 35.6856 61.2409 36.0411L65.14 46.4522C65.5788 47.6237 66.6985 48.4 67.9495 48.4H74.1125ZM63.3195 28.1V28.1C62.1197 28.1 61.2107 27.0166 61.4192 25.835L61.6959 24.2673C61.912 23.0427 62.976 22.15 64.2195 22.15V22.15C66.6695 22.15 68.2195 22.8 68.2195 24.85C68.2195 27.1 66.3695 28.1 63.3195 28.1Z" fill="white"/>
<path d="M111.733 48.4C114.064 48.4 115.504 45.8593 114.308 43.8596L107.231 32.0333C106.546 30.8879 106.7 29.4276 107.609 28.4501L117.286 18.0428C119.07 16.1238 117.709 13 115.089 13H109.287C108.393 13 107.545 13.3992 106.975 14.0887L96.7017 26.5173C96.6845 26.538 96.659 26.55 96.6322 26.55V26.55C96.5761 26.55 96.5336 26.4993 96.5434 26.4441L98.3006 16.5232C98.626 14.6857 97.2127 13 95.3466 13H90.2413C88.7857 13 87.5401 14.0449 87.287 15.4784L82.0964 44.8784C81.772 46.7155 83.1852 48.4 85.0507 48.4H90.2028C91.6607 48.4 92.9075 47.3519 93.1581 45.9157L95.3146 33.5572C95.3204 33.5241 95.3491 33.5 95.3827 33.5V33.5C95.4084 33.5 95.4321 33.5143 95.444 33.5372L102.334 46.7843C102.851 47.7771 103.877 48.4 104.996 48.4H111.733Z" fill="white"/>
<path d="M43.5189 44.7099L38.3698 15.3099C38.0346 13.3962 36.3727 12 34.4298 12H26.4278C25.0377 12 23.7473 12.7217 23.0197 13.906L4.9561 43.306C3.31861 45.9712 5.23621 49.4 8.36422 49.4H14.1204C15.5833 49.4 16.9294 48.6015 17.6308 47.3177L18.8744 45.0412C19.2251 44.3993 19.8982 44 20.6296 44H27.7617C28.7531 44 29.5948 44.7262 29.7401 45.7069L29.7815 45.9862C30.0721 47.9475 31.7556 49.4 33.7383 49.4H39.5789C42.064 49.4 43.9477 47.1578 43.5189 44.7099ZM77.7221 43.6764L74.3926 36.7037C73.8865 35.6439 74.4285 34.1742 75.7198 33.2927C78.9233 31.106 80.7195 27.4463 80.7195 22.8C80.7195 19.383 79.3643 16.6302 76.9062 14.7604C74.4827 12.9168 71.081 12 67.0695 12H55.0363C53.0954 12 51.4346 13.3933 51.0972 15.3045L45.9065 44.7045C45.4741 47.154 47.3583 49.4 49.8456 49.4H54.8862C56.8368 49.4 58.503 47.993 58.8297 46.0699L60.421 36.703L64.2036 46.8029C64.7886 48.3649 66.2815 49.4 67.9495 49.4H74.1125C77.0544 49.4 78.9898 46.3311 77.7221 43.6764ZM62.404 26.0088L62.6807 24.4411C62.8125 23.6944 63.4613 23.15 64.2195 23.15C65.396 23.15 66.1681 23.3137 66.6215 23.5874C66.9773 23.8021 67.2195 24.1284 67.2195 24.85C67.2195 25.6468 66.9206 26.1324 66.3805 26.4725C65.7686 26.8578 64.7651 27.1 63.3195 27.1C62.7415 27.1 62.3036 26.578 62.404 26.0088ZM115.166 43.3462L108.09 31.5198C107.633 30.7563 107.735 29.7827 108.341 29.131L118.018 18.7238C120.397 16.165 118.583 12 115.089 12H109.287C108.094 12 106.964 12.5323 106.204 13.4516L98.1301 23.2195L99.2852 16.6976C99.7192 14.2475 97.8348 12 95.3465 12H90.2413C88.3005 12 86.6397 13.3933 86.3023 15.3045L81.1116 44.7045C80.6791 47.154 82.5633 49.4 85.0507 49.4H90.2028C92.1466 49.4 93.8091 48.0025 94.1432 46.0876L95.8267 36.4401L101.447 47.2458C102.136 48.5695 103.504 49.4 104.996 49.4H111.733C114.841 49.4 116.761 46.0123 115.166 43.3462ZM25.9569 31.4232C26.5054 30.4349 27.9989 30.7312 28.1285 31.8541C28.2081 32.5444 27.6684 33.15 26.9735 33.15C26.0872 33.15 25.5268 32.1981 25.9569 31.4232Z" stroke="#00F0FF" stroke-opacity="0.1" stroke-width="2"/>
<path d="M39.5789 48.4C41.4427 48.4 42.8555 46.7183 42.5339 44.8825L37.3848 15.4825C37.1334 14.0471 35.8869 13 34.4298 13H26.4278C25.3852 13 24.4175 13.5412 23.8717 14.4295L5.80813 43.8295C4.58001 45.8284 6.01821 48.4 8.36422 48.4H14.1204C15.2176 48.4 16.2272 47.8011 16.7532 46.8383L17.9968 44.5617C18.5228 43.5989 19.5324 43 20.6296 43H27.7617C29.2488 43 30.5114 44.0894 30.7293 45.5604L30.7707 45.8396C30.9886 47.3106 32.2512 48.4 33.7383 48.4H39.5789ZM29.1219 31.7395C29.27 33.0236 28.2661 34.15 26.9735 34.15V34.15C25.3249 34.15 24.2826 32.3794 25.0825 30.938V30.938C26.1027 29.0996 28.8809 29.6508 29.1219 31.7395V31.7395Z" fill="white"/>
<path d="M74.1125 48.4C76.3189 48.4 77.7705 46.0984 76.8197 44.1073L73.4902 37.1346C72.6932 35.4655 73.6284 33.5096 75.156 32.4668C78.041 30.4975 79.7195 27.1751 79.7195 22.8C79.7195 16.55 74.8195 13 67.0695 13H55.0363C53.5806 13 52.335 14.0449 52.082 15.4784L46.8913 44.8784C46.5669 46.7155 47.9801 48.4 49.8456 48.4H54.8862C56.3492 48.4 57.5988 47.3448 57.8438 45.9025L59.4908 36.2079C59.5651 35.7702 59.9444 35.45 60.3883 35.45V35.45C60.768 35.45 61.1078 35.6856 61.2409 36.0411L65.14 46.4522C65.5788 47.6237 66.6985 48.4 67.9495 48.4H74.1125ZM63.3195 28.1V28.1C62.1197 28.1 61.2107 27.0166 61.4192 25.835L61.6959 24.2673C61.912 23.0427 62.976 22.15 64.2195 22.15V22.15C66.6695 22.15 68.2195 22.8 68.2195 24.85C68.2195 27.1 66.3695 28.1 63.3195 28.1Z" fill="white"/>
<path d="M111.733 48.4C114.064 48.4 115.504 45.8593 114.308 43.8596L107.231 32.0333C106.546 30.8879 106.7 29.4276 107.609 28.4501L117.286 18.0428C119.07 16.1238 117.709 13 115.089 13H109.287C108.393 13 107.545 13.3992 106.975 14.0887L96.7017 26.5173C96.6845 26.538 96.659 26.55 96.6322 26.55V26.55C96.5761 26.55 96.5336 26.4993 96.5434 26.4441L98.3006 16.5232C98.626 14.6857 97.2127 13 95.3466 13H90.2413C88.7857 13 87.5401 14.0449 87.287 15.4784L82.0964 44.8784C81.772 46.7155 83.1852 48.4 85.0507 48.4H90.2028C91.6607 48.4 92.9075 47.3519 93.1581 45.9157L95.3146 33.5572C95.3204 33.5241 95.3491 33.5 95.3827 33.5V33.5C95.4084 33.5 95.4321 33.5143 95.444 33.5372L102.334 46.7843C102.851 47.7771 103.877 48.4 104.996 48.4H111.733Z" fill="white"/>
<path d="M43.0264 44.7962L37.8773 15.3962C37.584 13.7216 36.1298 12.5 34.4298 12.5H26.4278C25.2115 12.5 24.0824 13.1315 23.4457 14.1678L5.38212 43.5678C3.94931 45.8998 5.62721 48.9 8.36422 48.9H14.1204C15.4004 48.9 16.5783 48.2013 17.192 47.078L18.4356 44.8014C18.8739 43.9991 19.7153 43.5 20.6296 43.5H27.7617C29.0009 43.5 30.0531 44.4078 30.2347 45.6336L30.2761 45.9129C30.5303 47.6291 32.0034 48.9 33.7383 48.9H39.5789C41.7534 48.9 43.4016 46.9381 43.0264 44.7962ZM77.2709 43.8918L73.9414 36.9191C73.2899 35.5547 74.0284 33.8419 75.4379 32.8797C78.4821 30.8017 80.2195 27.3107 80.2195 22.8C80.2195 19.529 78.9294 16.9276 76.6035 15.1583C74.2949 13.4022 71.0128 12.5 67.0695 12.5H55.0363C53.338 12.5 51.8848 13.7191 51.5896 15.3915L46.3989 44.7915C46.0205 46.9347 47.6692 48.9 49.8456 48.9H54.8862C56.593 48.9 58.0509 47.6689 58.3368 45.9862L59.9837 36.2917C60.0172 36.0944 60.1882 35.95 60.3883 35.95C60.5595 35.95 60.7127 36.0562 60.7727 36.2165L64.6718 46.6275C65.1837 47.9943 66.49 48.9 67.9495 48.9H74.1125C76.6867 48.9 78.3801 46.2147 77.2709 43.8918ZM61.9116 25.9219L62.1883 24.3542C62.3622 23.3685 63.2187 22.65 64.2195 22.65C65.4203 22.65 66.3063 22.8131 66.8799 23.1593C67.4046 23.4761 67.7195 23.9767 67.7195 24.85C67.7195 25.8109 67.3388 26.46 66.6469 26.8956C65.919 27.3539 64.8048 27.6 63.3195 27.6C62.4306 27.6 61.7571 26.7973 61.9116 25.9219ZM114.737 43.6029L107.66 31.7766C107.089 30.8221 107.218 29.6051 107.975 28.7905L117.652 18.3833C119.734 16.1444 118.146 12.5 115.089 12.5H109.287C108.243 12.5 107.254 12.9657 106.589 13.7701L97.3069 25.0003L98.7929 16.6104C99.1726 14.4666 97.5238 12.5 95.3465 12.5H90.2413C88.5431 12.5 87.0899 13.7191 86.7947 15.3915L81.604 44.7915C81.2256 46.9347 82.8743 48.9 85.0507 48.9H90.2028C91.9036 48.9 93.3583 47.6772 93.6507 46.0016L95.5882 34.8981L101.891 47.0151C102.493 48.1733 103.69 48.9 104.996 48.9H111.733C114.452 48.9 116.133 45.9358 114.737 43.6029ZM25.5197 31.1806C26.304 29.7672 28.4399 30.191 28.6252 31.7968C28.7391 32.784 27.9672 33.65 26.9735 33.65C25.7061 33.65 24.9047 32.2888 25.5197 31.1806Z" stroke="#00F0FF" stroke-opacity="0.1"/>
</svg>
