<?xml version="1.0" encoding="UTF-8"?>
<svg width="24px" height="24px" viewBox="0 0 24 24" version="1.1" xmlns="http://www.w3.org/2000/svg" xmlns:xlink="http://www.w3.org/1999/xlink">
    <g stroke="none" stroke-width="1" fill="none" fill-rule="evenodd">
        <g transform="translate(-708.000000, -427.000000)">
            <circle id="Oval" fill="#F7FAFA" cx="720" cy="439" r="12"></circle>
            <path d="M726,439 C726,439.306239 725.770841,439.558955 725.474648,439.596023 L725.399297,439.600703 L720.600329,439.600064 L720.600703,444.399297 C720.600703,444.731056 720.331759,445 720,445 C719.693761,445 719.441045,444.770841 719.403977,444.474648 L719.399297,444.399297 L719.399671,439.600064 L714.600703,439.600703 C714.268944,439.600703 714,439.331759 714,439 C714,438.693761 714.229159,438.441045 714.525352,438.403977 L714.600703,438.399297 L719.399199,438.398933 L719.399297,433.600703 C719.399297,433.268944 719.668241,433 720,433 C720.306239,433 720.558955,433.229159 720.596023,433.525352 L720.600703,433.600703 L720.600801,438.398933 L725.399297,438.399297 C725.731056,438.399297 726,438.668241 726,439 Z" id="Path" fill="#149BA3"></path>
        </g>
    </g>
</svg>