<svg width="22" height="17" viewBox="0 0 22 17" fill="none" xmlns="http://www.w3.org/2000/svg">
<path d="M2.35919 0.846306C2.07232 0.847244 1.79575 1.03662 1.69171 1.30379C1.34764 2.18035 0.801091 3.56879 0.484219 4.43699C0.431719 4.57949 0.386719 4.65731 0.326719 4.79699C0.266719 4.93762 0.199219 5.16261 0.199219 5.38951V5.42701C0.22547 6.02981 0.483283 6.59326 0.859219 7.14356C1.21267 7.66105 1.69267 8.21888 2.44922 8.28262C2.03767 9.79388 1.57641 11.2497 1.18173 12.7433C1.10673 13.0264 1.04767 13.2701 1.00173 13.4783C0.955792 13.6855 0.91923 13.8073 0.91923 14.0408C0.91923 14.4083 0.861105 14.8302 1.07673 15.3298C1.18454 15.5802 1.39828 15.837 1.67673 15.9898C1.95518 16.1417 2.26641 16.1998 2.59924 16.1998C3.25924 16.1998 4.17799 16.2242 5.04436 16.0648C5.47749 15.9852 5.90968 15.8642 6.29687 15.6148C6.68406 15.3655 7.02626 14.9511 7.14436 14.4383L7.73687 11.8818L10.9994 11.8743H11.0444C12.2585 11.8059 13.1304 11.1768 13.587 10.3902C13.9807 9.7115 14.1392 8.96805 14.277 8.27618H19.3995C20.2095 8.27618 20.8414 7.72399 21.2221 7.06212C21.6027 6.40024 21.7995 5.57337 21.7995 4.68556V1.56748C21.7995 1.19061 21.4564 0.847482 21.0795 0.847482C15.5221 0.84467 8.60051 0.836232 2.35955 0.847482L2.35919 0.846306ZM2.85419 2.28537C8.71931 2.27506 15.0661 2.28256 20.3593 2.28537V4.68443C20.3593 5.34443 20.1924 5.95192 19.9693 6.34099C19.7462 6.73005 19.5343 6.83599 19.3993 6.83599L2.59931 6.84349C2.60213 6.84349 2.32276 6.6963 2.08183 6.36349H18.9193C19.2999 6.36911 19.6496 6.0241 19.6496 5.64349C19.6496 5.26287 19.2999 4.91881 18.9193 4.92349H1.83415C2.09289 4.21661 2.51759 3.14036 2.85415 2.28445L2.85419 2.28537ZM12.8068 8.27505C12.683 8.82724 12.5424 9.3166 12.3418 9.6616C12.0689 10.1303 11.7896 10.3872 10.9618 10.4341L8.05175 10.4416C8.20738 9.686 8.37614 8.93506 8.51675 8.28255H9.10926C9.1852 8.906 9.43646 9.61004 10.1143 10.0741C10.4265 10.2879 10.9055 10.1969 11.1174 9.88473C11.3302 9.5716 11.2374 9.09347 10.9243 8.88254C10.6993 8.72879 10.5943 8.54035 10.5493 8.28254L12.8068 8.27505ZM3.94163 8.28255H7.03907C6.8197 9.28568 6.62563 10.2279 6.41656 11.1616H4.92405C4.54718 11.1813 4.22186 11.5422 4.24154 11.9191C4.26122 12.296 4.62215 12.6213 4.99902 12.6016H6.08651L6.03401 12.8416H4.68401C4.30714 12.8613 3.98182 13.2222 4.0015 13.5991C4.02119 13.976 4.38212 14.3013 4.75899 14.2816H5.66648C5.63273 14.321 5.58679 14.3566 5.51648 14.4016C5.36648 14.4982 5.10303 14.5975 4.78148 14.6566C4.13929 14.7747 3.28993 14.7616 2.59897 14.7616C2.45459 14.7616 2.4199 14.7447 2.40397 14.7391C2.39178 14.6969 2.36084 14.4391 2.35897 14.0716C2.36459 14.0557 2.3824 13.9254 2.41147 13.7941C2.4499 13.6188 2.50428 13.3769 2.57647 13.1041C3.00395 11.4513 3.51208 9.90924 3.94147 8.28348L3.94163 8.28255Z" fill="#DEFFFF" fill-opacity="0.5"/>
</svg>
