<svg width="20" height="25" viewBox="0 0 20 25" fill="none" xmlns="http://www.w3.org/2000/svg">
<path fill-rule="evenodd" clip-rule="evenodd" d="M19.2625 6.7625L13.225 0.725C12.7625 0.2625 12.125 0 11.4625 0H2.5C1.125 0 0.0125003 1.125 0.0125003 2.5L0 22.5C0 23.875 1.1125 25 2.4875 25H17.5C18.875 25 20 23.875 20 22.5V8.5375C20 7.875 19.7375 7.2375 19.2625 6.7625ZM12.5 7.5C11.8125 7.5 11.25 6.9375 11.25 6.25V1.875L16.875 7.5H12.5ZM11.25 11.25C11.25 10.5596 10.6904 10 10 10C9.30964 10 8.75 10.5596 8.75 11.25V13.75V16.25C8.75 16.9404 9.30964 17.5 10 17.5C10.6904 17.5 11.25 16.9404 11.25 16.25V13.75V11.25ZM8.75 20C8.75 19.3096 9.30964 18.75 10 18.75C10.6904 18.75 11.2625 19.3096 11.2625 20C11.2625 20.6904 10.6904 21.25 10 21.25C9.30964 21.25 8.75 20.6904 8.75 20Z" fill="#FF5252"/>
</svg>
