<svg width="20" height="25" viewBox="0 0 20 25" fill="none" xmlns="http://www.w3.org/2000/svg">
<path fill-rule="evenodd" clip-rule="evenodd" d="M13.225 0.700833L19.2625 6.53708C19.7375 6.99625 20 7.6125 20 8.25292V21.75C20 23.0792 18.875 24.1667 17.5 24.1667H2.4875C1.1125 24.1667 0 23.0792 0 21.75L0.0125003 2.41667C0.0125003 1.0875 1.125 0 2.5 0H11.4625C12.125 0 12.7625 0.25375 13.225 0.700833ZM11.25 6.04167C11.25 6.70625 11.8125 7.25 12.5 7.25H16.875L11.25 1.8125V6.04167ZM4.63748 14.354L7.64997 17.266C8.13747 17.7373 8.92497 17.7373 9.41247 17.2781L15.0875 11.7923C15.575 11.321 15.575 10.5598 15.0875 10.0885C14.6 9.61729 13.8125 9.61729 13.325 10.0885L8.53747 14.7165L6.39997 12.6502C5.91248 12.179 5.12498 12.179 4.63748 12.6502C4.14998 13.1215 4.14998 13.8827 4.63748 14.354Z" fill="#00FFB0"/>
</svg>
