<?xml version="1.0" encoding="UTF-8"?>
<svg  viewBox="0 0 14 13" version="1.1" xmlns="http://www.w3.org/2000/svg" xmlns:xlink="http://www.w3.org/1999/xlink">
    <path fill="#29CCC4" d="M7.59847551,6.5 C7.8305837,6.5 8.02089391,6.31718254 8.02089391,6.09375 L8.02089391,5.64688492 C8.82127435,5.55546379 9.42669246,4.85977554 9.32121247,4.04727554 C9.2446659,3.46329117 8.77532267,2.99862289 8.18958119,2.83613777 L6.87053542,2.47305679 C6.78432855,2.45198059 6.71212555,2.35984039 6.70939599,2.26737785 C6.70939599,2.1505909 6.80879972,2.05411148 6.93106062,2.05411148 L7.79630983,2.05411148 C7.87451788,2.05423546 7.99680251,2.07925415 8.06926659,2.10995102 C8.19639324,2.16581535 8.34343386,2.15312004 8.44112865,2.05916977 L8.90292403,1.61483383 C8.92013217,1.5989151 8.94374887,1.56935883 8.95566402,1.54882812 C8.97840251,1.51022148 8.99684489,1.44210815 8.99684489,1.39678192 C8.99684489,1.30625343 8.93658078,1.1948719 8.86233654,1.14815712 C8.64793494,1.01379013 8.27203787,0.882968903 8.02333865,0.856164932 L8.02333865,0.40625 C8.02333865,0.182817459 7.8332658,0 7.60115761,0 L7.17897656,0 C6.94686837,0 6.75679552,0.182817459 6.75679552,0.40625 L6.75679552,0.853115082 C5.95741196,0.944536209 5.35075962,1.64022446 5.45623961,2.45272446 C5.53254882,3.03670883 6.00333991,3.50137711 6.58810824,3.66386223 L7.90715401,4.02694321 C7.99338461,4.04801941 8.06556388,4.14015961 8.06829344,4.23262215 C8.06829344,4.3494091 7.96888971,4.44588852 7.84662881,4.44588852 L6.9813796,4.44588852 C6.90345638,4.44566536 6.78159898,4.42064667 6.70939599,4.39004898 C6.58203199,4.33418465 6.43522872,4.34687996 6.33753393,4.44083023 L5.87573855,4.88516617 C5.85796076,4.90140724 5.83346586,4.93168259 5.82105226,4.9526844 C5.79864607,4.99106789 5.78048851,5.0586853 5.78048851,5.1036396 C5.78048851,5.19431686 5.84089503,5.30572319 5.91535289,5.35233879 C6.12970702,5.48673058 6.50546168,5.61752701 6.75411342,5.64433098 L6.75411342,6.09375 C6.75411342,6.31718254 6.94442363,6.5 7.17629447,6.5 L7.59847551,6.5 Z M9.0614051,13 C9.3622984,13 9.79729654,12.8407383 10.0323717,12.6445312 L13.7080312,9.57226562 C13.8691944,9.43760109 14,9.15334511 14,8.93774796 C14,8.73643303 13.883127,8.46445084 13.7391483,8.33065414 L13.7388872,8.33065414 C13.4520927,8.05899429 13.0048946,8.07674789 12.7035028,8.33065414 L10.4577095,10.2070312 C10.2235838,10.4032631 9.78996231,10.5625 9.48980481,10.5625 L6.6109654,10.5625 C6.39630271,10.5625 6.22208508,10.3805008 6.22208508,10.15625 C6.22208508,9.93199921 6.39630271,9.75 6.6109654,9.75 L8.51380636,9.75 C8.90026567,9.75 9.26021257,9.47323227 9.32194827,9.07461929 C9.32811946,9.03747559 9.33312763,8.97672653 9.33312763,8.93903732 L9.33312763,8.93598747 C9.33232062,8.48832893 8.98388538,8.125 8.55536699,8.125 L4.66656381,8.125 C4.10697871,8.12514877 3.30011851,8.42420769 2.86557134,8.79252052 L1.73538791,9.75 L0.388880318,9.75 C0.174217623,9.75 0,9.93199921 0,10.15625 L0,12.59375 C0,12.8180008 0.174217623,13 0.388880318,13 L9.0614051,13 Z"></path>
</svg>
