<?xml version="1.0" encoding="UTF-8"?>
<svg width="14px" height="14px" viewBox="0 0 14 14" version="1.1" xmlns="http://www.w3.org/2000/svg" xmlns:xlink="http://www.w3.org/1999/xlink">
    <g stroke="none" stroke-width="1" fill="none" fill-rule="evenodd">
        <g transform="translate(-181.000000, -327.000000)" fill="#149BA3">
            <path d="M195,334 C195,334.357279 194.732647,334.652115 194.387089,334.69536 L194.29918,334.70082 L188.700384,334.700074 L188.70082,340.29918 C188.70082,340.686232 188.387052,341 188,341 C187.642721,341 187.347885,340.732647 187.30464,340.387089 L187.29918,340.29918 L187.299616,334.700074 L181.70082,334.70082 C181.313768,334.70082 181,334.387052 181,334 C181,333.642721 181.267353,333.347885 181.612911,333.30464 L181.70082,333.29918 L187.299065,333.298755 L187.29918,327.70082 C187.29918,327.313768 187.612948,327 188,327 C188.357279,327 188.652115,327.267353 188.69536,327.612911 L188.70082,327.70082 L188.700935,333.298755 L194.29918,333.29918 C194.686232,333.29918 195,333.612948 195,334 Z" id="Path"></path>
        </g>
    </g>
</svg>