<svg width="20" height="23" viewBox="0 0 20 23" fill="none" xmlns="http://www.w3.org/2000/svg">
<g clip-path="url(#clip0)">
<path d="M18.5438 4.99389L10.4868 0.221972C10.2407 0.0758086 9.96139 -0.00115967 9.67705 -0.00115967C9.39271 -0.00115967 9.1134 0.0758086 8.86734 0.221972L0.810314 4.99389C0.564045 5.1396 0.359509 5.34923 0.217268 5.60173C0.0750267 5.85423 9.36274e-05 6.14069 1.52716e-06 6.43231V15.9762C-0.000389442 16.2685 0.0742953 16.5559 0.216542 16.8093C0.358789 17.0627 0.56358 17.2731 0.810314 17.4196L8.86734 22.1865C9.1134 22.3327 9.39271 22.4096 9.67705 22.4096C9.96139 22.4096 10.2407 22.3327 10.4868 22.1865L18.5438 17.4196C18.7902 17.2737 18.9949 17.0639 19.1371 16.8112C19.2794 16.5584 19.3542 16.2717 19.3541 15.9799V6.43231C19.3542 6.14064 19.2794 5.85408 19.1372 5.60154C18.9949 5.349 18.7902 5.1394 18.5438 4.99389ZM17.0881 11.2254C17.0879 11.3753 17.0492 11.5224 16.976 11.6521C16.9028 11.7818 16.7977 11.8895 16.6711 11.9644C16.5445 12.0392 16.401 12.0787 16.2549 12.0787C16.1088 12.0787 15.9653 12.0393 15.8387 11.9645L9.26037 8.07107C9.08343 7.95077 8.95791 7.76574 8.90943 7.55375C8.86096 7.34176 8.89317 7.11878 8.99951 6.93032C9.10584 6.74186 9.27827 6.60213 9.48162 6.53965C9.68497 6.47716 9.9039 6.49663 10.0937 6.59407L11.7192 7.55592V7.56837L14.3139 9.10135C14.5052 9.21455 14.7324 9.24517 14.9457 9.18648C15.159 9.12779 15.3408 8.9846 15.4511 8.78841C15.5615 8.59222 15.5913 8.3591 15.5341 8.14033C15.4769 7.92156 15.3373 7.73507 15.146 7.62187L13.7559 6.79939L10.0901 4.62433C9.96838 4.54088 9.82527 4.49633 9.67887 4.49633C9.53247 4.49633 9.38936 4.54088 9.26765 4.62433L5.4126 6.90639C5.02321 7.13659 5.03655 7.44642 5.4126 7.66916C7.37045 8.83258 16.3906 14.2142 16.6696 14.381C16.7991 14.4542 16.9064 14.5627 16.9798 14.6943C17.0532 14.826 17.0898 14.9759 17.0857 15.1275C17.0859 15.2774 17.0476 15.4247 16.9745 15.5545C16.9015 15.6842 16.7963 15.7919 16.6696 15.8667L10.0949 19.7613C9.96809 19.8359 9.82445 19.8751 9.67826 19.8751C9.53207 19.8751 9.38843 19.8359 9.26158 19.7613L2.68689 15.8667C2.5604 15.7917 2.45537 15.684 2.38233 15.5543C2.3093 15.4245 2.27084 15.2774 2.27082 15.1275V11.1843C2.2698 11.0338 2.30753 10.8857 2.38021 10.755C2.45288 10.6242 2.55791 10.5155 2.68469 10.4397C2.81146 10.364 2.95549 10.3239 3.10221 10.3236C3.24892 10.3232 3.39313 10.3626 3.52025 10.4377L10.0949 14.3312C10.1897 14.3873 10.2728 14.462 10.3394 14.5511C10.4061 14.6402 10.4549 14.7418 10.4833 14.8503C10.5116 14.9587 10.5188 15.0718 10.5045 15.1831C10.4903 15.2944 10.4547 15.4017 10.4 15.499C10.3453 15.5962 10.2724 15.6814 10.1856 15.7498C10.0988 15.8181 9.9997 15.8682 9.89398 15.8973C9.68048 15.956 9.453 15.9253 9.26158 15.8119L7.64217 14.8613V14.8488L5.05232 13.3133C4.95762 13.2573 4.85308 13.2209 4.74468 13.2063C4.63627 13.1917 4.52613 13.1992 4.42053 13.2282C4.31492 13.2573 4.21594 13.3074 4.12921 13.3757C4.04249 13.444 3.96974 13.5291 3.9151 13.6263C3.86046 13.7234 3.82501 13.8307 3.81077 13.9419C3.79653 14.0531 3.80378 14.166 3.83211 14.2744C3.88932 14.4931 4.02891 14.6796 4.22018 14.7928L5.13602 15.3353L9.26037 17.7804C9.38208 17.8639 9.52519 17.9084 9.67159 17.9084C9.81799 17.9084 9.9611 17.8639 10.0828 17.7804L13.9379 15.4983C14.3272 15.2669 14.3139 14.9583 13.9379 14.7356C11.98 13.5709 2.68083 8.02254 2.68083 8.02254C2.5544 7.94744 2.44944 7.83956 2.37648 7.70972C2.30352 7.57989 2.26511 7.43266 2.26511 7.2828C2.26511 7.13294 2.30352 6.98571 2.37648 6.85587C2.44944 6.72604 2.5544 6.61816 2.68083 6.54306L9.25552 2.64962C9.38216 2.57447 9.52589 2.5349 9.6722 2.5349C9.81851 2.5349 9.96223 2.57447 10.0889 2.64962L16.6636 6.54306C16.7901 6.61787 16.8952 6.72559 16.9683 6.85535C17.0413 6.98511 17.0797 7.13233 17.0796 7.28218L17.0881 11.2254Z" fill="#DEFFFF"/>
</g>
<defs>
<clipPath id="clip0">
<rect width="19.3541" height="22.41" fill="white"/>
</clipPath>
</defs>
</svg>
