<svg width="20" height="23" viewBox="0 0 20 23" fill="none" xmlns="http://www.w3.org/2000/svg">
<g clip-path="url(#clip1)">
<path d="M18.5438 4.99383L10.4868 0.22191C10.2407 0.0757476 9.96139 -0.0012207 9.67705 -0.0012207C9.39271 -0.0012207 9.1134 0.0757476 8.86734 0.22191L0.810314 4.99383C0.564045 5.13953 0.359509 5.34917 0.217268 5.60167C0.0750267 5.85417 9.36274e-05 6.14063 1.52716e-06 6.43225V15.9761C-0.000389442 16.2685 0.0742953 16.5558 0.216542 16.8092C0.358789 17.0626 0.56358 17.2731 0.810314 17.4195L8.86734 22.1864C9.1134 22.3326 9.39271 22.4096 9.67705 22.4096C9.96139 22.4096 10.2407 22.3326 10.4868 22.1864L18.5438 17.4195C18.7902 17.2737 18.9949 17.0639 19.1371 16.8111C19.2794 16.5584 19.3542 16.2717 19.3541 15.9798V6.43225C19.3542 6.14058 19.2794 5.85402 19.1372 5.60148C18.9949 5.34894 18.7902 5.13934 18.5438 4.99383ZM17.0881 11.2253C17.0879 11.3752 17.0492 11.5223 16.976 11.652C16.9028 11.7817 16.7977 11.8894 16.6711 11.9643C16.5445 12.0392 16.401 12.0786 16.2549 12.0786C16.1088 12.0786 15.9653 12.0393 15.8387 11.9644L9.26037 8.07101C9.08343 7.95071 8.95791 7.76568 8.90943 7.55369C8.86096 7.3417 8.89317 7.11872 8.99951 6.93026C9.10584 6.7418 9.27827 6.60207 9.48162 6.53958C9.68497 6.4771 9.9039 6.49656 10.0937 6.59401L11.7192 7.55586V7.56831L14.3139 9.10129C14.5052 9.21449 14.7324 9.24511 14.9457 9.18642C15.159 9.12773 15.3408 8.98454 15.4511 8.78835C15.5615 8.59216 15.5913 8.35904 15.5341 8.14027C15.4769 7.9215 15.3373 7.735 15.146 7.62181L13.7559 6.79932L10.0901 4.62427C9.96838 4.54082 9.82527 4.49627 9.67887 4.49627C9.53247 4.49627 9.38936 4.54082 9.26765 4.62427L5.4126 6.90633C5.02321 7.13653 5.03655 7.44636 5.4126 7.6691C7.37045 8.83252 16.3906 14.2142 16.6696 14.3809C16.7991 14.4542 16.9064 14.5626 16.9798 14.6943C17.0532 14.826 17.0898 14.9758 17.0857 15.1275C17.0859 15.2773 17.0476 15.4246 16.9745 15.5544C16.9015 15.6842 16.7963 15.7919 16.6696 15.8666L10.0949 19.7613C9.96809 19.8358 9.82445 19.875 9.67826 19.875C9.53207 19.875 9.38843 19.8358 9.26158 19.7613L2.68689 15.8666C2.5604 15.7917 2.45537 15.684 2.38233 15.5542C2.3093 15.4245 2.27084 15.2773 2.27082 15.1275V11.1843C2.2698 11.0338 2.30753 10.8857 2.38021 10.7549C2.45288 10.6242 2.55791 10.5154 2.68469 10.4397C2.81146 10.3639 2.95549 10.3239 3.10221 10.3235C3.24892 10.3232 3.39313 10.3625 3.52025 10.4377L10.0949 14.3311C10.1897 14.3873 10.2728 14.462 10.3394 14.551C10.4061 14.6401 10.4549 14.7418 10.4833 14.8502C10.5116 14.9586 10.5188 15.0717 10.5045 15.183C10.4903 15.2943 10.4547 15.4017 10.4 15.4989C10.3453 15.5961 10.2724 15.6813 10.1856 15.7497C10.0988 15.818 9.9997 15.8682 9.89398 15.8972C9.68048 15.9559 9.453 15.9252 9.26158 15.8118L7.64217 14.8612V14.8488L5.05232 13.3133C4.95762 13.2572 4.85308 13.2209 4.74468 13.2063C4.63627 13.1917 4.52613 13.1991 4.42053 13.2282C4.31492 13.2572 4.21594 13.3073 4.12921 13.3756C4.04249 13.4439 3.96974 13.5291 3.9151 13.6262C3.86046 13.7234 3.82501 13.8306 3.81077 13.9418C3.79653 14.053 3.80378 14.166 3.83211 14.2743C3.88932 14.4931 4.02891 14.6796 4.22018 14.7928L5.13602 15.3353L9.26037 17.7803C9.38208 17.8638 9.52519 17.9083 9.67159 17.9083C9.81799 17.9083 9.9611 17.8638 10.0828 17.7803L13.9379 15.4983C14.3272 15.2668 14.3139 14.9583 13.9379 14.7355C11.98 13.5708 2.68083 8.02248 2.68083 8.02248C2.5544 7.94737 2.44944 7.8395 2.37648 7.70966C2.30352 7.57983 2.26511 7.4326 2.26511 7.28274C2.26511 7.13288 2.30352 6.98565 2.37648 6.85581C2.44944 6.72598 2.5544 6.6181 2.68083 6.543L9.25552 2.64956C9.38216 2.57441 9.52589 2.53484 9.6722 2.53484C9.81851 2.53484 9.96223 2.57441 10.0889 2.64956L16.6636 6.543C16.7901 6.61781 16.8952 6.72552 16.9683 6.85529C17.0413 6.98505 17.0797 7.13227 17.0796 7.28211L17.0881 11.2253Z" fill="#DEFFFF"/>
</g>
<defs>
<clipPath id="clip1">
<rect width="19.3541" height="22.41" fill="white"/>
</clipPath>
</defs>
</svg>
