<?xml version="1.0" encoding="UTF-8"?>
<svg width="57px" height="52px" viewBox="0 0 57 52" version="1.1" xmlns="http://www.w3.org/2000/svg" xmlns:xlink="http://www.w3.org/1999/xlink">
  <g stroke="none" stroke-width="1" fill="none" fill-rule="evenodd">
    <path fill="#9CCAD2" fill-rule="nonzero" d="M46.5,20.8792555 L46.5878095,20.8870923 C46.7028504,20.9077984 46.8081131,20.9687655 46.8841106,21.0607841 L46.8841106,21.0607841 L56.5919322,32.8143445 C56.8241638,32.8578927 57,33.0633968 57,33.3103396 L57,33.3103396 L57,51.4725017 C57,51.7511319 56.7761424,51.9770062 56.5,51.9770062 L56.5,51.9770062 L0.5,51.9770062 C0.223857625,51.9770062 0,51.7511319 0,51.4725017 L0,51.4725017 L0,33.3103396 C0,33.0633968 0.175836249,32.8578927 0.408067752,32.8143445 L10.1158894,21.0607841 L10.1780702,20.9977362 C10.2674824,20.9218189 10.3812881,20.8792555 10.5,20.8792555 L10.5,20.8792555 L46.5,20.8792555 Z M14.023,33.8148441 L1,33.8148441 L1,50.9679972 L56,50.9679972 L56,33.8148441 L42.976,33.8148441 L42.9676032,33.918353 C42.5358217,37.870746 37.7915022,39.8049841 28.9457067,39.8673396 L28.9457067,39.8673396 L28.5,39.8688981 C19.3678397,39.8688981 14.4713746,37.9366192 14.0323968,33.918353 L14.0323968,33.918353 L14.023,33.8148441 Z M46.264,21.8882646 L10.735,21.8882646 L1.717,32.805 L14.5,32.8058351 C14.7454599,32.8058351 14.9496084,32.9843037 14.9919443,33.2196542 L15,33.3103396 C15,36.9508659 19.4146162,38.8598891 28.5,38.8598891 C37.5853838,38.8598891 42,36.9508659 42,33.3103396 C42,33.0317094 42.2238576,32.8058351 42.5,32.8058351 L42.5,32.8058351 L55.282,32.805 L46.264,21.8882646 Z M41.9090908,9.22818662 C42.1458854,9.21686678 42.3641506,9.37742828 42.4193671,9.61875172 C42.4814856,9.8902406 42.3137225,10.1611365 42.0446576,10.2238146 L42.0446576,10.2238146 L36.1984372,11.5856805 L36.109053,11.5981603 L36.0214058,11.5945263 C35.8202397,11.5680779 35.6470911,11.4187532 35.5987767,11.2075952 C35.5366581,10.9361063 35.7044213,10.6652104 35.9734862,10.6025323 L35.9734862,10.6025323 L41.8197065,9.24066646 Z M15.6355668,9.22818662 L15.7249511,9.24066646 L21.5711714,10.6025323 L21.6569314,10.630852 C21.874679,10.7254169 22.0010974,10.9662718 21.9458809,11.2075952 C21.8837624,11.4790841 21.6152853,11.6483586 21.3462204,11.5856805 L21.3462204,11.5856805 L15.5,10.2238146 L15.41424,10.195495 C15.1964925,10.1009301 15.070074,9.86007517 15.1252905,9.61875172 C15.187409,9.34726285 15.4558862,9.17798831 15.7249511,9.24066646 Z M34.2404637,0.205514323 C34.3807648,0.0127087088 34.6417892,-0.0573987882 34.8624071,0.0511731369 C35.1106022,0.173316553 35.2136714,0.475347885 35.0926185,0.725779 L35.0926185,0.725779 L32.4623916,6.16712674 L32.4157524,6.24507098 L32.3577953,6.31151227 C32.2108266,6.4526116 31.9868497,6.4944126 31.793809,6.39941217 C31.5456139,6.27726875 31.4425447,5.97523742 31.5635976,5.7248063 L31.5635976,5.7248063 L34.1938245,0.283458564 Z M22.6822505,0.0511731369 C22.9304456,-0.0709702789 23.2297803,0.0330274491 23.3508331,0.283458564 L23.3508331,0.283458564 L25.98106,5.7248063 L26.0132185,5.80987692 C26.0774169,6.04013465 25.9714664,6.29084024 25.7508486,6.39941217 C25.5026534,6.52155558 25.2033188,6.41755785 25.082266,6.16712674 L25.082266,6.16712674 L22.4520391,0.725779 L22.4198806,0.640708385 C22.3556822,0.41045065 22.4616326,0.159745062 22.6822505,0.0511731369 Z"></path>
  </g>
</svg>
