<?xml version="1.0" encoding="UTF-8"?>
<svg height="26px" width="26px" viewBox="0 0 26 26" version="1.1" xmlns="http://www.w3.org/2000/svg" xmlns:xlink="http://www.w3.org/1999/xlink">
  <g stroke="none" stroke-width="1" fill="none" fill-rule="evenodd">
    <path d="M21.6416324,21.6416324 C21.2005646,22.0827002 20.5065328,22.1166285 20.0265474,21.7434173 L19.9112807,21.6416324 L13.0003825,14.7288922 L6.08871933,21.6416324 C5.61089589,22.1194559 4.83619102,22.1194559 4.35836758,21.6416324 C3.91729979,21.2005646 3.8833715,20.5065328 4.25658271,20.0265474 L4.35836758,19.9112807 L11.2711078,12.9996175 L4.35836758,6.08871933 C3.88054414,5.61089589 3.88054414,4.83619102 4.35836758,4.35836758 C4.79943537,3.91729979 5.49346722,3.8833715 5.97345256,4.25658271 L6.08871933,4.35836758 L13.0003825,11.2689832 L19.9112807,4.35836758 C20.3891041,3.88054414 21.163809,3.88054414 21.6416324,4.35836758 C22.0827002,4.79943537 22.1166285,5.49346722 21.7434173,5.97345256 L21.6416324,6.08871933 L14.7310168,12.9996175 L21.6416324,19.9112807 C22.1194559,20.3891041 22.1194559,21.163809 21.6416324,21.6416324 Z" fill="#A4A4A4"></path>
  </g>
</svg>