<svg width="20" height="23" viewBox="0 0 20 23" fill="none" xmlns="http://www.w3.org/2000/svg">
<path d="M8.73413 0.22317L0.798141 4.99592C0.555572 5.14165 0.354108 5.35132 0.214004 5.60386C0.0738997 5.85641 9.22209e-05 6.14292 1.50422e-06 6.43459V15.9801C-0.000383592 16.2725 0.0731792 16.5599 0.213289 16.8133C0.353399 17.0668 0.555114 17.2773 0.798141 17.4237L8.73413 22.1915C8.9765 22.3377 9.25161 22.4147 9.53168 22.4147C9.81174 22.4147 10.0869 22.3377 10.3292 22.1915L18.2652 17.4237C18.508 17.2779 18.7095 17.068 18.8496 16.8153C18.9898 16.5625 19.0635 16.2757 19.0633 15.9838V6.43459C19.0635 6.14286 18.9898 5.85626 18.8497 5.60367C18.7095 5.35108 18.5079 5.14145 18.2652 4.99592L10.3292 0.22317C10.0869 0.0769816 9.81174 0 9.53168 0C9.25161 0 8.9765 0.0769816 8.73413 0.22317Z" fill="#00FFB0"/>
<path d="M9.94217 6.59677C9.75435 6.49245 9.53496 6.4682 9.33029 6.52915C9.12563 6.5901 8.9517 6.73148 8.84521 6.92346C8.73871 7.11544 8.70798 7.343 8.7595 7.55812C8.81102 7.77325 8.94075 7.95912 9.12133 8.07651L15.5973 11.9706C15.7219 12.0455 15.8633 12.0848 16.0072 12.0848C16.1511 12.0848 16.2925 12.0454 16.4172 11.9705C16.5418 11.8956 16.6454 11.7879 16.7175 11.6582C16.7896 11.5285 16.8277 11.3813 16.8279 11.2314V7.28997C16.828 7.14011 16.7902 6.99286 16.7182 6.86307C16.6463 6.73329 16.5428 6.62555 16.4181 6.55073L9.94217 2.65661C9.81743 2.58145 9.67587 2.54187 9.53175 2.54187C9.38764 2.54187 9.24608 2.58145 9.12133 2.65661L2.64541 6.55073C2.52089 6.62584 2.41751 6.73374 2.34564 6.8636C2.27377 6.99345 2.23594 7.14071 2.23594 7.2906C2.23594 7.44049 2.27377 7.58774 2.34564 7.7176C2.41751 7.84745 2.52089 7.95535 2.64541 8.03047C2.64541 8.03047 11.8049 13.5798 13.7333 14.7509C14.1025 14.9737 14.1157 15.2823 13.7333 15.5138L9.93501 17.7975C9.81501 17.8807 9.67409 17.925 9.52996 17.925C9.38583 17.925 9.24492 17.8807 9.12492 17.7975L5.06253 15.352L4.16044 14.8094C3.97047 14.6967 3.83127 14.51 3.77346 14.2903C3.71565 14.0707 3.74396 13.8362 3.85218 13.6383C3.9604 13.4404 4.13965 13.2954 4.3505 13.2352C4.56135 13.175 4.78653 13.2045 4.97651 13.3172L7.52744 14.8529V14.8654L9.11655 15.8224C9.3051 15.9358 9.52917 15.9665 9.73946 15.9078C9.94975 15.8491 10.129 15.7058 10.2379 15.5094C10.3467 15.313 10.3762 15.0797 10.3199 14.8606C10.2635 14.6416 10.1259 14.4548 9.93739 14.3415L3.46506 10.4473C3.33985 10.3722 3.19781 10.3328 3.05329 10.3331C2.90878 10.3335 2.76692 10.3736 2.64205 10.4493C2.51717 10.5251 2.41372 10.6339 2.34214 10.7646C2.27056 10.8954 2.23339 11.0435 2.23439 11.194V15.1317C2.23441 15.2816 2.2723 15.4288 2.34423 15.5585C2.41617 15.6883 2.51963 15.796 2.64422 15.871L9.12014 19.7663C9.24508 19.8409 9.38657 19.8801 9.53056 19.8801C9.67455 19.8801 9.81604 19.8409 9.94098 19.7663L16.4169 15.871C16.5416 15.7962 16.6452 15.6885 16.7172 15.5587C16.7892 15.4289 16.8269 15.2816 16.8267 15.1317C16.8308 14.9801 16.7947 14.8302 16.7224 14.6985C16.6501 14.5667 16.5444 14.4583 16.4169 14.385C16.1421 14.2182 7.25741 8.83567 5.32898 7.67204C4.95978 7.44927 4.94663 7.13939 5.32898 6.90791L9.1285 4.62545C9.24838 4.54198 9.38934 4.49742 9.53355 4.49742C9.67775 4.49742 9.81871 4.54198 9.93859 4.62545L13.5493 6.79839L14.9186 7.62102C15.1075 7.73423 15.2454 7.92095 15.3021 8.14011C15.3588 8.35927 15.3296 8.59291 15.2209 8.78963C15.1122 8.98635 14.9329 9.13004 14.7225 9.18909C14.5121 9.24813 14.2878 9.2177 14.099 9.10449L11.5432 7.56875V7.5563L9.94217 6.59677Z" fill="#003340"/>
</svg>
