<?xml version="1.0" encoding="utf-8"?>
<svg version="1.1" id="Layer_1" xmlns="http://www.w3.org/2000/svg" xmlns:xlink="http://www.w3.org/1999/xlink" x="0px" y="0px"
	 viewBox="0 0 151 122" style="enable-background:new 0 0 151 122;" xml:space="preserve">
<style type="text/css">
	.st0{fill:#29CCC4;}
</style>
<g id="Layer_2_1_">
	<g id="Layer_1-2">
		<polygon class="st0" points="90.6,78.5 75.5,69.7 60.4,61 45.3,52.3 30.2,43.6 15.1,34.9 0,43.6 15.1,52.3 30.2,61 45.3,69.7
			60.4,78.5 75.5,87.2 90.6,95.9 75.5,104.6 60.4,95.9 45.3,87.2 30.2,78.5 30.2,95.9 45.3,104.6 60.4,113.3 75.5,122 90.6,113.3
			105.7,104.6 120.8,95.9 105.7,87.2 		"/>
		<polygon class="st0" points="45.3,17.4 30.2,26.2 45.3,34.9 60.4,43.6 75.5,52.3 90.6,61 105.7,69.7 120.8,78.5 135.9,87.2
			151,78.5 135.9,69.7 120.8,61 105.7,52.3 90.6,43.6 75.5,34.9 60.4,26.2 75.5,17.4 90.6,26.2 105.7,34.9 120.8,43.6 120.8,26.2
			105.7,17.4 90.6,8.7 75.5,0 60.4,8.7 		"/>
	</g>
</g>
</svg>
