<svg width="113" height="21" viewBox="0 0 113 21" fill="none" xmlns="http://www.w3.org/2000/svg">
<path d="M10.4157 0.000733778L18.7463 0.000731755C24.5025 0.000731755 29.165 4.66318 29.1619 10.4164C29.1647 16.1699 24.5023 20.8323 18.7463 20.8321H10.4157C4.66217 20.8349 -0.00303916 16.1697 1.4855e-06 10.4164C-0.00275627 4.6629 4.66245 -0.00230686 10.4157 0.000733778ZM10.4157 4.16601C6.96303 4.16601 4.165 6.96404 4.165 10.4167C4.165 13.8694 6.96302 16.6674 10.4157 16.6674H18.7463C22.1989 16.6674 24.9969 13.8694 24.9969 10.4167C24.9969 6.96404 22.1989 4.16602 18.7463 4.16602L10.4157 4.16601Z" fill="url(#paint0_linear)"/>
<path d="M52.0799 0.000818734H60.416C66.1668 0.000818734 70.8291 4.6632 70.8317 10.4165C70.8289 16.17 66.1665 20.8325 60.416 20.8322H52.0799C46.3292 20.8322 41.6668 16.1698 41.6642 10.4165C41.667 4.66299 46.3294 0.000535844 52.0799 0.000818734ZM52.0799 4.1661C48.63 4.16886 45.832 6.96688 45.8292 10.4168C45.832 13.8667 48.63 16.6647 52.0799 16.6675H60.416C63.8659 16.6647 66.6639 13.8667 66.6667 10.4168C66.6639 6.96688 63.8659 4.16886 60.416 4.1661H52.0799Z" fill="url(#paint1_linear)"/>
<path d="M93.7487 7.23549e-09L102.079 1.35593e-06C107.833 -0.0027564 112.498 4.66245 112.495 10.4157C112.498 16.1692 107.832 20.8344 102.079 20.8314L93.7487 20.8314C87.9924 20.8314 83.33 16.1689 83.333 10.4157C83.3303 4.66217 87.9926 -0.000212076 93.7487 7.23549e-09ZM93.7487 4.16528C90.296 4.16528 87.498 6.9633 87.498 10.416C87.498 13.8686 90.296 16.6666 93.7487 16.6666L102.079 16.6666C105.532 16.6666 108.33 13.8686 108.33 10.416C108.33 6.9633 105.532 4.16528 102.079 4.16528L93.7487 4.16528Z" fill="url(#paint2_linear)"/>
<path d="M22.9133 12.4987L47.9138 12.5016C49.0656 12.4988 49.9964 11.568 49.9992 10.4162C49.9964 9.26434 49.0656 8.33351 47.9138 8.33075L22.9133 8.33358C21.7643 8.33358 20.8307 9.26717 20.8307 10.4162C20.8307 11.5653 21.7643 12.4987 22.9133 12.4987Z" fill="url(#paint3_linear)"/>
<path d="M64.5802 12.5015L89.5807 12.4986C90.7297 12.4986 91.6633 11.565 91.6633 10.416C91.6633 9.26693 90.7297 8.33334 89.5807 8.33334L64.5802 8.33051C63.4284 8.33328 62.4976 9.2641 62.4948 10.4159C62.4976 11.5677 63.4284 12.4987 64.5802 12.5015Z" fill="url(#paint4_linear)"/>
<defs>
<linearGradient id="paint0_linear" x1="112.683" y1="10.5176" x2="-0.317383" y2="10.5176" gradientUnits="userSpaceOnUse">
<stop stop-color="white"/>
<stop offset="0.494792" stop-color="#E2FFFF"/>
<stop offset="1" stop-color="#9CFFFF"/>
</linearGradient>
<linearGradient id="paint1_linear" x1="112.683" y1="10.5176" x2="-0.317383" y2="10.5176" gradientUnits="userSpaceOnUse">
<stop stop-color="white"/>
<stop offset="0.494792" stop-color="#E2FFFF"/>
<stop offset="1" stop-color="#9CFFFF"/>
</linearGradient>
<linearGradient id="paint2_linear" x1="112.683" y1="10.5176" x2="-0.317383" y2="10.5176" gradientUnits="userSpaceOnUse">
<stop stop-color="white"/>
<stop offset="0.494792" stop-color="#E2FFFF"/>
<stop offset="1" stop-color="#9CFFFF"/>
</linearGradient>
<linearGradient id="paint3_linear" x1="112.683" y1="10.5176" x2="-0.317383" y2="10.5176" gradientUnits="userSpaceOnUse">
<stop stop-color="white"/>
<stop offset="0.494792" stop-color="#E2FFFF"/>
<stop offset="1" stop-color="#9CFFFF"/>
</linearGradient>
<linearGradient id="paint4_linear" x1="112.683" y1="10.5176" x2="-0.317383" y2="10.5176" gradientUnits="userSpaceOnUse">
<stop stop-color="white"/>
<stop offset="0.494792" stop-color="#E2FFFF"/>
<stop offset="1" stop-color="#9CFFFF"/>
</linearGradient>
</defs>
</svg>
