<svg width="88" height="35" viewBox="0 0 88 35" fill="none" xmlns="http://www.w3.org/2000/svg">
<path d="M27.5842 27.7705C29.4962 27.7705 30.9204 26.0057 30.5165 24.1368L27.4237 9.8253C27.1253 8.44452 25.9041 7.45898 24.4914 7.45898H19.7655C18.8267 7.45898 17.942 7.89847 17.3748 8.64661L6.52524 22.9581C5.02744 24.9338 6.43662 27.7705 8.91591 27.7705H10.414C11.4116 27.7705 12.344 27.2745 12.9016 26.4473L13.2063 25.9953C13.7639 25.168 14.6963 24.6721 15.6939 24.6721H20.6649C21.5771 24.6721 22.3589 25.324 22.523 26.2213V26.2213C22.687 27.1186 23.4688 27.7705 24.381 27.7705H27.5842ZM21.3372 17.9783C21.4586 18.8313 20.7966 19.5942 19.935 19.5942V19.5942C18.7958 19.5942 18.1227 18.3177 18.7664 17.3777V17.3777C19.4962 16.3119 21.1551 16.6994 21.3372 17.9783V17.9783Z" fill="white"/>
<path d="M51.3403 27.7705C53.6615 27.7705 55.1034 25.2475 53.9251 23.2476L53.7708 22.9857C52.745 21.2448 53.8201 19.0444 55.2977 17.666C56.5122 16.533 57.1917 14.9801 57.1917 13.0819C57.1917 9.49587 53.7226 7.45898 48.2359 7.45898H40.3519C38.9411 7.45898 37.7209 8.44196 37.4206 9.82042L34.3029 24.1319C33.8955 26.0021 35.32 27.7705 37.2341 27.7705H38.9677C40.3873 27.7705 41.6126 26.7754 41.9039 25.3859L42.8478 20.8828C42.9141 20.5666 43.193 20.3401 43.5161 20.3401V20.3401C43.7823 20.3401 44.0242 20.4948 44.1359 20.7365L46.5816 26.0289C47.0722 27.0907 48.1352 27.7705 49.3049 27.7705H51.3403ZM45.581 16.1229V16.1229C44.744 16.1229 44.1211 15.3497 44.2992 14.5319L44.4035 14.0528C44.5743 13.2684 45.2686 12.709 46.0714 12.709H46.2182C47.9527 12.709 49.0501 13.0819 49.0501 14.2582C49.0501 15.5491 47.7403 16.1229 45.581 16.1229Z" fill="white"/>
<path d="M77.6584 27.7705C80.1201 27.7705 81.534 24.969 80.0718 22.9886L77.4933 19.4961C76.5651 18.2388 76.7575 16.4796 77.9356 15.4527L81.0703 12.7205C83.1606 10.8985 81.872 7.45898 79.0991 7.45898H78.3498C77.5644 7.45898 76.8103 7.767 76.2495 8.31688L69.214 15.2152C69.202 15.227 69.1858 15.2336 69.169 15.2336V15.2336C69.1279 15.2336 69.0974 15.1956 69.1061 15.1555L69.9926 11.0995C70.4014 9.22873 68.9767 7.45898 67.0617 7.45898H65.2758C63.865 7.45898 62.6448 8.44196 62.3445 9.82042L59.2268 24.1319C58.8194 26.0021 60.244 27.7705 62.1581 27.7705H63.976C65.3895 27.7705 66.6112 26.7838 66.9088 25.4019L68.2306 19.2626C68.2358 19.2385 68.2571 19.2213 68.2817 19.2213V19.2213C68.2995 19.2213 68.3161 19.2303 68.3257 19.2453L72.9116 26.3908C73.4634 27.2506 74.4148 27.7705 75.4364 27.7705H77.6584Z" fill="white"/>
<path d="M32.4114 21.0696L29.8673 9.29724C29.3203 6.7658 27.0813 4.95898 24.4914 4.95898H19.7655C18.0443 4.95898 16.4224 5.76471 15.3826 7.13629L4.53302 21.4478C1.78705 25.0699 4.37056 30.2705 8.91591 30.2705H10.414C12.243 30.2705 13.9523 29.3612 14.9746 27.8446L15.2793 27.3926C15.3722 27.2548 15.5276 27.1721 15.6939 27.1721H20.1859C20.7451 28.9942 22.4355 30.2705 24.381 30.2705H27.5842C29.6965 30.2705 31.484 29.0957 32.4092 27.4122C33.3342 29.0955 35.1215 30.2705 37.2341 30.2705H38.9677C41.2967 30.2705 43.3404 28.8096 44.1271 26.6771L44.3122 27.0776C45.2117 29.0242 47.1605 30.2705 49.3049 30.2705H51.3403C54.165 30.2705 56.2793 28.2326 56.7501 25.79C57.2221 28.2912 59.4161 30.2705 62.1581 30.2705H63.976C66.5674 30.2705 68.8073 28.4615 69.3528 25.9281L69.4259 25.5882L70.8076 27.7411C71.8192 29.3174 73.5634 30.2705 75.4364 30.2705H77.6584C82.1716 30.2705 84.7637 25.1345 82.0831 21.5037L79.5046 18.0112C79.3499 17.8017 79.3819 17.5084 79.5783 17.3373L82.7129 14.6051C86.5452 11.2648 84.1828 4.95898 79.0991 4.95898H78.3498C76.9099 4.95898 75.5274 5.52368 74.4992 6.5318L72.2786 8.70912C71.5553 6.56375 69.5308 4.95898 67.0617 4.95898H65.2758C62.6894 4.95898 60.4524 6.76111 59.9018 9.28829L59.4723 11.2599C58.9976 9.36442 57.7793 7.84316 56.0833 6.7976C53.99 5.50711 51.2348 4.95898 48.2359 4.95898H40.3519C37.7654 4.95898 35.5284 6.76111 34.9779 9.28829L32.4114 21.0696ZM57.003 19.494C57.3263 19.1925 57.6216 18.8708 57.8884 18.5308L56.7841 23.5998C56.7731 23.6506 56.7627 23.7014 56.7531 23.7522C56.6383 23.1517 56.4177 22.5533 56.079 21.9785L55.9247 21.7167C55.8828 21.6455 55.8004 21.4632 55.9581 21.0073C56.1246 20.526 56.5001 19.9632 57.003 19.494ZM46.7695 14.7924C46.7588 14.8122 46.7473 14.8315 46.7351 14.8502C46.6647 14.7354 46.6203 14.6254 46.5926 14.5294C46.5587 14.4121 46.5501 14.3159 46.5501 14.2582C46.5501 14.2245 46.553 14.1838 46.5602 14.1381C46.5867 14.1766 46.611 14.2167 46.6329 14.2582C46.683 14.3532 46.7206 14.4554 46.7435 14.5623C46.7595 14.637 46.7684 14.7139 46.7695 14.7924ZM20.8291 18.7902C20.6056 19.1166 20.2682 19.2649 19.935 19.2625C19.4357 19.2591 18.9457 18.9175 18.8621 18.3307C18.822 18.049 18.8935 17.7802 19.0408 17.5656C19.2348 17.2829 19.5602 17.0942 19.935 17.0942C20.5138 17.0942 20.9354 17.525 21.009 18.025C21.0463 18.2779 20.9945 18.5486 20.8291 18.7902Z" stroke="#00F0FF" stroke-opacity="0.05" stroke-width="5"/>
<path d="M27.5842 27.7705C29.4962 27.7705 30.9204 26.0057 30.5165 24.1368L27.4237 9.8253C27.1253 8.44452 25.9041 7.45898 24.4914 7.45898H19.7655C18.8267 7.45898 17.942 7.89847 17.3748 8.64661L6.52524 22.9581C5.02744 24.9338 6.43662 27.7705 8.91591 27.7705H10.414C11.4116 27.7705 12.344 27.2745 12.9016 26.4473L13.2063 25.9953C13.7639 25.168 14.6963 24.6721 15.6939 24.6721H20.6649C21.5771 24.6721 22.3589 25.324 22.523 26.2213V26.2213C22.687 27.1186 23.4688 27.7705 24.381 27.7705H27.5842ZM21.3372 17.9783C21.4586 18.8313 20.7966 19.5942 19.935 19.5942V19.5942C18.7958 19.5942 18.1227 18.3177 18.7664 17.3777V17.3777C19.4962 16.3119 21.1551 16.6994 21.3372 17.9783V17.9783Z" fill="white"/>
<path d="M51.3403 27.7705C53.6615 27.7705 55.1034 25.2475 53.9251 23.2476L53.7708 22.9857C52.745 21.2448 53.8201 19.0444 55.2977 17.666C56.5122 16.533 57.1917 14.9801 57.1917 13.0819C57.1917 9.49587 53.7226 7.45898 48.2359 7.45898H40.3519C38.9411 7.45898 37.7209 8.44196 37.4206 9.82042L34.3029 24.1319C33.8955 26.0021 35.32 27.7705 37.2341 27.7705H38.9677C40.3873 27.7705 41.6126 26.7754 41.9039 25.3859L42.8478 20.8828C42.9141 20.5666 43.193 20.3401 43.5161 20.3401V20.3401C43.7823 20.3401 44.0242 20.4948 44.1359 20.7365L46.5816 26.0289C47.0722 27.0907 48.1352 27.7705 49.3049 27.7705H51.3403ZM45.581 16.1229V16.1229C44.744 16.1229 44.1211 15.3497 44.2992 14.5319L44.4035 14.0528C44.5743 13.2684 45.2686 12.709 46.0714 12.709H46.2182C47.9527 12.709 49.0501 13.0819 49.0501 14.2582C49.0501 15.5491 47.7403 16.1229 45.581 16.1229Z" fill="white"/>
<path d="M77.6584 27.7705C80.1201 27.7705 81.534 24.969 80.0718 22.9886L77.4933 19.4961C76.5651 18.2388 76.7575 16.4796 77.9356 15.4527L81.0703 12.7205C83.1606 10.8985 81.872 7.45898 79.0991 7.45898H78.3498C77.5644 7.45898 76.8103 7.767 76.2495 8.31688L69.214 15.2152C69.202 15.227 69.1858 15.2336 69.169 15.2336V15.2336C69.1279 15.2336 69.0974 15.1956 69.1061 15.1555L69.9926 11.0995C70.4014 9.22873 68.9767 7.45898 67.0617 7.45898H65.2758C63.865 7.45898 62.6448 8.44196 62.3445 9.82042L59.2268 24.1319C58.8194 26.0021 60.244 27.7705 62.1581 27.7705H63.976C65.3895 27.7705 66.6112 26.7838 66.9088 25.4019L68.2306 19.2626C68.2358 19.2385 68.2571 19.2213 68.2817 19.2213V19.2213C68.2995 19.2213 68.3161 19.2303 68.3257 19.2453L72.9116 26.3908C73.4634 27.2506 74.4148 27.7705 75.4364 27.7705H77.6584Z" fill="white"/>
<path d="M32.4094 23.4277L29.3786 9.40285C28.8813 7.10154 26.8458 5.45898 24.4914 5.45898H19.7655C18.2008 5.45898 16.7263 6.19147 15.7811 7.43836L4.93146 21.7498C2.43513 25.0427 4.78377 29.7705 8.91591 29.7705H10.414C12.0767 29.7705 13.6307 28.9439 14.56 27.5652L14.8647 27.1132C15.0506 26.8374 15.3614 26.6721 15.6939 26.6721H20.5734C20.9466 28.4723 22.534 29.7705 24.381 29.7705H27.5842C29.9305 29.7705 31.8359 28.1761 32.4092 26.0919C32.9824 28.1758 34.8875 29.7705 37.2341 29.7705H38.9677C41.3338 29.7705 43.3759 28.112 43.8614 25.7963L43.9891 25.1867L44.766 26.8679C45.5838 28.6375 47.3555 29.7705 49.3049 29.7705H51.3403C55.209 29.7705 57.6121 25.5654 55.6482 22.2323L55.4939 21.9705C55.3578 21.7394 55.2943 21.3965 55.4855 20.8438C55.6838 20.2708 56.1119 19.6416 56.662 19.1284C58.3091 17.5918 59.1917 15.4964 59.1917 13.0819C59.1917 10.5213 57.8991 8.50445 55.8209 7.22321C53.8357 5.99933 51.1837 5.45898 48.2359 5.45898H40.3519C38.0005 5.45898 35.9669 7.09728 35.4664 9.39471L32.4094 23.4277ZM81.6808 21.8006L79.1023 18.3082C78.7929 17.8891 78.857 17.3027 79.2497 16.9604L82.3844 14.2282C85.8683 11.1915 83.7206 5.45898 79.0991 5.45898H78.3498C77.0408 5.45898 75.784 5.97235 74.8493 6.88881L72.0035 9.67909C71.6343 7.33649 69.6081 5.45898 67.0617 5.45898H65.2758C62.9245 5.45898 60.8909 7.09728 60.3904 9.39471L57.2727 23.7062C56.5936 26.8233 58.9679 29.7705 62.1581 29.7705H63.976C66.3318 29.7705 68.3681 28.126 68.864 25.8229L69.1922 24.2983L71.2284 27.4711C72.1481 28.904 73.7337 29.7705 75.4364 29.7705H77.6584C81.7613 29.7705 84.1178 25.1014 81.6808 21.8006ZM20.4166 18.5077C20.2962 18.6835 20.1145 18.7633 19.935 18.7621C19.666 18.7602 19.4021 18.5763 19.3571 18.2602C19.3355 18.1085 19.374 17.9637 19.4534 17.8481C19.5578 17.6958 19.7331 17.5942 19.935 17.5942C20.2467 17.5942 20.4738 17.8262 20.5135 18.0955C20.5335 18.2318 20.5057 18.3776 20.4166 18.5077Z" stroke="#00F0FF" stroke-opacity="0.1" stroke-width="4"/>
<path d="M27.5842 27.7705C29.4962 27.7705 30.9204 26.0057 30.5165 24.1368L27.4237 9.8253C27.1253 8.44452 25.9041 7.45898 24.4914 7.45898H19.7655C18.8267 7.45898 17.942 7.89847 17.3748 8.64661L6.52524 22.9581C5.02744 24.9338 6.43662 27.7705 8.91591 27.7705H10.414C11.4116 27.7705 12.344 27.2745 12.9016 26.4473L13.2063 25.9953C13.7639 25.168 14.6963 24.6721 15.6939 24.6721H20.6649C21.5771 24.6721 22.3589 25.324 22.523 26.2213V26.2213C22.687 27.1186 23.4688 27.7705 24.381 27.7705H27.5842ZM21.3372 17.9783C21.4586 18.8313 20.7966 19.5942 19.935 19.5942V19.5942C18.7958 19.5942 18.1227 18.3177 18.7664 17.3777V17.3777C19.4962 16.3119 21.1551 16.6994 21.3372 17.9783V17.9783Z" fill="white"/>
<path d="M51.3403 27.7705C53.6615 27.7705 55.1034 25.2475 53.9251 23.2476L53.7708 22.9857C52.745 21.2448 53.8201 19.0444 55.2977 17.666C56.5122 16.533 57.1917 14.9801 57.1917 13.0819C57.1917 9.49587 53.7226 7.45898 48.2359 7.45898H40.3519C38.9411 7.45898 37.7209 8.44196 37.4206 9.82042L34.3029 24.1319C33.8955 26.0021 35.32 27.7705 37.2341 27.7705H38.9677C40.3873 27.7705 41.6126 26.7754 41.9039 25.3859L42.8478 20.8828C42.9141 20.5666 43.193 20.3401 43.5161 20.3401V20.3401C43.7823 20.3401 44.0242 20.4948 44.1359 20.7365L46.5816 26.0289C47.0722 27.0907 48.1352 27.7705 49.3049 27.7705H51.3403ZM45.581 16.1229V16.1229C44.744 16.1229 44.1211 15.3497 44.2992 14.5319L44.4035 14.0528C44.5743 13.2684 45.2686 12.709 46.0714 12.709H46.2182C47.9527 12.709 49.0501 13.0819 49.0501 14.2582C49.0501 15.5491 47.7403 16.1229 45.581 16.1229Z" fill="white"/>
<path d="M77.6584 27.7705C80.1201 27.7705 81.534 24.969 80.0718 22.9886L77.4933 19.4961C76.5651 18.2388 76.7575 16.4796 77.9356 15.4527L81.0703 12.7205C83.1606 10.8985 81.872 7.45898 79.0991 7.45898H78.3498C77.5644 7.45898 76.8103 7.767 76.2495 8.31688L69.214 15.2152C69.202 15.227 69.1858 15.2336 69.169 15.2336V15.2336C69.1279 15.2336 69.0974 15.1956 69.1061 15.1555L69.9926 11.0995C70.4014 9.22873 68.9767 7.45898 67.0617 7.45898H65.2758C63.865 7.45898 62.6448 8.44196 62.3445 9.82042L59.2268 24.1319C58.8194 26.0021 60.244 27.7705 62.1581 27.7705H63.976C65.3895 27.7705 66.6112 26.7838 66.9088 25.4019L68.2306 19.2626C68.2358 19.2385 68.2571 19.2213 68.2817 19.2213V19.2213C68.2995 19.2213 68.3161 19.2303 68.3257 19.2453L72.9116 26.3908C73.4634 27.2506 74.4148 27.7705 75.4364 27.7705H77.6584Z" fill="white"/>
<path d="M31.9826 23.8199L28.8899 9.50846C28.4423 7.43729 26.6104 5.95898 24.4914 5.95898H19.7655C18.3573 5.95898 17.0303 6.61822 16.1795 7.74042L5.32991 22.0519C3.08321 25.0155 5.19698 29.2705 8.91591 29.2705H10.414C11.9104 29.2705 13.309 28.5266 14.1454 27.2857L14.4501 26.8337C14.7289 26.4201 15.1951 26.1721 15.6939 26.1721H20.6649C20.8527 26.1721 21.0137 26.3063 21.0474 26.491C21.3417 28.1009 22.7444 29.2705 24.381 29.2705H27.5842C30.4523 29.2705 32.5885 26.6233 31.9826 23.8199ZM55.2174 22.4861L55.0632 22.2243C54.8328 21.8334 54.7883 21.3299 55.013 20.6804C55.2431 20.0155 55.7236 19.32 56.3209 18.7628C57.8599 17.3271 58.6917 15.3673 58.6917 13.0819C58.6917 10.7132 57.5055 8.84913 55.5585 7.64883C53.6813 6.49155 51.1326 5.95898 48.2359 5.95898H40.3519C38.2357 5.95898 36.4054 7.43345 35.955 9.50114L32.8373 23.8126C32.2261 26.618 34.363 29.2705 37.2341 29.2705H38.9677C41.0972 29.2705 42.9351 27.7778 43.372 25.6937L43.8096 23.6061L45.2199 26.6581C45.9559 28.2508 47.5504 29.2705 49.3049 29.2705H51.3403C54.8221 29.2705 56.9849 25.4859 55.2174 22.4861ZM47.4435 14.3386C47.1822 14.4719 46.6665 14.6002 45.8151 14.6202L45.8691 14.3719C45.8899 14.2768 45.974 14.209 46.0714 14.209H46.2182C46.603 14.209 46.9161 14.23 47.1644 14.2682C47.2881 14.2872 47.3852 14.309 47.4599 14.33C47.4546 14.3328 47.4492 14.3357 47.4435 14.3386ZM81.2786 22.0976L78.7001 18.6052C78.2359 17.9765 78.3322 17.0969 78.9212 16.5835L82.0558 13.8513C85.1914 11.1183 83.2585 5.95898 79.0991 5.95898H78.3498C77.1717 5.95898 76.0406 6.42101 75.1993 7.24583L71.5476 10.8263C71.7646 8.25067 69.7306 5.95898 67.0617 5.95898H65.2758C63.1596 5.95898 61.3294 7.43345 60.8789 9.50114L57.7612 23.8126C57.1501 26.618 59.2869 29.2705 62.1581 29.2705H63.976C66.0962 29.2705 67.9289 27.7904 68.3752 25.7176L68.9585 23.0084L71.6492 27.201C72.4769 28.4906 73.904 29.2705 75.4364 29.2705H77.6584C81.351 29.2705 83.4719 25.0683 81.2786 22.0976ZM20.0046 18.224C20.0044 18.2243 20.0041 18.2246 20.0037 18.225C20.0019 18.2269 19.9986 18.2301 19.9936 18.2339C19.9826 18.2423 19.9696 18.2494 19.9566 18.2541C19.948 18.2571 19.9408 18.2588 19.935 18.2596C19.9239 18.2611 19.9176 18.2598 19.9159 18.2594C19.9134 18.2588 19.9 18.2553 19.8819 18.2366C19.8722 18.2266 19.8637 18.2145 19.8576 18.2022C19.8549 18.1965 19.8533 18.1922 19.8525 18.1897C19.8522 18.1887 19.852 18.1881 19.8519 18.1877C19.8494 18.1667 19.8549 18.1467 19.8659 18.1306C19.8809 18.1088 19.906 18.0942 19.935 18.0942L19.9348 18.0942C19.9348 18.0942 19.9349 18.0942 19.935 18.0942C19.936 18.0943 19.9417 18.0948 19.9507 18.0974C19.9612 18.1004 19.9717 18.1052 19.9809 18.111C19.9985 18.1221 20.0059 18.1331 20.009 18.1389C20.0114 18.1435 20.0151 18.1524 20.016 18.1664C20.0162 18.1699 20.0163 18.1737 20.0161 18.1778C20.0157 18.1887 20.0137 18.2 20.0103 18.2105C20.008 18.2174 20.0058 18.222 20.0046 18.224Z" stroke="#00F0FF" stroke-opacity="0.1" stroke-width="3"/>
<path d="M27.5842 27.7705C29.4962 27.7705 30.9204 26.0057 30.5165 24.1368L27.4237 9.8253C27.1253 8.44452 25.9041 7.45898 24.4914 7.45898H19.7655C18.8267 7.45898 17.942 7.89847 17.3748 8.64661L6.52524 22.9581C5.02744 24.9338 6.43662 27.7705 8.91591 27.7705H10.414C11.4116 27.7705 12.344 27.2745 12.9016 26.4473L13.2063 25.9953C13.7639 25.168 14.6963 24.6721 15.6939 24.6721H20.6649C21.5771 24.6721 22.3589 25.324 22.523 26.2213V26.2213C22.687 27.1186 23.4688 27.7705 24.381 27.7705H27.5842ZM21.3372 17.9783C21.4586 18.8313 20.7966 19.5942 19.935 19.5942V19.5942C18.7958 19.5942 18.1227 18.3177 18.7664 17.3777V17.3777C19.4962 16.3119 21.1551 16.6994 21.3372 17.9783V17.9783Z" fill="white"/>
<path d="M51.3403 27.7705C53.6615 27.7705 55.1034 25.2475 53.9251 23.2476L53.7708 22.9857C52.745 21.2448 53.8201 19.0444 55.2977 17.666C56.5122 16.533 57.1917 14.9801 57.1917 13.0819C57.1917 9.49587 53.7226 7.45898 48.2359 7.45898H40.3519C38.9411 7.45898 37.7209 8.44196 37.4206 9.82042L34.3029 24.1319C33.8955 26.0021 35.32 27.7705 37.2341 27.7705H38.9677C40.3873 27.7705 41.6126 26.7754 41.9039 25.3859L42.8478 20.8828C42.9141 20.5666 43.193 20.3401 43.5161 20.3401V20.3401C43.7823 20.3401 44.0242 20.4948 44.1359 20.7365L46.5816 26.0289C47.0722 27.0907 48.1352 27.7705 49.3049 27.7705H51.3403ZM45.581 16.1229V16.1229C44.744 16.1229 44.1211 15.3497 44.2992 14.5319L44.4035 14.0528C44.5743 13.2684 45.2686 12.709 46.0714 12.709H46.2182C47.9527 12.709 49.0501 13.0819 49.0501 14.2582C49.0501 15.5491 47.7403 16.1229 45.581 16.1229Z" fill="white"/>
<path d="M77.6584 27.7705C80.1201 27.7705 81.534 24.969 80.0718 22.9886L77.4933 19.4961C76.5651 18.2388 76.7575 16.4796 77.9356 15.4527L81.0703 12.7205C83.1606 10.8985 81.872 7.45898 79.0991 7.45898H78.3498C77.5644 7.45898 76.8103 7.767 76.2495 8.31688L69.214 15.2152C69.202 15.227 69.1858 15.2336 69.169 15.2336V15.2336C69.1279 15.2336 69.0974 15.1956 69.1061 15.1555L69.9926 11.0995C70.4014 9.22873 68.9767 7.45898 67.0617 7.45898H65.2758C63.865 7.45898 62.6448 8.44196 62.3445 9.82042L59.2268 24.1319C58.8194 26.0021 60.244 27.7705 62.1581 27.7705H63.976C65.3895 27.7705 66.6112 26.7838 66.9088 25.4019L68.2306 19.2626C68.2358 19.2385 68.2571 19.2213 68.2817 19.2213V19.2213C68.2995 19.2213 68.3161 19.2303 68.3257 19.2453L72.9116 26.3908C73.4634 27.2506 74.4148 27.7705 75.4364 27.7705H77.6584Z" fill="white"/>
<path d="M31.4939 23.9255L28.4012 9.61408C28.0033 7.77303 26.375 6.45898 24.4914 6.45898H19.7655C18.5138 6.45898 17.3342 7.04497 16.578 8.04248L5.72835 22.354C3.73129 24.9882 5.6102 28.7705 8.91591 28.7705H10.414C11.7442 28.7705 12.9873 28.1092 13.7308 27.0062L14.0355 26.5542C14.4072 26.0027 15.0288 25.6721 15.6939 25.6721H20.6649C21.0942 25.6721 21.4621 25.9789 21.5393 26.4011C21.7901 27.7735 22.9859 28.7705 24.381 28.7705H27.5842C30.1336 28.7705 32.0324 26.4174 31.4939 23.9255ZM54.7866 22.7399L54.6324 22.4781C54.3079 21.9273 54.2823 21.2632 54.5405 20.5169C54.8023 19.7603 55.3354 18.9984 55.9798 18.3972C57.4106 17.0624 58.1917 15.2383 58.1917 13.0819C58.1917 10.9051 57.1118 9.19381 55.2961 8.07445C53.5269 6.98377 51.0815 6.45898 48.2359 6.45898H40.3519C38.4708 6.45898 36.8439 7.76962 36.4435 9.60757L33.3258 23.919C32.7826 26.4127 34.682 28.7705 37.2341 28.7705H38.9677C40.8606 28.7705 42.4943 27.4437 42.8826 25.5911L43.63 22.0256L45.6738 26.4484C46.328 27.8641 47.7453 28.7705 49.3049 28.7705H51.3403C54.4353 28.7705 56.3577 25.4064 54.7866 22.7399ZM45.2763 14.7446L45.3806 14.2655C45.4513 13.9407 45.7389 13.709 46.0714 13.709H46.2182C47.0521 13.709 47.5679 13.8051 47.8452 13.9408C47.9653 13.9995 48.0016 14.0472 48.0126 14.0641C48.0213 14.0776 48.0501 14.1253 48.0501 14.2582C48.0501 14.4031 48.0162 14.4844 47.979 14.5404C47.9375 14.6028 47.8523 14.6913 47.6708 14.7839C47.2821 14.9823 46.6024 15.1229 45.581 15.1229C45.382 15.1229 45.2339 14.9391 45.2763 14.7446ZM80.8763 22.3946L78.2978 18.9021C77.679 18.064 77.8073 16.8911 78.5927 16.2065L81.7273 13.4743C84.5144 11.045 82.7963 6.45898 79.0991 6.45898H78.3498C77.3026 6.45898 76.2971 6.86967 75.5494 7.60285L70.7524 12.3063L70.9695 11.313C71.5146 8.81864 69.615 6.45898 67.0617 6.45898H65.2758C63.3948 6.45898 61.7679 7.76962 61.3675 9.60757L58.2498 23.919C57.7065 26.4127 59.6059 28.7705 62.1581 28.7705H63.976C65.8607 28.7705 67.4897 27.4549 67.8864 25.6124L68.7248 21.7185L72.07 26.9309C72.8057 28.0773 74.0742 28.7705 75.4364 28.7705H77.6584C80.9407 28.7705 82.8259 25.0352 80.8763 22.3946ZM19.5915 17.9427C19.806 17.6294 20.2936 17.7433 20.3471 18.1192C20.3828 18.37 20.1882 18.5942 19.935 18.5942C19.6001 18.5942 19.4023 18.219 19.5915 17.9427Z" stroke="#00F0FF" stroke-opacity="0.1" stroke-width="2"/>
<path d="M27.5842 27.7705C29.4962 27.7705 30.9204 26.0057 30.5165 24.1368L27.4237 9.8253C27.1253 8.44452 25.9041 7.45898 24.4914 7.45898H19.7655C18.8267 7.45898 17.942 7.89847 17.3748 8.64661L6.52524 22.9581C5.02744 24.9338 6.43662 27.7705 8.91591 27.7705H10.414C11.4116 27.7705 12.344 27.2745 12.9016 26.4473L13.2063 25.9953C13.7639 25.168 14.6963 24.6721 15.6939 24.6721H20.6649C21.5771 24.6721 22.3589 25.324 22.523 26.2213V26.2213C22.687 27.1186 23.4688 27.7705 24.381 27.7705H27.5842ZM21.3372 17.9783C21.4586 18.8313 20.7966 19.5942 19.935 19.5942V19.5942C18.7958 19.5942 18.1227 18.3177 18.7664 17.3777V17.3777C19.4962 16.3119 21.1551 16.6994 21.3372 17.9783V17.9783Z" fill="white"/>
<path d="M51.3403 27.7705C53.6615 27.7705 55.1034 25.2475 53.9251 23.2476L53.7708 22.9857C52.745 21.2448 53.8201 19.0444 55.2977 17.666C56.5122 16.533 57.1917 14.9801 57.1917 13.0819C57.1917 9.49587 53.7226 7.45898 48.2359 7.45898H40.3519C38.9411 7.45898 37.7209 8.44196 37.4206 9.82042L34.3029 24.1319C33.8955 26.0021 35.32 27.7705 37.2341 27.7705H38.9677C40.3873 27.7705 41.6126 26.7754 41.9039 25.3859L42.8478 20.8828C42.9141 20.5666 43.193 20.3401 43.5161 20.3401V20.3401C43.7823 20.3401 44.0242 20.4948 44.1359 20.7365L46.5816 26.0289C47.0722 27.0907 48.1352 27.7705 49.3049 27.7705H51.3403ZM45.581 16.1229V16.1229C44.744 16.1229 44.1211 15.3497 44.2992 14.5319L44.4035 14.0528C44.5743 13.2684 45.2686 12.709 46.0714 12.709H46.2182C47.9527 12.709 49.0501 13.0819 49.0501 14.2582C49.0501 15.5491 47.7403 16.1229 45.581 16.1229Z" fill="white"/>
<path d="M77.6584 27.7705C80.1201 27.7705 81.534 24.969 80.0718 22.9886L77.4933 19.4961C76.5651 18.2388 76.7575 16.4796 77.9356 15.4527L81.0703 12.7205C83.1606 10.8985 81.872 7.45898 79.0991 7.45898H78.3498C77.5644 7.45898 76.8103 7.767 76.2495 8.31688L69.214 15.2152C69.202 15.227 69.1858 15.2336 69.169 15.2336V15.2336C69.1279 15.2336 69.0974 15.1956 69.1061 15.1555L69.9926 11.0995C70.4014 9.22873 68.9767 7.45898 67.0617 7.45898H65.2758C63.865 7.45898 62.6448 8.44196 62.3445 9.82042L59.2268 24.1319C58.8194 26.0021 60.244 27.7705 62.1581 27.7705H63.976C65.3895 27.7705 66.6112 26.7838 66.9088 25.4019L68.2306 19.2626C68.2358 19.2385 68.2571 19.2213 68.2817 19.2213V19.2213C68.2995 19.2213 68.3161 19.2303 68.3257 19.2453L72.9116 26.3908C73.4634 27.2506 74.4148 27.7705 75.4364 27.7705H77.6584Z" fill="white"/>
<path d="M31.0052 24.0312L27.9124 9.71969C27.5643 8.10878 26.1395 6.95898 24.4914 6.95898H19.7655C18.6702 6.95898 17.6381 7.47172 16.9764 8.34454L6.12679 22.656C4.37936 24.961 6.02341 28.2705 8.91591 28.2705H10.414C11.5779 28.2705 12.6657 27.6919 13.3162 26.7267L13.6209 26.2747C14.0856 25.5854 14.8625 25.1721 15.6939 25.1721H20.6649C21.3356 25.1721 21.9105 25.6514 22.0311 26.3112C22.2386 27.446 23.2274 28.2705 24.381 28.2705H27.5842C29.8149 28.2705 31.4764 26.2116 31.0052 24.0312ZM54.3559 22.9938L54.2016 22.7319C53.7829 22.0213 53.7763 21.1966 54.068 20.3534C54.3615 19.5051 54.9471 18.6768 55.6388 18.0316C56.9614 16.7977 57.6917 15.1092 57.6917 13.0819C57.6917 11.097 56.7181 9.53849 55.0337 8.50007C53.3726 7.47599 51.0304 6.95898 48.2359 6.95898H40.3519C38.7059 6.95898 37.2824 8.10579 36.9321 9.71399L33.8144 24.0255C33.339 26.2074 35.001 28.2705 37.2341 28.2705H38.9677C40.624 28.2705 42.0535 27.1095 42.3933 25.4885L43.3372 20.9854C43.3549 20.9008 43.4296 20.8401 43.5161 20.8401C43.5874 20.8401 43.6521 20.8816 43.682 20.9462L46.1277 26.2387C46.7001 27.4774 47.9403 28.2705 49.3049 28.2705H51.3403C54.0484 28.2705 55.7305 25.327 54.3559 22.9938ZM44.7877 14.6383L44.892 14.1592C45.0128 13.6045 45.5037 13.209 46.0714 13.209H46.2182C47.0688 13.209 47.6807 13.3037 48.0649 13.4916C48.2477 13.5811 48.3616 13.6834 48.432 13.792C48.5014 13.8989 48.5501 14.0447 48.5501 14.2582C48.5501 14.492 48.4922 14.6716 48.3954 14.8173C48.2963 14.9661 48.1381 15.1068 47.898 15.2293C47.405 15.4809 46.6315 15.6229 45.581 15.6229C45.063 15.6229 44.6775 15.1444 44.7877 14.6383ZM80.4741 22.6916L77.8956 19.1991C77.122 18.1514 77.2824 16.6853 78.2642 15.8296L81.3988 13.0974C83.8375 10.9718 82.3342 6.95898 79.0991 6.95898H78.3498C77.4335 6.95898 76.5537 7.31834 75.8995 7.95987L69.9063 13.8362L70.481 11.2063C70.958 9.02368 69.2958 6.95898 67.0617 6.95898H65.2758C63.6299 6.95898 62.2063 8.10579 61.856 9.71399L58.7383 24.0255C58.263 26.2074 59.925 28.2705 62.1581 28.2705H63.976C65.6251 28.2705 67.0505 27.1193 67.3976 25.5072L68.491 20.4286L72.4908 26.6609C73.1346 27.6639 74.2445 28.2705 75.4364 28.2705H77.6584C80.5304 28.2705 82.18 25.0021 80.4741 22.6916ZM19.1789 17.6602C19.6511 16.9706 20.7243 17.2214 20.8421 18.0488C20.9207 18.6006 20.4924 19.0942 19.935 19.0942C19.198 19.0942 18.7625 18.2683 19.1789 17.6602Z" stroke="#00F0FF" stroke-opacity="0.1"/>
</svg>
