<?xml version="1.0" standalone="no"?>
<!DOCTYPE svg PUBLIC "-//W3C//DTD SVG 20010904//EN"
 "http://www.w3.org/TR/2001/REC-SVG-20010904/DTD/svg10.dtd">
<svg version="1.0" xmlns="http://www.w3.org/2000/svg"
 width="1208.000000pt" height="1208.000000pt" viewBox="0 0 1208.000000 1208.000000"
 preserveAspectRatio="xMidYMid meet">
<metadata>
Created by potrace 1.11, written by Peter Selinger 2001-2013
</metadata>
<g transform="translate(0.000000,1208.000000) scale(0.100000,-0.100000)"
fill="#000000" stroke="none">
<path d="M5952 10870 c-46 -28 -88 -50 -93 -50 -5 0 -9 -5 -9 -11 0 -5 -4 -7
-10 -4 -5 3 -10 1 -10 -4 0 -6 -6 -11 -12 -12 -7 0 -33 -14 -58 -30 -25 -15
-62 -36 -82 -46 -21 -10 -38 -21 -38 -25 0 -5 -4 -8 -9 -8 -7 0 -205 -110
-251 -140 -8 -5 -51 -30 -95 -55 -44 -25 -100 -57 -125 -71 -25 -15 -58 -35
-75 -44 -16 -9 -50 -29 -75 -44 -25 -15 -57 -32 -72 -39 -16 -6 -28 -15 -28
-19 0 -4 -4 -8 -9 -8 -4 0 -59 -29 -120 -65 -62 -36 -116 -65 -121 -65 -4 0
-10 -4 -12 -9 -1 -5 -20 -17 -40 -27 -33 -17 -177 -100 -307 -176 -25 -15 -59
-34 -76 -43 -16 -8 -48 -26 -70 -40 -22 -14 -47 -28 -55 -32 -8 -3 -32 -17
-53 -31 -22 -13 -60 -35 -85 -49 -26 -15 -60 -34 -77 -44 -101 -59 -210 -119
-217 -119 -4 0 -8 -4 -8 -9 0 -5 -8 -11 -17 -14 -10 -3 -40 -20 -68 -36 -27
-17 -68 -40 -90 -53 -22 -12 -48 -27 -57 -33 -9 -5 -45 -26 -80 -46 -35 -20
-135 -79 -223 -131 -88 -52 -167 -97 -175 -101 -17 -9 -22 -12 -133 -79 -43
-27 -80 -48 -82 -48 -2 0 -56 -31 -121 -70 -64 -38 -118 -70 -120 -70 -1 0
-19 -9 -38 -21 -28 -16 -33 -23 -23 -34 7 -7 15 -11 19 -8 5 2 8 0 8 -6 0 -6
11 -13 25 -17 14 -3 25 -10 25 -14 0 -4 8 -10 18 -13 18 -7 47 -23 178 -99 44
-27 86 -48 92 -48 7 0 12 -4 12 -10 0 -5 7 -10 15 -10 8 0 15 -3 15 -7 0 -5
19 -17 43 -28 23 -11 48 -26 55 -32 7 -7 20 -13 28 -13 8 0 14 -4 14 -10 0 -5
4 -10 10 -10 5 0 47 -22 94 -50 47 -27 89 -50 95 -50 6 0 11 -4 11 -9 0 -5 8
-11 18 -14 17 -6 72 -37 82 -47 3 -3 19 -12 35 -20 17 -8 54 -29 83 -47 29
-18 58 -34 65 -36 7 -1 14 -5 17 -8 3 -3 65 -41 139 -84 139 -80 155 -89 256
-145 33 -19 62 -36 65 -39 5 -5 39 -25 124 -70 17 -9 35 -20 40 -24 23 -16
126 -75 155 -88 17 -8 31 -17 31 -21 0 -5 6 -8 14 -8 7 0 19 -7 26 -15 7 -8
16 -12 21 -9 5 3 9 0 9 -5 0 -6 4 -11 10 -11 5 0 39 -18 75 -40 36 -22 68 -40
70 -40 3 0 22 -11 43 -24 20 -13 116 -69 212 -124 96 -55 191 -109 210 -121
19 -11 69 -39 110 -62 41 -24 93 -54 115 -68 22 -14 42 -26 45 -26 5 0 98 -54
210 -120 30 -18 72 -42 93 -54 53 -30 90 -52 192 -111 90 -52 139 -80 205
-116 19 -10 37 -22 38 -26 2 -5 8 -8 13 -8 5 0 65 -33 134 -74 69 -41 125 -72
125 -68 0 4 4 2 8 -4 4 -6 32 -24 62 -41 30 -16 79 -44 108 -62 29 -17 57 -31
62 -31 6 0 10 -4 10 -10 0 -5 5 -10 11 -10 6 0 49 -23 96 -51 113 -68 184
-108 206 -115 9 -4 17 -10 17 -15 0 -5 6 -9 14 -9 8 0 21 -6 28 -12 7 -7 31
-23 53 -34 22 -12 65 -36 95 -53 30 -18 75 -44 100 -58 25 -14 88 -51 140 -82
52 -30 98 -55 103 -53 4 1 7 -3 7 -8 0 -6 7 -10 15 -10 8 0 15 -4 15 -8 0 -4
16 -14 35 -21 19 -7 35 -17 35 -22 0 -5 5 -9 11 -9 6 0 49 -22 96 -50 47 -28
89 -50 94 -50 5 0 9 -4 9 -10 0 -5 4 -10 10 -10 8 0 120 -62 180 -100 8 -5 38
-21 65 -36 28 -15 52 -29 55 -33 3 -3 19 -13 35 -21 17 -8 80 -45 142 -81 62
-37 114 -64 117 -61 4 3 6 1 6 -5 0 -5 21 -20 48 -33 26 -13 58 -31 72 -40 14
-9 46 -29 71 -43 25 -13 94 -53 153 -88 59 -35 123 -73 144 -84 20 -11 66 -38
102 -59 36 -21 85 -50 110 -64 25 -13 52 -31 61 -38 8 -8 18 -14 22 -14 3 0
30 -14 59 -31 63 -38 108 -63 168 -97 25 -13 52 -30 60 -36 8 -6 26 -17 39
-24 13 -8 40 -23 60 -34 20 -12 56 -32 81 -46 25 -14 48 -29 51 -34 3 -6 10
-9 15 -9 5 1 17 -6 27 -14 9 -8 17 -13 17 -10 0 2 35 -17 78 -42 96 -57 132
-78 202 -116 30 -16 61 -34 68 -40 19 -15 95 -57 115 -64 9 -3 17 -9 17 -14 0
-5 4 -9 10 -9 8 0 130 -67 180 -100 8 -5 31 -17 50 -27 19 -10 54 -30 76 -45
23 -15 45 -28 48 -28 3 0 35 -18 71 -40 36 -22 70 -40 75 -40 6 0 10 -5 10
-12 0 -6 3 -8 7 -5 3 4 13 1 22 -6 29 -24 159 -97 173 -97 8 0 34 12 59 28 24
15 65 39 92 52 26 14 47 28 47 32 0 5 6 8 14 8 7 0 25 9 39 20 15 12 30 21 34
22 4 0 17 6 28 13 21 13 214 124 277 159 31 18 150 87 376 218 26 15 58 33 72
41 139 77 160 90 160 100 0 4 -10 12 -22 17 -22 10 -35 17 -88 51 -14 9 -52
31 -85 49 -33 18 -63 37 -66 42 -3 5 -9 9 -13 9 -3 -1 -31 14 -62 31 -116 68
-149 88 -164 94 -14 7 -92 53 -136 81 -10 7 -39 24 -64 38 -45 25 -56 32 -165
96 -33 19 -67 38 -75 42 -8 4 -27 15 -42 25 -47 31 -120 72 -128 72 -4 0 -13
7 -20 15 -7 8 -16 13 -20 10 -5 -3 -10 -2 -12 3 -1 4 -49 34 -106 66 -56 32
-105 62 -108 67 -3 5 -10 7 -15 4 -5 -4 -9 -2 -9 3 0 5 -8 12 -17 15 -10 3
-40 20 -68 36 -27 17 -57 34 -65 38 -8 3 -17 9 -20 12 -3 3 -21 14 -40 24 -68
35 -95 50 -100 56 -6 7 -62 38 -107 60 -18 8 -33 19 -33 23 0 4 -6 8 -14 8 -8
0 -21 6 -28 13 -7 7 -24 18 -38 24 -29 15 -84 46 -155 88 -28 16 -63 38 -80
47 -16 10 -54 30 -82 44 -29 15 -53 30 -53 35 0 5 -5 9 -11 9 -6 0 -64 31
-129 70 -65 38 -123 70 -129 70 -6 0 -11 5 -11 10 0 6 -4 10 -9 10 -13 0 -155
82 -159 92 -2 4 -8 8 -13 8 -13 0 -172 92 -181 105 -4 5 -8 6 -8 2 0 -4 -20 6
-44 23 -25 16 -47 30 -50 30 -3 0 -40 20 -82 45 -41 25 -80 45 -85 45 -5 0 -9
4 -9 8 0 5 -16 14 -35 22 -19 8 -35 18 -35 22 0 5 -4 6 -10 3 -5 -3 -10 -1
-10 4 0 6 -7 11 -15 11 -8 0 -15 3 -15 8 0 4 -15 13 -32 21 -18 8 -52 27 -75
43 -24 16 -43 26 -43 22 0 -4 -8 0 -17 8 -10 8 -38 26 -63 39 -25 13 -47 26
-50 29 -3 3 -18 12 -35 20 -16 8 -32 17 -35 20 -3 3 -14 10 -25 16 -43 24
-502 288 -530 305 -16 11 -37 22 -45 26 -8 4 -46 26 -85 48 -84 50 -151 88
-225 129 -30 16 -56 33 -58 38 -2 4 -8 8 -12 8 -5 0 -59 29 -121 65 -61 36
-113 65 -115 65 -3 0 -23 11 -45 26 -22 14 -56 34 -75 45 -78 44 -111 63 -139
80 -16 10 -39 23 -50 29 -11 5 -42 23 -70 40 -27 16 -61 35 -75 42 -14 7 -27
15 -30 18 -3 3 -16 11 -30 18 -14 7 -43 23 -65 37 -22 14 -47 28 -55 32 -8 4
-44 24 -79 46 -35 21 -74 43 -85 48 -22 9 -57 30 -66 39 -3 3 -23 14 -45 26
-22 11 -80 44 -129 72 -49 29 -93 52 -97 52 -5 0 -9 5 -9 10 0 6 -6 10 -14 10
-7 0 -19 7 -26 15 -7 8 -16 12 -21 9 -5 -3 -9 0 -9 5 0 6 -5 11 -10 11 -6 0
-39 17 -73 38 -35 21 -70 41 -77 45 -8 4 -32 17 -52 30 -21 12 -61 35 -90 51
-29 16 -56 33 -59 38 -3 5 -8 8 -10 7 -4 -3 -98 50 -202 112 -26 16 -52 29
-57 29 -6 0 -10 5 -10 12 0 6 -3 8 -6 5 -4 -4 -19 2 -33 12 -29 21 -123 76
-161 94 -14 6 -27 14 -30 18 -3 3 -25 16 -50 30 -25 13 -46 27 -48 32 -2 4 -8
7 -14 7 -5 0 -22 9 -38 20 -15 11 -30 17 -33 13 -4 -3 -9 2 -13 11 -3 9 -10
14 -14 11 -4 -3 -13 2 -19 9 -10 12 1 22 61 57 40 23 84 50 98 59 14 9 35 20
48 24 12 4 22 11 22 15 0 4 16 13 35 21 19 8 35 17 35 21 0 4 12 12 28 18 15
6 45 22 67 36 22 14 51 30 65 37 14 7 30 16 35 21 20 16 338 197 347 197 4 0
8 4 8 9 0 5 8 11 18 14 22 7 75 39 83 50 3 5 8 7 10 6 2 -1 55 27 116 64 l113
67 52 -32 c29 -17 67 -39 83 -48 87 -50 111 -65 117 -75 4 -5 8 -6 8 -1 0 5 6
4 13 -2 21 -17 359 -212 368 -212 5 0 9 -4 9 -10 0 -5 4 -10 9 -10 10 0 189
-103 209 -120 6 -6 12 -8 12 -4 0 4 8 0 18 -8 9 -9 33 -24 52 -33 19 -10 37
-21 40 -24 3 -3 23 -15 45 -26 22 -11 42 -22 45 -25 6 -6 40 -26 110 -64 30
-16 57 -32 60 -35 3 -4 30 -19 60 -35 30 -16 62 -34 70 -41 8 -7 44 -27 80
-46 36 -19 71 -39 78 -46 7 -7 24 -16 38 -19 13 -3 24 -10 24 -14 0 -5 10 -12
23 -16 12 -3 29 -12 37 -19 8 -7 40 -26 70 -42 99 -55 415 -237 420 -242 3 -3
28 -17 55 -31 28 -14 52 -27 55 -30 10 -10 65 -41 83 -47 9 -3 17 -9 17 -14 0
-5 5 -9 11 -9 9 0 102 -52 179 -100 8 -5 39 -22 68 -37 28 -15 52 -31 52 -36
0 -4 5 -5 10 -2 6 3 10 1 10 -6 0 -7 3 -10 6 -6 4 3 26 -7 50 -23 23 -17 45
-30 48 -30 3 0 35 -18 71 -40 36 -22 70 -40 75 -40 6 0 10 -5 10 -12 0 -6 3
-8 7 -5 3 4 13 1 22 -6 9 -8 36 -25 61 -38 25 -13 47 -26 50 -29 3 -3 19 -12
35 -20 17 -8 49 -27 72 -42 23 -15 44 -28 46 -28 3 0 38 -19 79 -43 72 -43
122 -72 216 -123 26 -15 55 -33 65 -42 9 -8 18 -13 18 -11 4 14 3 1382 -1
1389 -7 11 -138 90 -149 90 -5 0 -11 3 -13 8 -4 9 -147 92 -159 92 -5 0 -9 4
-9 10 0 5 -3 9 -7 8 -5 -1 -19 5 -33 13 -14 9 -106 64 -205 121 -99 58 -200
118 -225 132 -25 15 -53 29 -62 33 -10 3 -18 9 -18 14 0 5 -6 9 -14 9 -7 0
-19 7 -26 15 -7 8 -16 12 -21 9 -5 -3 -9 0 -9 5 0 6 -4 11 -9 11 -5 0 -93 49
-196 110 -102 60 -209 122 -238 138 -65 36 -108 61 -175 101 -29 17 -57 31
-62 31 -6 0 -10 4 -10 9 0 5 -11 12 -25 15 -14 4 -25 11 -25 16 0 6 -4 10 -9
10 -5 0 -53 25 -107 57 -55 31 -139 79 -189 107 -49 27 -91 54 -93 58 -2 4 -7
8 -12 8 -5 0 -46 22 -92 48 -46 26 -90 51 -98 56 -8 4 -33 18 -55 32 -22 13
-52 30 -67 36 -16 7 -28 16 -28 20 0 4 -4 8 -10 8 -5 0 -39 18 -75 40 -36 22
-68 40 -71 40 -3 0 -18 8 -32 19 -15 10 -49 31 -77 45 -27 15 -65 36 -83 47
-71 41 -369 213 -412 237 -25 13 -49 28 -55 32 -5 4 -32 20 -60 36 -74 40
-104 58 -160 91 -27 16 -57 32 -65 36 -8 4 -28 16 -45 26 -16 11 -32 20 -35
20 -3 0 -43 -22 -88 -49z"/>
<path d="M1178 8111 c-18 -10 -69 -40 -113 -66 -44 -26 -86 -48 -92 -48 -7 0
-13 -4 -13 -7 0 -4 -29 -22 -65 -41 -36 -18 -65 -37 -65 -42 0 -4 -4 -6 -9 -3
-5 3 -14 -1 -21 -9 -7 -8 -19 -15 -26 -15 -8 0 -14 -3 -14 -7 0 -5 -19 -17
-43 -28 -23 -11 -44 -22 -47 -26 -4 -5 -73 -44 -155 -89 -16 -8 -41 -23 -55
-31 -76 -48 -195 -114 -202 -112 -4 2 -8 -1 -8 -7 0 -5 -15 -16 -32 -24 -35
-16 -106 -55 -123 -69 -5 -4 -26 -16 -44 -26 -19 -10 -36 -22 -38 -27 -2 -5
14 -18 34 -29 46 -24 144 -81 158 -92 6 -4 35 -21 65 -37 30 -16 63 -36 73
-44 9 -8 17 -11 17 -6 0 5 4 5 8 -1 4 -5 18 -16 31 -23 53 -30 93 -53 129 -74
20 -12 61 -35 90 -52 30 -17 75 -43 100 -58 26 -15 70 -39 97 -53 28 -14 46
-25 40 -25 -5 0 15 -13 45 -29 30 -15 69 -36 87 -47 51 -31 145 -85 193 -112
25 -14 86 -48 135 -77 50 -29 108 -63 130 -75 22 -13 54 -31 70 -41 17 -10 41
-24 55 -32 14 -7 43 -24 65 -37 22 -12 60 -34 85 -48 25 -14 57 -33 72 -43 14
-11 31 -19 36 -19 6 0 17 -6 24 -12 15 -14 49 -34 113 -68 22 -11 63 -34 90
-51 28 -16 58 -33 68 -36 9 -3 17 -9 17 -14 0 -5 6 -9 14 -9 7 0 19 -7 26 -15
7 -8 16 -13 20 -10 5 3 11 1 15 -5 3 -6 25 -20 48 -31 23 -12 44 -24 47 -28 3
-3 23 -16 45 -28 22 -11 54 -29 72 -40 18 -10 103 -58 189 -108 86 -49 176
-101 198 -114 23 -13 66 -37 96 -54 30 -16 62 -36 71 -43 8 -8 19 -14 22 -14
4 0 41 -20 81 -45 41 -25 79 -45 85 -45 6 0 11 -4 11 -10 0 -5 9 -10 20 -10
11 0 20 -4 20 -9 0 -5 19 -19 43 -31 52 -27 90 -48 142 -79 127 -76 226 -131
235 -131 5 0 10 -4 10 -8 0 -4 15 -15 33 -23 17 -9 109 -61 204 -117 95 -56
177 -102 183 -102 5 0 10 -3 10 -7 0 -5 10 -13 23 -19 12 -6 60 -33 107 -61
47 -27 96 -56 110 -64 14 -8 28 -18 31 -22 3 -5 10 -9 15 -9 5 -1 18 -6 29
-13 88 -55 386 -225 395 -225 5 0 10 -4 10 -9 0 -5 8 -11 18 -14 17 -6 72 -37
82 -47 3 -3 14 -10 25 -16 100 -54 156 -86 255 -144 113 -66 150 -88 240 -138
25 -14 47 -29 48 -34 2 -4 11 -8 20 -8 8 0 23 -6 31 -14 9 -7 41 -26 71 -42
30 -16 60 -35 68 -41 7 -7 20 -13 28 -13 8 0 14 -4 14 -10 0 -5 5 -10 11 -10
6 0 24 -9 40 -21 16 -11 29 -17 29 -13 0 4 8 0 18 -9 9 -8 44 -30 77 -48 33
-18 80 -45 104 -61 25 -15 51 -28 58 -28 7 0 13 -4 13 -10 0 -5 6 -10 13 -10
7 0 24 -10 37 -22 14 -13 27 -22 30 -22 6 2 37 -12 65 -29 88 -54 147 -87 155
-87 4 0 10 -3 12 -7 3 -9 42 -32 106 -63 23 -11 42 -26 42 -32 0 -6 3 -9 6 -5
3 3 35 -12 70 -34 35 -21 68 -39 73 -39 5 0 11 -3 13 -7 2 -5 21 -17 43 -28
22 -10 47 -24 55 -31 8 -6 41 -26 73 -43 32 -18 112 -64 178 -102 65 -38 123
-69 129 -69 5 0 10 -3 10 -7 0 -5 18 -17 40 -27 22 -11 40 -22 40 -25 0 -7
-13 -15 -80 -53 -25 -14 -77 -44 -116 -67 -39 -22 -76 -41 -83 -41 -6 0 -11
-4 -11 -8 0 -5 -19 -18 -42 -31 -24 -12 -56 -30 -73 -40 -39 -23 -111 -63
-155 -87 -19 -11 -37 -22 -40 -25 -5 -7 -52 -33 -60 -34 -3 0 -23 -12 -45 -26
-22 -15 -50 -29 -62 -33 -13 -4 -23 -11 -23 -15 0 -4 -22 -18 -50 -31 -27 -13
-50 -27 -50 -32 0 -4 -5 -8 -10 -8 -10 0 -239 -128 -250 -140 -3 -3 -15 -11
-27 -17 -20 -12 -30 -8 -88 27 -36 22 -67 40 -70 40 -2 0 -45 25 -95 55 -50
30 -93 55 -96 55 -2 0 -38 20 -78 45 -41 25 -79 45 -85 45 -6 0 -11 4 -11 9 0
5 -8 11 -17 14 -10 4 -36 17 -58 30 -131 79 -428 247 -436 247 -5 0 -9 5 -9
10 0 6 -4 10 -10 10 -5 0 -47 22 -94 50 -47 28 -89 50 -95 50 -6 0 -11 5 -11
10 0 6 -7 10 -15 10 -8 0 -15 5 -15 12 0 6 -3 9 -6 6 -3 -4 -22 5 -41 18 -20
13 -42 24 -49 24 -8 0 -14 5 -14 10 0 6 -7 10 -15 10 -8 0 -15 5 -15 10 0 6
-5 10 -10 10 -6 0 -65 32 -131 70 -66 39 -124 70 -128 70 -4 0 -16 9 -26 20
-10 11 -21 17 -26 15 -4 -3 -10 -1 -14 4 -3 5 -18 16 -33 24 -15 7 -45 24 -67
37 -22 12 -60 34 -85 48 -25 13 -53 31 -62 40 -10 8 -18 11 -18 7 0 -4 -8 -1
-17 7 -18 15 -114 72 -123 73 -3 0 -16 8 -30 16 -69 44 -184 109 -191 109 -5
0 -9 5 -9 11 0 5 -4 7 -10 4 -5 -3 -10 -2 -10 3 0 5 -8 12 -17 15 -10 3 -43
21 -75 39 -100 59 -162 94 -223 128 -33 18 -67 39 -76 46 -8 8 -19 14 -22 14
-4 0 -41 20 -81 45 -41 25 -86 49 -100 55 -14 5 -26 14 -26 20 0 5 -9 10 -19
10 -11 0 -23 5 -26 11 -4 5 -17 14 -28 19 -12 5 -43 22 -68 37 -25 16 -97 57
-160 92 -63 36 -116 67 -119 70 -3 4 -14 11 -25 17 -11 6 -54 29 -95 51 l-75
41 0 -693 0 -694 80 -48 c44 -26 87 -51 97 -55 9 -4 35 -19 58 -33 23 -15 63
-38 88 -52 26 -15 59 -33 74 -42 82 -49 121 -71 129 -71 5 0 9 -4 9 -10 0 -5
4 -10 9 -10 5 0 81 -41 168 -91 87 -50 178 -103 203 -116 25 -14 50 -29 55
-33 11 -8 79 -46 165 -94 30 -16 57 -32 60 -35 3 -3 14 -11 25 -17 70 -38 135
-75 245 -139 69 -40 141 -82 160 -93 19 -10 127 -72 240 -137 113 -65 216
-125 230 -132 14 -8 43 -25 65 -39 22 -13 49 -29 60 -34 11 -5 38 -21 60 -35
22 -14 49 -29 60 -35 11 -6 43 -24 70 -40 28 -17 58 -33 68 -36 9 -4 17 -11
17 -17 0 -6 3 -7 6 -4 4 4 19 -2 33 -12 14 -10 60 -37 101 -61 41 -23 89 -50
105 -60 17 -9 57 -32 90 -51 33 -18 62 -37 63 -41 2 -4 7 -8 12 -8 12 0 154
-82 162 -94 4 -6 8 -8 8 -3 0 4 18 -4 40 -18 22 -14 44 -25 50 -25 5 0 10 -4
10 -10 0 -5 4 -10 10 -10 5 0 44 -21 87 -46 43 -25 107 -62 143 -82 36 -19 67
-38 70 -41 6 -7 62 -39 110 -62 33 -17 36 -16 65 1 61 37 102 61 210 120 33
18 62 36 65 39 3 3 21 14 40 25 45 24 102 56 144 81 55 33 210 120 221 124 6
2 12 7 15 10 8 10 148 89 170 96 11 4 20 11 20 16 0 5 4 9 10 9 5 0 47 22 94
50 47 27 89 50 93 50 5 0 14 5 21 12 7 7 36 26 66 43 30 16 78 44 108 61 74
43 245 142 293 170 22 13 47 27 55 31 8 4 58 32 110 63 52 31 102 59 110 63 8
4 29 16 45 27 17 11 44 26 60 34 17 9 50 27 75 42 25 15 59 35 75 44 17 10 58
34 92 54 34 20 66 36 72 36 6 0 11 4 11 8 0 5 23 19 50 32 28 13 50 27 50 32
0 4 5 8 11 8 6 0 48 22 95 50 47 28 89 50 94 50 6 0 10 4 10 9 0 5 8 11 18 14
9 4 44 22 77 42 33 19 69 39 80 45 11 6 34 19 50 29 65 40 157 91 166 91 5 0
9 5 9 10 0 6 4 10 9 10 9 0 173 93 212 121 14 10 29 16 33 12 3 -3 6 -1 6 5 0
7 4 12 9 12 5 0 82 42 172 94 l162 95 -34 20 c-19 11 -39 23 -44 28 -6 4 -17
9 -25 11 -8 2 -16 8 -18 13 -2 5 -8 9 -13 9 -5 0 -30 13 -56 29 -78 47 -136
80 -173 99 -19 9 -36 20 -38 25 -2 4 -10 7 -18 7 -8 0 -14 5 -14 10 0 6 -5 10
-10 10 -6 0 -68 34 -139 75 -71 41 -134 75 -139 75 -6 0 -12 4 -14 8 -1 5 -25
21 -53 37 -58 32 -163 92 -185 105 -39 24 -172 100 -176 100 -2 0 -23 12 -47
27 -23 15 -60 37 -82 48 -22 12 -75 43 -118 68 -43 26 -83 47 -88 47 -5 0 -9
3 -9 8 0 4 -20 16 -45 27 -25 11 -45 23 -45 28 0 4 -4 7 -9 7 -5 0 -39 18 -75
40 -36 22 -70 40 -75 40 -5 0 -11 3 -13 8 -1 4 -21 16 -43 28 -36 19 -269 152
-305 174 -8 5 -37 22 -65 38 -27 16 -68 39 -90 52 -22 12 -60 34 -85 48 -25
14 -57 33 -72 43 -14 11 -29 19 -33 19 -3 0 -31 16 -61 35 -30 19 -56 35 -58
35 -2 0 -51 28 -108 62 -162 96 -202 119 -220 125 -10 3 -18 9 -18 14 0 5 -4
9 -10 9 -5 0 -38 17 -72 38 -35 21 -84 50 -109 64 -83 46 -94 53 -99 58 -3 3
-25 16 -50 29 -25 14 -48 29 -51 34 -3 5 -8 7 -10 5 -5 -3 -131 69 -181 103
-15 11 -29 19 -32 19 -3 0 -178 100 -226 130 -8 5 -49 28 -90 51 -41 23 -83
48 -92 57 -10 8 -18 12 -18 7 0 -4 -16 5 -35 19 -19 15 -35 24 -35 20 0 -4 -8
0 -17 8 -10 9 -38 27 -63 40 -82 45 -118 67 -159 93 -23 14 -41 22 -41 18 0
-5 -4 -3 -8 3 -4 6 -32 24 -62 41 -30 16 -94 53 -142 81 -48 29 -91 52 -97 52
-6 0 -11 4 -11 9 0 5 -8 11 -17 14 -10 4 -38 18 -63 33 -25 15 -60 35 -77 45
-18 11 -48 27 -65 38 -18 10 -57 32 -86 50 -29 17 -57 31 -62 31 -6 0 -10 5
-10 10 0 6 -4 10 -9 10 -5 0 -49 23 -98 51 -48 29 -113 65 -143 82 -30 16 -63
37 -72 45 -10 8 -18 11 -18 6 0 -5 -4 -4 -8 1 -4 6 -27 21 -52 34 -25 14 -47
27 -50 30 -3 4 -16 12 -30 18 -36 18 -108 59 -122 70 -7 6 -38 23 -68 39 -30
16 -59 33 -65 37 -5 4 -62 37 -125 73 -63 36 -133 76 -155 89 -22 12 -78 44
-125 71 -47 26 -86 51 -88 56 -2 4 -8 8 -14 8 -6 0 -33 13 -59 30 -27 16 -49
26 -49 22 0 -4 -5 1 -11 11 -6 9 -14 15 -20 12 -5 -4 -9 -1 -9 4 0 6 -5 11
-10 11 -6 0 -40 18 -76 40 -36 22 -68 40 -70 40 -2 0 -28 16 -58 35 -30 19
-62 35 -71 35 -8 0 -15 4 -15 10 0 5 -15 16 -32 24 -18 8 -55 28 -83 44 -190
111 -228 132 -236 132 -5 0 -9 5 -9 10 0 6 -7 10 -15 10 -8 0 -15 4 -15 10 0
5 -3 9 -7 8 -5 -1 -19 5 -33 13 -14 9 -142 83 -285 164 -143 82 -267 154 -276
162 -8 7 -23 13 -32 13 -9 0 -17 4 -17 8 0 5 -34 26 -75 47 -41 22 -75 42 -75
45 0 3 -16 12 -35 19 -19 7 -35 17 -35 22 0 5 -4 9 -9 9 -5 0 -48 23 -96 50
-48 28 -91 50 -96 50 -5 0 -9 4 -9 10 0 5 -11 12 -25 16 -14 3 -25 9 -25 13 0
4 -20 15 -45 26 -25 11 -45 23 -45 27 0 3 -12 11 -27 17 -16 6 -49 24 -75 40
-46 29 -46 29 -80 12z"/>
</g>
</svg>
