<?xml version="1.0" standalone="no"?>
<!DOCTYPE svg PUBLIC "-//W3C//DTD SVG 20010904//EN"
 "http://www.w3.org/TR/2001/REC-SVG-20010904/DTD/svg10.dtd">
<svg version="1.0" xmlns="http://www.w3.org/2000/svg"
 width="276.000000pt" height="276.000000pt" viewBox="0 0 276.000000 276.000000"
 preserveAspectRatio="xMidYMid meet">
<metadata>
Created by potrace 1.14, written by Peter Selinger 2001-2017
</metadata>
<g transform="translate(0.000000,276.000000) scale(0.100000,-0.100000)"
fill="#000000" stroke="none">
<path d="M1398 2699 c-15 -6 -109 -58 -210 -116 -101 -58 -196 -113 -213 -123
-16 -9 -162 -93 -324 -186 -162 -93 -306 -180 -320 -195 -15 -14 -31 -42 -37
-60 -7 -22 -10 -253 -10 -639 l1 -605 23 -41 c13 -22 32 -45 42 -52 11 -6 113
-66 227 -133 114 -66 249 -145 298 -173 538 -314 540 -315 606 -302 20 3 228
119 464 256 235 138 429 250 431 250 2 0 28 16 58 35 30 19 59 35 63 35 18 0
81 62 97 95 15 31 17 95 17 644 0 656 1 650 -52 697 -22 19 -308 189 -449 267
-30 16 -66 38 -80 47 -14 9 -38 24 -55 32 -16 8 -122 69 -235 135 -113 65
-214 123 -225 127 -32 13 -88 16 -117 5z"/>
</g>
</svg>
