<?xml version="1.0" encoding="UTF-8"?>
<svg width="73px" height="10px" viewBox="0 0 73 10" version="1.1" xmlns="http://www.w3.org/2000/svg" xmlns:xlink="http://www.w3.org/1999/xlink">
  <g id="ZiliSwap" stroke="none" stroke-width="1" fill="none" fill-rule="evenodd">
    <path d="M40.5957329,0.0260869565 C42.7479911,0.0260869565 44.4770019,1.12173913 44.8732336,3.14782609 L44.8732336,3.14782609 L42.7660017,3.37391304 C42.5768911,2.4 41.6853699,1.73913043 40.5867276,1.73913043 C38.8216958,1.73913043 37.9211693,3.0173913 37.9211693,5 C37.9211693,7.00869565 38.8216958,8.27826087 40.5507066,8.27826087 C41.7934331,8.27826087 42.5949016,7.52173913 42.847049,6.19130435 L42.847049,6.19130435 L44.9272652,6.48695652 C44.4679967,8.71304348 42.8020227,9.9826087 40.5687171,9.9826087 C37.5609587,9.9826087 35.7418953,7.88695652 35.7418953,5.06086957 C35.7418953,2.2 37.5159324,0.0260869565 40.5957329,0.0260869565 Z M67.179274,0.0260869565 C70.3671377,0.0260869565 72.1591854,2.19130435 72.1681906,5.03478261 C72.1681906,6.69565217 71.2586589,9.9826087 67.1972846,9.9826087 C64.3336104,9.9826087 62.208368,8.17391304 62.208368,5.05217391 C62.208368,2.33043478 63.9013577,0.0260869565 67.179274,0.0260869565 Z M4.15142699,0.0260869565 C6.48379052,0.0260869565 8.12274868,1.03478261 8.14976448,3.0173913 L8.14976448,3.0173913 L6.04253256,3.06956522 C5.91645885,2.00869565 5.20504295,1.63478261 4.12441119,1.62608696 C3.31393738,1.62608696 2.48545303,1.93043478 2.48545303,2.64347826 C2.48545303,3.00869565 2.63854253,3.23478261 3.19686894,3.43478261 C3.98933222,3.73043478 6.18661679,4.17391304 7.09614852,4.65217391 C7.9156276,5.08695652 8.473954,5.8173913 8.473954,6.97391304 C8.473954,9.02608696 6.69991687,9.97391304 4.33153228,9.97391304 C1.9091161,9.97391304 0.171100028,8.88695652 0.0540315877,6.63478261 L0.0540315877,6.63478261 L2.13424771,6.53913043 C2.2152951,7.8173913 3.09781103,8.33913043 4.36755334,8.33913043 C5.28609033,8.33913043 6.35771682,7.96521739 6.35771682,7.09565217 C6.35771682,6.53043478 5.94347465,6.20869565 5.10598504,5.9826087 C4.15142699,5.73043478 2.05320033,5.25217391 1.34178443,4.68695652 C0.729426434,4.2 0.405236908,3.62608696 0.405236908,2.7826087 C0.405236908,1.09565217 2.04419507,0.0260869565 4.15142699,0.0260869565 Z M10.3290385,0.208695652 L11.9139651,6.84347826 L11.9319756,6.84347826 L13.7420338,0.208695652 L16.0203658,0.208695652 L17.7853976,6.93913043 L17.7944029,6.93913043 L19.4063452,0.208695652 L21.540593,0.208695652 L18.9380715,9.79130435 L16.7317817,9.79130435 L15.2008867,4.24347826 L14.8496814,2.86956522 L14.8226656,2.86956522 L14.4804655,4.24347826 L12.9855916,9.79130435 L10.7342754,9.79130435 L8.16777501,0.208695652 L10.3290385,0.208695652 Z M24.3052092,0.208695652 L24.3052092,9.79130435 L22.152951,9.79130435 L22.152951,0.208695652 L24.3052092,0.208695652 Z M35.1655583,0.208695652 L35.1655583,9.79130435 L33.1213633,9.79130435 L33.1213633,3.56521739 L26.5024938,9.79130435 L24.980604,8.36521739 L31.5994735,2.13913043 L24.980604,2.13913043 L24.980604,0.208695652 L35.1655583,0.208695652 Z M47.5838182,0.208695652 L47.5838182,3.93913043 L51.6632031,3.93913043 L51.6632031,0.208695652 L53.8064561,0.208695652 L53.8064561,9.79130435 L51.6632031,9.79130435 L51.6632031,5.62608696 L47.5838182,5.62608696 L47.5838182,9.79130435 L45.43156,9.79130435 L45.43156,0.208695652 L47.5838182,0.208695652 Z M62.0102521,0.208695652 L62.0102521,1.90434783 L56.5530618,1.90434783 L56.5530618,3.99130435 L61.59601,3.99130435 L61.59601,5.62608696 L56.5530618,5.62608696 L56.5530618,8.10434783 L62.1453311,8.10434783 L62.1453311,9.79130435 L54.4098088,9.79130435 L54.4098088,0.208695652 L62.0102521,0.208695652 Z M67.1882793,1.72173913 C65.3331948,1.72173913 64.3786367,3.07826087 64.3786367,5.0173913 C64.3786367,6.15652174 64.8379052,8.27826087 67.1882793,8.27826087 C69.016348,8.27826087 69.9709061,6.91304348 69.9709061,5.00869565 C69.9709061,3.07826087 69.0433638,1.72173913 67.1882793,1.72173913 Z"  fill="#063C4F"></path>
  </g>
</svg>