<svg height="1em" xmlns="http://www.w3.org/2000/svg" viewBox="0 0 886 52"><defs><style>.cls-1{fill:#fff;}.cls-1,.cls-2{fill-rule:evenodd;}.cls-2{fill:#dedede;}</style></defs><title>On Product_On Dark</title><path id="Switcheo-Wordmark" class="cls-1" d="M420.1,0c9.4,0,16.92,5,18.67,14.11h0l-9.21,1c-.81-4.42-4.73-7.39-9.52-7.39-7.72,0-11.64,5.76-11.64,14.72s3.92,14.84,11.51,14.84c5.42,0,8.9-3.45,10-9.45h0L439,29.19C437,39.25,429.74,45,420,45c-13.13,0-21.1-9.45-21.1-22.23C398.88,9.81,406.66,0,420.1,0ZM536.22,0C550.16,0,558,9.81,558,22.65,558,30.16,554,45,536.29,45c-12.51,0-21.78-8.18-21.78-22.29C514.51,10.42,521.91,0,536.22,0ZM261.92,0c10.2,0,17.36,4.54,17.48,13.51h0l-9.21.24c-.55-4.78-3.67-6.48-8.46-6.48-3.54,0-7.15,1.39-7.15,4.6,0,1.64.68,2.67,3.11,3.57,3.48,1.34,13.07,3.33,17.05,5.52,3.61,1.93,6,5.26,6,10.47C280.77,40.7,273,45,262.67,45,252.09,45,244.5,40.09,244,29.92h0l9.08-.43c.38,5.76,4.24,8.12,9.77,8.12,4,0,8.71-1.7,8.71-5.63,0-2.55-1.8-4-5.47-5-4.17-1.15-13.32-3.33-16.43-5.87a10.3,10.3,0,0,1-4.1-8.6C245.56,4.85,252.71,0,261.92,0Zm27,.85,6.91,30h.06l7.9-30h10l7.71,30.4h.06l7-30.4h9.34L326.5,44.15h-9.64L310.2,19.08l-1.56-6.24h-.12L307,19.08l-6.54,25.07h-9.83L279.46.85Zm61,0v43.3h-9.39V.85Zm46.3,0v43.3h-8.48V16L359.6,44.08,353,37.45,381.11,9.32H352.89V.85Zm54.43,0V17.68h17.8V.85h9.39v43.3h-9.39V25.32h-17.8V44.15h-9.39V.85Zm63,0V8.48H489.84v9.45h22v7.39h-22v11.2h24.45v7.63H480.5V.85Zm22.62,6.84c-8.09,0-12.26,6.12-12.26,14.9,0,5.15,2,14.72,12.26,14.72,8,0,12.13-6.18,12.13-14.78S544.37,7.69,536.29,7.69Z"/><path id="TradeHub" class="cls-1" d="M819.29,3V28.68c0,.23,0,.47,0,.7h0v.47c.14,5.28,1.46,10.31,8.92,10.31s8.78-5,8.93-10.31h0V28.68h0V3h9.25V28.49a33.61,33.61,0,0,1-1,9.57C844.14,42,840.19,48,828.17,48s-15.84-6-17.08-9.94A33.61,33.61,0,0,1,810,28.49h0V3ZM605.57,3v7.78H592.44V47.14h-9.25V10.78H570V3Zm23.37,0c8.26,0,15.66,3.7,15.66,12.28,0,5.93-3.21,10-9.43,11.67.3.15.66.35,1,.56l.56.33A14.09,14.09,0,0,1,638.43,29c2.09,1.78,3.18,4.31,4.08,7l.3.92.72,2.33.31.93a20,20,0,0,0,3.27,6.55l.32.38H636.65a15.11,15.11,0,0,1-2.93-6l-.29-1-.56-2.06a17.73,17.73,0,0,0-2.7-6.14c-1.36-1.79-3.31-2.6-6.43-2.65h-6.21V47.14h-9.31V3Zm46.72,0,17.08,44.14h-9.87L679.3,37.2H662.22l-3.58,9.94h-9.55L666,3Zm37.53,0c13.38,0,19.17,9.63,19.17,22.16,0,13-5.62,21.8-19.67,22h-18.3V3Zm54.69,0v7.78H744.26v9.63h21.83v7.53H744.26V39.36h24.23v7.78H735V3Zm12.57,0V20.16h17.63V3h9.31V47.14h-9.31V27.94H780.45v19.2h-9.31V3Zm88,0c7.89,0,15.35,2.53,15.35,11.17a9.86,9.86,0,0,1-6.1,9.26A10.73,10.73,0,0,1,886,34.36c0,8.46-6.84,12.66-14.84,12.77H849.07V3ZM858.38,27.69v12h11.28c3.7,0,6.85-1.67,6.85-6,0-4.66-3.74-5.88-7.32-5.93H869Zm-147-16.85h-7.7V39.36h7.64c6.54,0,11.59-3,11.59-13.89C722.93,15.1,718.86,10.84,711.4,10.84Zm-40.61,2.78h-.13l-5.79,16.29h11.71Zm-42.28-3.09h-11V22.32h8.11l.79,0,.74,0,.68,0,.63,0,.57,0,.53-.05.47-.06c3.21-.43,5.12-2.22,5.12-5.74s-2.24-5.7-6.38-5.8Zm239.36-.06h-9.49V20.72l11-.07c2.71-.18,5.42-1.72,5.42-5.12S872.56,10.47,867.87,10.47Z"/><path id="Powered_by" data-name="Powered by" class="cls-2" d="M213.21,20.65l4.34,13,1,3.12h0l1-3.12,4.17-13H230l-9.47,25.73C219,50.59,216.59,52,212.38,52a25.1,25.1,0,0,1-3.55-.35h0l-.35-4.88a21,21,0,0,0,3.29.27c2,0,3.24-1,3.24-3a9.09,9.09,0,0,0-.61-2.94h0l-7.72-20.46Zm-176-.53c6.53,0,11.75,4.31,11.75,11.9C48.91,38.3,44.79,44,37.16,44s-11.7-5.31-11.7-12.07C25.46,24.82,30.41,20.12,37.16,20.12Zm57.25,0c7,0,11,5,11,12.56,0,.21,0,.43,0,.65v.32H89.59c.17,3.77,2.14,5.7,5.26,5.7a4.35,4.35,0,0,0,4.32-2.87l.06-.2,5.74.48C103.31,41.64,99.8,44,94.71,44c-6.48,0-11.3-4-11.3-11.81S88.58,20.12,94.41,20.12Zm40.24,0c7.06,0,11,5,11,12.56,0,.21,0,.43,0,.65v.32H129.83c.17,3.77,2.15,5.7,5.26,5.7a4.34,4.34,0,0,0,4.32-2.87l.06-.2,5.74.48C143.55,41.64,140,44,135,44c-6.49,0-11.31-4-11.31-11.81S128.82,20.12,134.65,20.12ZM170.22,12V43.39h-5.74V40.28h0a8.08,8.08,0,0,1-7,3.68c-6.62,0-9.86-5.88-9.86-12.07s3.33-11.77,9.81-11.77a8.19,8.19,0,0,1,6.48,3l.19.24h0V12Zm20.07,0V23.37h0a8.52,8.52,0,0,1,6.88-3.25c6.14,0,9.47,5.36,9.47,11.77,0,5-2.15,12.07-9.42,12.07a8.37,8.37,0,0,1-7.11-3.43l-.17-.25h0v3.11h-5.75V12Zm-176,0c5.79.18,10.13,3.56,10.13,9.88s-4.79,9.85-10.37,10H6.58V43.39H0V12Zm40.8,8.65L59.3,35.84h.08L63.2,20.65h6L73,35.8h.09l4.21-15.15h6.14L76.22,43.39h-6.1L67,31.28l-.79-3.12h-.13l-.75,3.12L62.23,43.39H56.1L48.91,20.65ZM120,20.17a5.79,5.79,0,0,1,2.67.61h0l-.92,5.53a5.93,5.93,0,0,0-2.54-.61c-4.3,0-5.09,3.95-5.09,7.77h0v9.92H108V20.65h5.74v3.73h.13C115.29,21.79,117.48,20.17,120,20.17Zm39.07,4.61c-3.47,0-5.26,2.85-5.26,7,0,3.64,1.31,7.46,5.3,7.46,3.42,0,5.17-2.94,5.17-7.15C164.26,27.59,162.55,24.78,159.05,24.78Zm36.28,0c-3.25,0-5.17,2.81-5.17,7,0,3.82,1.44,7.42,5.3,7.42,3.16,0,5-2.81,5-7.15C200.5,27.54,198.66,24.78,195.33,24.78Zm-158.17.13c-3.68,0-5.52,3.07-5.52,7.16s1.84,7.11,5.52,7.11,5.52-3.07,5.52-7.16S40.84,24.91,37.16,24.91Zm57.34-.18a4.84,4.84,0,0,0-4.82,4.93v.12h9.56C99.23,26.71,97.34,24.73,94.5,24.73Zm40.24,0a4.84,4.84,0,0,0-4.82,4.93v.12h9.55C139.47,26.71,137.59,24.73,134.74,24.73ZM12.23,17.36H6.58v9.13h5.61c4.42,0,5.69-2.15,5.69-4.57C17.88,19.29,16.39,17.36,12.23,17.36Z"/></svg>
