<?xml version="1.0" encoding="UTF-8"?>
<svg height="1em" viewBox="0 0 902 60" version="1.1" xmlns="http://www.w3.org/2000/svg" xmlns:xlink="http://www.w3.org/1999/xlink">
  <g fill="#073c50" transform="translate(252.000000, 8.000000)">
      <path d="M176.200038,0 C185.600038,0 193.120038,4.88888889 194.870038,13.7964444 L194.870038,13.7964444 L185.660038,14.7742222 C184.850038,10.4524444 180.930038,7.54844444 176.140038,7.54844444 C168.420038,7.54844444 164.500038,13.1804444 164.500038,21.9413333 C164.500038,30.7022222 168.420038,36.4515556 176.010038,36.4515556 C181.430038,36.4515556 184.910038,33.0782222 186.010038,27.2115556 L186.010038,27.2115556 L195.100038,28.5413333 C193.100038,38.3777778 185.840038,44 176.100038,44 C162.970038,44 155,34.76 155,22.264 C154.980038,9.592 162.760038,0 176.200038,0 Z"></path>
      <path d="M292.465394,0 C306.248333,0 314,9.592 314,22.1466667 C314,29.4897778 310.045068,44 292.534606,44 C280.165555,44 271,36.0017778 271,22.2053333 C271,10.1884444 278.316625,0 292.465394,0 Z M293.083641,8 L293.063961,8 C285.103321,8 281,13.9918974 281,22.5881161 C281,27.6303174 282.96802,37 293.063961,37 C300.936039,37 305,30.9493585 305,22.529372 C305,14.1093856 301.03444,8 293.083641,8 Z"></path>
      <path d="M17.92,0 C28.12,0 35.28,4.43911111 35.4,13.2097778 L35.4,13.2097778 L26.19,13.4444444 C25.64,8.77066667 22.52,7.10844444 17.73,7.10844444 C14.19,7.10844444 10.58,8.46755556 10.58,11.6062222 C10.58,13.2097778 11.26,14.2168889 13.69,15.0968889 C17.17,16.4071111 26.76,18.3528889 30.74,20.4942222 C34.35,22.3813333 36.7400866,25.6373333 36.7400866,30.7315556 C36.77,39.7955556 29,44 18.67,44 C8.09,44 0.5,39.1991111 1.0658141e-14,29.2551111 L1.0658141e-14,29.2551111 L9.08,28.8346667 C9.46,34.4666667 13.32,36.7742222 18.85,36.7742222 C22.85,36.7742222 27.56,35.112 27.56,31.2693333 C27.56,28.776 25.76,27.3582222 22.09,26.3804444 C17.92,25.256 8.77,23.1244444 5.66,20.6408889 C2.96997908,18.6615357 1.43905312,15.5216854 1.56,12.232 C1.56,4.74222222 8.71,0 17.92,0 Z"></path>
      <polygon points="44.46 0 51.37 30.4849885 51.43 30.4849885 59.33 1.46662256e-15 69.33 1.46662256e-15 77.04 30.891455 77.1 30.891455 84.1 1.46662256e-15 93.44 1.46662256e-15 82.04 44 72.4 44 65.74 18.5247113 64.18 12.1838337 64.06 12.1838337 62.54 18.5247113 56 44 46.17 44 35 0"></polygon>
      <polygon points="106.39 0 106.39 44 97 44 97 0"></polygon>
      <polygon points="152.33 0 152.33 44 143.85 44 143.85 15.3949192 115.71 43.9288684 109.11 37.1916859 137.22 8.60692841 109 8.60692841 109 0"></polygon>
      <polygon points="206.39 0 206.39 17.1020785 224.19 17.1020785 224.19 0 233.58 0 233.58 44 224.19 44 224.19 24.8655889 206.39 24.8655889 206.39 44 197 44 197 0"></polygon>
      <polygon points="270.15 0 270.15 7.75334873 246.34 7.75334873 246.34 17.3561201 268.34 17.3561201 268.34 24.8655889 246.34 24.8655889 246.34 36.2466513 270.79 36.2466513 270.79 44 237 44 237 0"></polygon>
  </g>
  <g fill="#073c50" transform="translate(578.000000, 8.000000)">
      <path d="M240,0 L249.25,0 L249.25,25.4109285 L249.25,26.6814749 L249.25,27.1603732 C249.25,27.2385606 249.25,27.3167481 249.25,27.3949356 L249.25,27.8640604 C249.254953,27.942173 249.254953,28.0205103 249.25,28.0986228 L249.31,28.5579742 C249.83,32.7703243 251.74,36.2887606 258.06,36.2887606 C264.38,36.2887606 266.22,32.8973789 266.79,28.7827632 L267,28.3429587 L267,27.8836073 L267,27.4144825 L267,26.9355842 L267,26.4664594 L267,25.7725455 L267,25.4109285 L267,0 L276.25,0 L276.25,24.9124833 C276.377383,28.0609473 276.040599,31.2109454 275.25,34.2656597 L275.15,34.5588627 L275.04,34.8618392 L275,35.1843625 L274.94,35.3407375 L274.8,35.6534873 L274.64,35.9760107 L274.48,36.298534 L274.39,36.4646824 L274.2,36.7872057 L274.11,36.9533541 L273.9,37.2856508 C273.857676,37.3372535 273.82082,37.3929216 273.79,37.4517992 L273.55,37.784096 L273.31,38.1066193 L273.04,38.438916 C270.63,41.3709462 266.2,44 258.13,44 C250.67,44 246.37,41.7227899 243.88,39.113283 L243.59,38.7907597 L243.31,38.4584629 L243.05,38.1261661 L242.81,37.8036428 L242.58,37.4713461 C242.58,37.4127055 242.51,37.3540649 242.47,37.3051977 L242.26,36.9729009 L242.07,36.6406042 L241.9,36.3180809 L241.73,35.9955575 C241.73,35.9369169 241.73,35.8880498 241.66,35.8391826 L241.51,35.5166593 L241.32,35.0475344 L241.2,34.744558 L241.1,34.451355 C241.1,34.4024878 241.1,34.3536206 241.1,34.3047534 C240.349988,31.4323987 240.013414,28.4718669 240.1,25.5086628 L240.1,0 L240,0 Z"></path>
      <polygon points="35.57 0 35.57 7.75532397 22.44 7.75532397 22.44 44 13.19 44 13.19 7.75532397 -4.97379915e-14 7.75532397 -4.97379915e-14 0"></polygon>
      <path d="M58.6195458,-0.143255814 C66.8394999,-0.143255814 74.2036234,3.5450088 74.2036234,12.0977954 C74.2036234,18.008987 71.009186,22.0660781 64.8193417,23.7307813 C65.1178872,23.8803056 65.4761419,24.0796712 65.8144935,24.2890052 L66.3717785,24.6179585 L66.8494514,24.917007 C67.2670462,25.1707505 67.6661119,25.4538983 68.0436336,25.764311 C70.1235009,27.5386653 71.2082164,30.0606409 72.103853,32.7421089 L72.4023986,33.6591909 L73.1189079,35.9818008 L73.427405,36.9088511 C74.1018331,39.2672771 75.2050268,41.4807608 76.6815514,43.4380763 L77,43.8168711 L66.2921664,43.8168711 C64.8871304,42.0659642 63.8908764,40.0224169 63.3763715,37.8359014 L63.0877775,36.8390731 L62.5304925,34.7856069 C62.0317829,32.5927697 61.1198303,30.5154283 59.8435825,28.6650813 C58.4901761,26.8807587 56.54963,26.0733278 53.4447563,26.0234864 L47.2648635,26.0234864 L47.2648635,43.8567442 L38,43.8567442 L38,-0.143255814 L58.6195458,-0.143255814 Z M58.2244898,8.0427907 L47,8.0427907 L47,19.2986047 L58.755102,19.2986047 L59.2959184,19.2508701 L59.7755102,19.1935886 C63.0510204,18.7830712 65,17.0741732 65,13.7136588 C65,10.3531444 62.7142857,8.27191668 58.4897959,8.17644752 L58.2244898,8.0427907 Z"></path>
      <path d="M105.783047,-0.143255814 L123,43.8567442 L113.050859,43.8567442 L109.452234,33.9482711 L92.2352806,33.9482711 L88.626575,43.8567442 L79,43.8567442 L96.0455899,-0.143255814 L105.783047,-0.143255814 Z M101.06661,10.0893023 L100.93339,10.0893023 L95,26.4613953 L107,26.4613953 L101.06661,10.0893023 Z"></path>
      <path d="M142.789557,-0.143255814 C156.197785,-0.143255814 162,9.45837573 162,21.9514643 C162,22.7291666 162,23.4869277 161.939873,24.2347184 L161.939873,24.9725384 L161.879747,25.700388 C160.877637,36.5483372 155.015295,43.7071861 142.338608,43.8567442 L124,43.8567442 L124,-0.143255814 L142.789557,-0.143255814 Z M140.580311,8.0427907 L133,8.0427907 L133,36.6939535 L142.578756,36.6939535 C142.95285,36.6939535 143.317098,36.5934936 143.671503,36.5231717 L144.124352,36.3322979 C148.741451,35.247331 152,31.5905907 152,22.7601657 C151.931088,12.3223823 147.924352,8.0427907 140.580311,8.0427907 Z"></path>
      <polygon points="197.88 0 197.88 7.75532397 174.26 7.75532397 174.26 17.3547802 196.09 17.3547802 196.09 24.8608971 174.26 24.8608971 174.26 36.244676 198.49 36.244676 198.49 44 165 44 165 0"></polygon>
      <polygon points="210.31 0 210.31 17.1055732 227.94 17.1055732 227.94 0 237.25 0 237.25 44 227.94 44 227.94 24.8608971 210.31 24.8608971 210.31 44 201 44 201 0"></polygon>
      <path d="M300.81255,-0.143255814 C302.055396,-0.0599694261 303.290501,0.113311538 304.508064,0.375212348 L305.048871,0.504829389 L305.579663,0.644416971 L306.10044,0.803945636 C310.567106,2.209792 313.801933,5.24083664 313.801933,10.9140748 C313.861375,14.9480788 311.439183,18.6087428 307.692817,20.1467963 C312.762952,21.3231574 316.256908,25.9485069 315.985191,31.1243626 C315.985191,39.5594408 309.134969,43.7470682 301.123013,43.8567442 L279,43.8567442 L279,-0.143255814 L300.81255,-0.143255814 Z M288,24.9275622 L288,36.6939535 L299.199117,36.6939535 L299.427975,36.6918126 C303.001538,36.6245927 306,34.9680118 306,30.8107578 C306,26.8886274 303.220077,25.4276338 300.162162,25.0844474 L300.162162,25.0844474 L298.712631,25.0844474 L288,24.9275622 Z M297.421953,8.0427907 L288,8.0427907 L288,18.0932499 L298.921125,18.0246126 L299.128047,18.0083975 C301.747902,17.7694808 304.302261,16.2526142 304.302261,13.0042857 C304.302261,9.67047483 302.078323,8.0427907 297.421953,8.0427907 L297.421953,8.0427907 Z"></path>
  </g>
  <path fill="#000" d="M221.21,28.65 L225.55,41.65 L226.55,44.77 L226.55,44.77 L227.55,41.65 L231.72,28.65 L238,28.65 L228.53,54.38 C227,58.59 224.59,60 220.38,60 C219.533159,59.9896455 218.68795,59.9228306 217.85,59.8 L216.85,59.65 L216.5,54.77 C217.587883,54.9461885 218.687948,55.0364673 219.79,55.04 C221.79,55.04 223.03,54.04 223.03,52.04 C222.999732,51.1493307 222.831047,50.268796 222.53,49.43 L222.42,49.1 L214.7,28.64 L221.21,28.65 Z M45.21,28.12 C51.74,28.12 56.96,32.43 56.96,40.02 C56.91,46.3 52.79,52 45.16,52 C37.53,52 33.46,46.69 33.46,39.93 C33.46,32.82 38.41,28.12 45.16,28.12 L45.21,28.12 Z M102.46,28.12 C109.46,28.12 113.46,33.12 113.46,40.68 L113.46,40.89 L113.46,40.89 L113.46,41.33 L113.46,41.33 L113.46,41.65 L97.59,41.65 C97.76,45.42 99.73,47.35 102.85,47.35 C104.765221,47.4502413 106.520114,46.2843751 107.17,44.48 L107.23,44.28 L112.97,44.76 C111.31,49.64 107.8,52 102.71,52 C96.23,52 91.41,48 91.41,40.19 C91.41,32.38 96.58,28.12 102.41,28.12 L102.46,28.12 Z M142.7,28.12 C149.76,28.12 153.7,33.12 153.7,40.68 C153.7,40.89 153.7,41.11 153.7,41.33 L153.7,41.65 L137.83,41.65 C138,45.42 139.98,47.35 143.09,47.35 C145.006133,47.4535786 146.762837,46.2865088 147.41,44.48 L147.47,44.28 L153.21,44.76 C151.55,49.64 148,52 143,52 C136.51,52 131.69,48 131.69,40.19 C131.69,32.38 136.82,28.12 142.65,28.12 L142.7,28.12 Z M178.22,20 L178.22,51.39 L172.48,51.39 L172.48,48.28 L172.48,48.28 C170.947444,50.642759 168.295211,52.0370758 165.48,51.96 C158.86,51.96 155.62,46.08 155.62,39.89 C155.62,33.7 158.95,28.12 165.43,28.12 C167.935179,28.0761423 170.32261,29.1814343 171.91,31.12 L172.1,31.36 L172.1,31.36 L172.1,20 L178.22,20 Z M198.29,20 L198.29,31.37 L198.29,31.37 C199.945345,29.2658991 202.493422,28.0622292 205.17,28.12 C211.31,28.12 214.64,33.48 214.64,39.89 L214.64,40.35 L214.64,40.35 L214.64,40.82 C214.64,40.9 214.64,40.98 214.64,41.06 L214.64,41.54 C214.64,41.78 214.64,42.03 214.56,42.28 L214.49,42.77 C213.77,47.23 211.25,51.96 205.3,51.96 C202.505806,52.0762722 199.838151,50.7893441 198.19,48.53 L198.02,48.28 L198.02,48.28 L198.02,51.39 L192.27,51.39 L192.27,20 L198.29,20 Z M22.29,20 C28.08,20.18 32.42,23.56 32.42,29.88 C32.42,36.2 27.63,39.73 22.05,39.88 L14.58,39.88 L14.58,51.39 L8,51.39 L8,20 L22.29,20 Z M63.09,28.65 L67.3,43.84 L67.38,43.84 L71.2,28.65 L77.2,28.65 L81,43.8 L81.09,43.8 L85.3,28.65 L91.44,28.65 L84.22,51.39 L78.12,51.39 L75,39.28 L74.21,36.16 L74.08,36.16 L73.33,39.28 L70.23,51.39 L64.1,51.39 L56.91,28.65 L63.09,28.65 Z M128,28.1698957 C128.820085,28.1652168 129.632793,28.3250381 130.39,28.64 L130.67,28.78 L129.75,34.31 C128.959201,33.9203938 128.091483,33.712005 127.21,33.7 C123.82,33.7 122.61,36.16 122.21,39.07 L122.21,39.5 L122.21,39.5 L122.21,39.93 C122.21,40 122.21,40.08 122.21,40.15 L122.21,40.59 L122.21,40.59 L122.21,41 L122.21,41 L122.21,51.39 L116,51.39 L116,28.65 L121.74,28.65 L121.74,32.38 L121.87,32.38 C123.29,29.79 125.48,28.1698957 128,28.1698957 Z M167.07,32.78 C163.6,32.78 161.81,35.63 161.81,39.78 C161.81,43.42 163.12,47.24 167.11,47.24 C170.53,47.24 172.28,44.3 172.28,40.09 C172.26,35.59 170.55,32.78 167.05,32.78 L167.07,32.78 Z M203.35,32.78 C200.1,32.78 198.18,35.59 198.18,39.78 C198.18,43.6 199.62,47.2 203.48,47.2 C206.64,47.2 208.48,44.39 208.48,40.05 C208.5,35.54 206.66,32.78 203.33,32.78 L203.35,32.78 Z M45.18,32.91 C41.5,32.91 39.66,35.98 39.66,40.07 C39.66,44.16 41.5,47.18 45.18,47.18 C48.86,47.18 50.7,44.11 50.7,40.02 C50.7,35.93 48.84,32.91 45.16,32.91 L45.18,32.91 Z M102.52,32.73 C99.9633085,32.7160795 97.8483335,34.7164935 97.72,37.27 L97.72,37.53 L97.72,37.78 L107.28,37.78 C107.23,34.71 105.34,32.73 102.5,32.73 L102.52,32.73 Z M142.76,32.73 C140.353789,32.6756781 138.297032,34.4515753 138,36.84 L138,37.13 L138,37.4 L138,37.66 L138,37.66 L138,37.78 L147.55,37.78 C147.47,34.71 145.59,32.73 142.74,32.73 L142.76,32.73 Z M20.23,25.36 L14.58,25.36 L14.58,34.49 L20.19,34.49 C24.61,34.49 25.88,32.34 25.88,29.92 C25.88,27.29 24.39,25.36 20.23,25.36 Z"></path>
</svg>
