<?xml version="1.0" encoding="UTF-8"?>
<svg width="24px" height="24px" viewBox="0 0 24 24" version="1.1" xmlns="http://www.w3.org/2000/svg" xmlns:xlink="http://www.w3.org/1999/xlink">
  <path fill="#149BA3" d="M8.70672615,21.5253449 C9.09837745,21.6699417 9.31490783,22.0865492 9.22444051,22.4882947 L9.19535158,22.5882555 L8.88466537,23.4541187 C8.73023684,23.8845015 8.26109366,24.1064086 7.83680476,23.9497621 C7.44515347,23.8051653 7.22862308,23.3885578 7.3190904,22.9868123 L7.34817934,22.8868515 L7.65886555,22.0209883 C7.81329408,21.5906055 8.28243725,21.3686984 8.70672615,21.5253449 Z M16.3000741,21.9254473 L16.3411345,22.0209883 L16.6518207,22.8868515 C16.8062492,23.3172343 16.5874841,23.7931155 16.1631952,23.9497621 C15.7715439,24.0943588 15.3416736,23.9164011 15.156395,23.5496597 L15.1153346,23.4541187 L14.8046484,22.5882555 C14.6502199,22.1578727 14.8689849,21.6819915 15.2932738,21.5253449 C15.6849251,21.3807482 16.1147955,21.5587059 16.3000741,21.9254473 Z M12,4.60716213 C15.9633319,4.60716213 19.1762471,7.86622298 19.1762471,11.8864783 C19.1762471,15.9067336 15.9633319,19.1657944 12,19.1657944 C8.03666815,19.1657944 4.82375287,15.9067336 4.82375287,11.8864783 C4.82375287,7.86622298 8.03666815,4.60716213 12,4.60716213 Z M21.3636552,16.880829 L21.4556523,16.9272454 L22.2423374,17.3879617 C22.6333641,17.6169635 22.7673398,18.1241488 22.5415804,18.5207917 C22.3331871,18.8869236 21.8911179,19.030884 21.5167873,18.8707491 L21.4247902,18.8243327 L20.6381051,18.3636164 C20.2470784,18.1346146 20.1131027,17.6274292 20.3388621,17.2307863 C20.5472554,16.8646544 20.9893246,16.7206941 21.3636552,16.880829 Z M3.6611379,17.2307863 C3.8695312,17.5969183 3.77140467,18.0572401 3.44752204,18.3060086 L3.36189487,18.3636164 L2.57520977,18.8243327 C2.184183,19.0533345 1.68417901,18.9174346 1.4584196,18.5207917 C1.2500263,18.1546598 1.34815283,17.6943379 1.67203546,17.4455695 L1.75766263,17.3879617 L2.54434773,16.9272454 C2.9353745,16.6982436 3.43537849,16.8341434 3.6611379,17.2307863 Z M23.9874429,10.2031267 C24.0598172,10.6194765 23.8123982,11.0179943 23.424169,11.1393948 L23.3242817,11.1638216 L22.4296964,11.3238267 C21.9850372,11.4033582 21.5610095,11.1021865 21.4826041,10.6511408 C21.4102299,10.234791 21.6576488,9.83627319 22.045878,9.71487268 L22.1457653,9.69044587 L23.0403506,9.53044081 C23.4850098,9.45090929 23.9090375,9.75208101 23.9874429,10.2031267 Z M0.857549903,9.51874036 L0.959649407,9.53044081 L1.8542347,9.69044587 C2.29889393,9.76997739 2.59580131,10.2000952 2.51739589,10.6511408 C2.44502166,11.0674907 2.07815272,11.3561373 1.67240306,11.3355272 L1.57030356,11.3238267 L0.675718264,11.1638216 C0.231059031,11.0842901 -0.065848348,10.6541723 0.012557072,10.2031267 C0.0849313059,9.78677683 0.451800248,9.49813023 0.857549903,9.51874036 Z M19.8242477,2.88869476 C20.1435247,3.16044782 20.2065261,3.62705218 19.9860551,3.97318346 L19.925016,4.05702395 L19.3411169,4.76288213 C19.0508862,5.11373338 18.5352137,5.15949684 18.1893303,4.86509769 C17.8700532,4.59334463 17.8070518,4.12674028 18.0275228,3.780609 L18.088562,3.69676851 L18.6724611,2.99091032 C18.9626918,2.64005908 19.4783642,2.59429562 19.8242477,2.88869476 Z M5.25674058,2.91537638 L5.32753893,2.99091032 L5.91143801,3.69676851 C6.20166871,4.04761975 6.15655322,4.57069855 5.81066974,4.86509769 C5.49139268,5.13685075 5.02744337,5.11876111 4.72968146,4.83841608 L4.65888312,4.76288213 L4.07498404,4.05702395 C3.78475334,3.7061727 3.82986883,3.18309391 4.17575231,2.88869476 C4.49502937,2.6169417 4.95897867,2.63503134 5.25674058,2.91537638 Z M12,-1.0658141e-14 C12.4167866,-1.0658141e-14 12.7607292,0.316361536 12.8111773,0.72526491 L12.8175471,0.829289183 L12.8175471,1.75072161 C12.8175471,2.20872538 12.4515188,2.58001079 12,2.58001079 C11.5832134,2.58001079 11.2392708,2.26364925 11.1888227,1.85474588 L11.1824529,1.75072161 L11.1824529,0.829289183 C11.1824529,0.371285414 11.5484812,-1.0658141e-14 12,-1.0658141e-14 Z"></path>
</svg>