<?xml version="1.0" encoding="UTF-8"?>
<svg width="24px" height="24px" viewBox="0 0 24 24" version="1.1" xmlns="http://www.w3.org/2000/svg" xmlns:xlink="http://www.w3.org/1999/xlink">
  <g id="ZiliSwap" stroke="none" stroke-width="1" fill="none" fill-rule="evenodd">
    <path d="M13.8910165,17.3503311 C14.3535489,17.3503311 14.7285054,17.7206586 14.7285054,18.1774806 C14.7285054,18.5991625 14.4090158,18.9471448 13.9960694,18.9981854 L13.8910165,19.0046301 L1.83748883,19.0046301 C1.37495652,19.0046301 1,18.6343026 1,18.1774806 C1,17.7557987 1.31948958,17.4078164 1.73243601,17.3567758 L1.83748883,17.3503311 L13.8910165,17.3503311 Z M18.0267639,11.0084989 C18.4892962,11.0084989 18.8642527,11.3788263 18.8642527,11.8356484 C18.8642527,12.2573302 18.5447631,12.6053126 18.1318167,12.6563532 L18.0267639,12.6627978 L1.83748883,12.6627978 C1.37495652,12.6627978 1,12.2924704 1,11.8356484 C1,11.4139665 1.31948958,11.0659842 1.73243601,11.0149436 L1.83748883,11.0084989 L18.0267639,11.0084989 Z M22.1625112,4.66666667 C22.6250435,4.66666667 23,5.03699409 23,5.49381613 C23,5.91549801 22.6805104,6.26348034 22.267564,6.31452092 L22.1625112,6.32096559 L1.83748883,6.32096559 C1.37495652,6.32096559 1,5.95063816 1,5.49381613 C1,5.07213425 1.31948958,4.72415192 1.73243601,4.67311134 L1.83748883,4.66666667 L22.1625112,4.66666667 Z" fill="#149BA3"></path>
  </g>
</svg>