<?xml version="1.0" encoding="UTF-8"?>
<svg viewBox="0 0 20 20" version="1.1" xmlns="http://www.w3.org/2000/svg" xmlns:xlink="http://www.w3.org/1999/xlink">
  <g stroke="none" stroke-width="1" fill="none" fill-rule="evenodd">
    <path d="M16.9321223,0.833333333 C17.8590976,0.833333333 18.6046925,1.59237597 18.6046925,2.50590355 C18.6046925,3.41949674 17.8590976,4.17853937 16.9321223,4.17853937 C16.0252858,4.17853937 15.2796253,3.43963554 15.2796253,2.52610796 L15.2796253,2.52610796 L11.5582763,1.68644451 L10.3894385,6.9460832 C12.6397365,7.01994735 14.6683765,7.6916781 16.1730797,8.73286077 C16.5828092,8.32313125 17.1403326,8.06113002 17.7717857,8.06113002 C20.1027046,8.06113002 20.8751949,11.184678 18.7726252,12.2594472 C18.8600027,12.5953126 18.9002803,12.9647645 18.9002803,13.3207687 C18.9002803,16.8541118 14.9236211,19.7156586 10.0132955,19.7156586 C5.12310874,19.7156586 1.14644956,16.8541118 1.14644956,13.3207687 C1.14644956,12.9647645 1.18672716,12.6154514 1.2606569,12.279586 C-0.882190444,11.2115735 -0.116391144,8.06113002 2.22790983,8.06113002 C2.85936298,8.06113002 3.43702519,8.31637458 3.84682031,8.74630851 C5.35145784,7.70512584 7.35995904,7.04008615 9.59011827,6.9460832 L9.59011827,6.9460832 L10.8730978,1.14230324 C10.9268231,0.940784015 11.135099,0.792990129 11.3366182,0.846781068 L11.3366182,0.846781068 L15.447558,1.76030866 C15.7230069,1.22292405 16.2805303,0.833333333 16.9321223,0.833333333 Z M13.701058,15.8666545 C13.5533297,15.7188606 13.2913285,15.7188606 13.1435346,15.8666545 C11.9209715,17.0892176 8.03168979,17.0690788 6.85616097,15.8666545 C6.70836709,15.7188606 6.44636585,15.7188606 6.29863757,15.8666545 C6.13070488,16.0345872 6.13070488,16.2965884 6.29863757,16.4443167 C7.83017057,17.9759153 12.1628339,17.9759153 13.701058,16.4443167 C13.8689907,16.2965884 13.8689907,16.0345872 13.701058,15.8666545 Z M13.6607804,10.8286738 C12.7472528,10.8286738 12.008349,11.5742687 12.008349,12.5013097 C12.008349,13.4148373 12.7539439,14.1537411 13.6607804,14.1537411 C14.5877557,14.1537411 15.3334162,13.4081462 15.3334162,12.5013097 C15.3334162,11.5742687 14.5945124,10.8286738 13.6607804,10.8286738 Z M6.33891517,10.8286738 C5.41193985,10.8286738 4.66627935,11.5742687 4.66627935,12.5013097 C4.66627935,13.4081462 5.41193985,14.1537411 6.33891517,14.1537411 C7.24575169,14.1537411 7.99134659,13.4148373 7.99134659,12.5013097 C7.99134659,11.5742687 7.25244276,10.8286738 6.33891517,10.8286738 Z"></path>
  </g>
</svg>