<?xml version="1.0" encoding="UTF-8"?>
<svg viewBox="0 0 20 20" version="1.1" xmlns="http://www.w3.org/2000/svg" xmlns:xlink="http://www.w3.org/1999/xlink">
  <g stroke="none" stroke-width="1" fill="none" fill-rule="evenodd">
    <path d="M17.9442137,5.7164492 C17.9569166,5.89416933 17.9569166,6.07196577 17.9569166,6.2496859 C17.9569166,11.6705504 13.8325647,17.9166667 6.29442709,17.9166667 C3.97206868,17.9166667 1.81473471,17.2437955 0,16.0758876 C0.329972572,16.1139351 0.647204007,16.126643 0.989841422,16.126643 C2.90604746,16.126643 4.6700465,15.4791877 6.07870513,14.374705 C4.27667342,14.3365812 2.7665053,13.1559273 2.24617861,11.5309159 C2.5,11.5690015 2.75380231,11.5943792 3.02033623,11.5943792 C3.38834148,11.5943792 3.75638487,11.5435856 4.09898414,11.4547446 C2.22081078,11.0738504 0.812152146,9.42349941 0.812152146,7.43033979 L0.812152146,7.37958442 C1.35780852,7.6842693 1.99238584,7.87469735 2.66491953,7.90003687 C1.56086563,7.16370237 0.837558127,5.90687725 0.837558127,4.48500177 C0.837558127,3.72328958 1.04053894,3.02504069 1.3959175,2.41567093 C3.41367116,4.90394348 6.44671038,6.52891676 9.84767856,6.70667505 C9.7842399,6.40199017 9.74616908,6.08463554 9.74616908,5.76724274 C9.74616908,3.50748385 11.5736068,1.66666667 13.8451532,1.66666667 C15.0253869,1.66666667 16.0913318,2.16177959 16.8401216,2.96157739 C17.7664862,2.78385727 18.65478,2.44108678 19.4416406,1.97135154 C19.1370359,2.92352994 18.4898319,3.72332774 17.6396089,4.23111043 C18.4645022,4.14226945 19.2639895,3.91371763 20,3.59636299 C19.4417169,4.40883055 18.743701,5.13245714 17.9442137,5.7164492 Z"></path>
  </g>
</svg>